<?xml version="1.0" standalone="no"?>
<!DOCTYPE svg PUBLIC "-//W3C//DTD SVG 20010904//EN"
 "http://www.w3.org/TR/2001/REC-SVG-20010904/DTD/svg10.dtd">
<svg version="1.0" xmlns="http://www.w3.org/2000/svg"
 width="2083.000000pt" height="2083.000000pt" viewBox="0 0 2083.000000 2083.000000"
 preserveAspectRatio="xMidYMid meet">

<g transform="translate(0.000000,2083.000000) scale(0.100000,-0.100000)"
fill="#088EA2" stroke="none">
<path d="M6823 12423 c3 -5 -9 -7 -28 -5 -42 5 -158 -45 -151 -64 3 -7 0 -16
-6 -20 -7 -4 -8 -3 -4 4 14 23 -10 12 -37 -16 -15 -16 -24 -32 -20 -37 5 -4 3
-5 -3 -2 -18 10 -35 -16 -22 -33 8 -12 9 -12 4 3 -4 11 -2 16 5 12 14 -10 6
-28 -14 -31 -10 -1 -14 2 -11 8 4 6 3 9 -2 5 -5 -3 -29 -46 -53 -95 -41 -84
-43 -91 -28 -107 22 -22 21 -28 -2 -15 -17 9 -21 5 -31 -26 -7 -19 -9 -38 -6
-41 3 -4 6 2 6 12 0 10 3 16 6 12 9 -8 -6 -48 -16 -42 -5 3 -14 -19 -20 -48
-11 -49 -15 -54 -64 -79 -28 -14 -50 -31 -48 -38 1 -6 -1 -9 -6 -6 -5 3 -17
-2 -26 -12 -108 -111 -145 -226 -124 -387 6 -47 13 -83 17 -81 3 2 6 -9 7 -25
1 -32 98 -232 122 -251 13 -11 14 -11 7 1 -5 10 -4 12 3 7 7 -4 12 -13 12 -19
0 -17 69 -81 110 -102 40 -21 67 -45 50 -45 -7 0 -10 -7 -7 -15 7 -17 7 -241
0 -340 -4 -66 -7 -72 -43 -107 -26 -25 -38 -44 -36 -60 2 -18 -2 -23 -23 -25
l-26 -1 24 19 c13 10 19 19 14 19 -5 0 -38 -29 -73 -65 -50 -51 -62 -67 -52
-77 9 -9 12 -8 12 6 0 9 5 14 10 11 15 -9 12 -19 -11 -33 -12 -8 -18 -9 -15
-3 4 5 1 13 -5 17 -14 8 -29 -14 -22 -33 4 -9 0 -11 -13 -6 -14 5 -16 3 -11
-11 4 -9 3 -15 -2 -11 -13 7 -69 -76 -63 -94 3 -8 0 -11 -7 -7 -7 4 -9 2 -5
-8 5 -12 9 -12 30 -1 27 14 53 44 53 60 0 6 -6 2 -13 -8 -9 -12 -16 -14 -21
-8 -10 17 3 30 25 26 24 -5 48 30 27 39 -7 3 -6 5 3 3 19 -2 193 177 182 188
-4 5 -2 5 4 2 6 -3 33 14 60 38 27 25 52 45 57 45 4 0 6 10 6 23 -1 15 -3 17
-6 5 -2 -9 -16 -24 -30 -33 -20 -13 -28 -14 -37 -4 -8 9 -8 10 3 4 9 -5 12 -4
7 3 -5 8 0 12 13 12 12 0 21 6 22 13 0 6 3 23 6 37 3 14 7 90 8 170 2 80 1
135 -2 123 -2 -13 -8 -23 -13 -23 -5 0 -3 20 4 45 10 33 11 45 3 45 -8 0 -7 3
1 9 11 6 10 10 -3 15 -14 5 -15 9 -5 21 11 14 14 13 24 -7 14 -27 47 -36 158
-44 109 -9 313 13 298 31 -12 14 -3 25 19 24 12 0 10 -3 -4 -8 -19 -8 -19 -8
2 -15 12 -4 31 -2 42 3 15 9 22 6 35 -12 12 -15 18 -18 22 -9 8 17 27 15 20
-3 -3 -8 -1 -15 5 -15 7 0 9 10 5 26 -7 27 9 58 26 48 14 -9 98 19 91 30 -4 5
1 7 10 3 23 -8 207 71 207 89 0 8 5 14 11 14 5 0 7 -5 4 -11 -4 -6 12 -1 35
11 33 17 40 24 29 31 -8 5 -9 9 -3 9 6 0 18 -8 25 -17 10 -11 10 -14 2 -9 -7
4 -13 2 -13 -4 0 -6 7 -13 15 -16 8 -4 13 -10 10 -14 -8 -13 16 -70 28 -63 6
3 7 1 3 -5 -4 -7 -4 -18 1 -24 4 -7 8 -15 8 -18 1 -22 30 -88 37 -84 4 3 4 14
-2 24 -16 30 -11 37 7 10 10 -14 19 -32 20 -41 3 -22 -56 -91 -73 -85 -8 3
-30 -6 -50 -19 -20 -14 -41 -25 -46 -25 -5 0 -6 -4 -3 -10 3 -5 0 -7 -8 -4 -8
3 -21 -1 -28 -8 -8 -7 -21 -14 -28 -16 -8 -2 -26 -10 -40 -18 -16 -9 -18 -13
-6 -9 11 4 39 9 63 12 23 2 73 14 110 26 56 19 67 25 66 44 0 12 3 20 8 17 4
-3 8 -12 8 -21 0 -13 3 -13 16 -3 13 11 16 10 21 -8 3 -12 9 -19 14 -16 5 3 8
-3 6 -13 -1 -10 9 -60 22 -112 l24 -94 19 22 c19 24 23 15 12 -26 -4 -13 -11
-20 -17 -16 -7 4 -8 0 -4 -11 4 -10 12 -50 19 -90 6 -39 12 -72 14 -74 1 -2
12 1 23 7 17 10 20 9 15 -4 -4 -8 -12 -15 -20 -15 -9 0 -14 -12 -14 -34 0 -23
-7 -39 -22 -50 -13 -9 -18 -14 -11 -11 6 3 14 1 17 -3 3 -5 -5 -9 -17 -8 -23
0 -160 -62 -165 -75 -2 -4 -9 -6 -17 -3 -8 3 -22 1 -32 -5 -15 -8 -10 -10 25
-11 31 0 42 4 42 15 0 10 9 15 28 14 24 0 25 -1 7 -9 -17 -7 -15 -9 13 -9 17
-1 32 3 32 8 0 5 10 9 23 9 35 1 81 14 89 26 4 6 8 -3 8 -21 0 -17 6 -34 13
-36 6 -3 8 -6 2 -6 -6 -1 -9 -52 -7 -138 3 -122 -8 -260 -25 -317 -4 -14 -1
-18 11 -13 29 11 17 -1 -26 -26 -58 -34 -134 -55 -226 -63 -61 -6 -71 -9 -51
-16 13 -5 47 -11 76 -13 29 -2 67 -7 85 -10 18 -4 46 -2 61 4 26 10 28 9 25
-17 -2 -15 -9 -33 -16 -41 -7 -7 -16 -27 -19 -43 -3 -16 -8 -26 -11 -23 -5 5
-52 -58 -52 -70 0 -3 -22 -29 -50 -57 -27 -28 -50 -55 -50 -59 0 -5 -6 -9 -13
-9 -18 0 -49 -35 -40 -44 5 -4 3 -7 -2 -6 -24 5 -27 -1 -11 -19 17 -19 18 -19
44 2 56 45 149 146 183 198 34 52 48 99 28 99 -5 0 -9 5 -9 11 0 8 6 7 17 -2
15 -12 16 -12 10 3 -3 10 -1 20 5 24 7 5 9 -2 4 -22 -4 -16 -7 -36 -6 -44 0
-8 0 -132 -1 -276 l0 -260 63 -40 c35 -21 68 -39 75 -39 6 0 15 -4 20 -9 5 -5
2 -6 -7 -1 -13 8 -13 7 -1 -8 16 -21 32 -22 25 -3 -9 24 13 26 32 3 l19 -22
-22 19 c-13 11 -23 14 -23 8 0 -6 4 -13 9 -16 10 -7 9 -31 -2 -42 -12 -12
-523 -7 -546 5 -11 6 -25 10 -32 9 -6 -2 -13 6 -15 17 -1 11 -7 21 -13 23 -5
2 -8 11 -5 20 4 12 -1 9 -15 -7 -12 -13 -21 -19 -21 -14 0 5 5 14 12 21 12 12
13 156 2 194 -3 10 3 19 16 23 11 4 30 16 42 28 11 12 18 16 14 10 -10 -18 -4
-16 32 10 25 19 29 26 19 37 -10 10 -8 10 9 1 17 -8 25 -7 35 5 11 14 10 18
-6 30 -16 12 -22 12 -30 2 -6 -7 -16 -14 -24 -16 -15 -3 -67 -38 -89 -59 -7
-7 -20 -13 -27 -13 -21 0 -85 -32 -85 -43 0 -5 10 -7 23 -3 12 3 26 6 30 6 5
0 5 4 2 10 -3 6 1 7 10 4 8 -4 23 0 32 7 13 11 13 8 -2 -14 -15 -19 -26 -26
-42 -22 -12 3 -28 -2 -37 -10 -20 -20 -26 -19 -26 5 0 13 -5 18 -15 14 -8 -4
-12 -11 -9 -16 4 -6 -2 -8 -15 -3 -13 4 -21 2 -21 -5 0 -7 -7 -9 -16 -6 -10 4
-13 2 -8 -6 5 -7 2 -9 -8 -5 -20 7 -101 -16 -91 -27 4 -4 0 -4 -9 -1 -10 4
-23 3 -30 -1 -7 -4 -19 -9 -28 -10 -8 -1 -62 -11 -120 -23 -58 -12 -123 -24
-145 -26 -22 -2 -92 -9 -155 -15 -63 -6 -160 -11 -215 -11 -74 1 -96 -2 -85
-10 12 -8 9 -9 -10 -4 -46 12 -100 15 -100 5 0 -6 -9 -10 -21 -10 -11 0 -17 5
-14 10 3 6 1 10 -4 10 -6 0 -11 6 -11 14 0 10 7 12 22 8 15 -4 19 -2 13 7 -6
10 -2 11 15 6 15 -5 20 -4 16 4 -4 6 -15 11 -24 12 -9 0 -12 3 -6 5 6 3 21 1
35 -4 26 -10 133 20 159 44 12 12 11 14 -10 14 -34 0 -22 7 25 14 37 6 38 6
20 -9 -27 -21 60 15 111 47 22 12 56 32 77 42 38 20 45 42 12 39 -12 -1 -14 2
-6 10 7 7 15 6 26 -3 13 -10 22 -8 58 16 66 44 118 96 108 108 -6 7 -5 18 2
27 11 15 14 15 27 1 13 -14 12 -15 -3 -9 -19 7 -33 -8 -16 -19 15 -9 122 102
113 118 -5 7 -11 5 -21 -7 -12 -18 -13 -18 -13 2 0 21 20 26 37 10 12 -13 87
86 146 195 34 61 51 105 27 68 -8 -12 -10 -12 -10 -1 0 11 -3 11 -15 1 -10 -9
-15 -9 -15 -1 0 10 13 15 33 12 4 0 7 4 7 10 0 5 4 8 9 5 14 -9 43 86 31 98
-5 5 -10 14 -10 20 0 5 6 1 14 -9 12 -17 15 -14 29 31 40 125 74 290 63 301
-3 3 0 13 6 21 29 35 7 652 -24 652 -5 0 -6 4 -3 10 8 12 -5 81 -14 76 -4 -3
-5 11 -3 30 4 35 -13 48 -25 18 -5 -14 -8 -13 -20 7 -8 13 -12 17 -10 9 3 -9
12 -63 22 -120 9 -58 19 -112 22 -120 20 -62 22 -425 3 -560 -7 -52 -14 -106
-15 -120 -2 -14 -5 -32 -8 -40 -28 -77 -66 -223 -61 -232 4 -6 3 -9 -2 -5 -5
3 -26 -30 -46 -74 -26 -57 -33 -79 -23 -79 9 0 12 -6 8 -16 -4 -12 -7 -13 -14
-3 -9 16 -5 20 -58 -59 -129 -192 -322 -353 -544 -453 -31 -14 -54 -29 -50
-34 5 -4 3 -5 -3 -2 -16 9 -131 -36 -128 -51 1 -7 0 -8 -3 -2 -7 14 -23 13
-57 -5 -15 -8 -32 -13 -36 -10 -5 3 -21 0 -37 -6 -15 -7 -46 -14 -68 -16 -22
-3 -42 -8 -45 -13 -6 -10 -273 -4 -321 8 -31 8 -39 6 -58 -14 -13 -13 -27 -21
-32 -18 -13 8 -1 24 19 24 15 0 15 2 2 10 -16 10 -16 10 32 14 14 1 62 45 108
99 28 32 30 40 19 55 -11 14 -11 15 1 5 21 -20 32 -15 26 10 -3 12 -3 16 0 9
5 -10 9 -10 20 -1 19 16 18 33 -2 25 -14 -5 -15 -4 -5 8 7 8 10 19 7 25 -4 5
3 7 15 4 15 -4 17 -8 8 -14 -8 -4 -11 -11 -7 -14 16 -16 193 108 182 128 -4 7
-3 9 1 4 12 -10 75 53 75 76 0 10 -5 15 -10 12 -6 -4 -7 -11 -4 -17 5 -7 2 -8
-6 -3 -10 6 -12 4 -7 -8 4 -12 2 -14 -10 -10 -12 5 -14 3 -8 -7 6 -9 4 -11 -5
-5 -10 6 -3 18 27 46 23 21 38 40 35 43 -3 3 -3 6 0 6 3 0 12 -8 19 -17 10
-11 10 -14 2 -9 -8 4 -13 2 -13 -4 0 -6 -4 -9 -9 -6 -5 4 -7 -4 -3 -16 3 -14
7 -18 10 -9 3 8 20 27 39 44 18 16 31 32 28 35 -3 3 4 12 16 20 11 8 18 20 15
29 -3 8 -2 12 3 9 5 -3 14 1 21 9 7 8 9 15 6 15 -4 0 2 10 14 22 11 12 20 26
20 30 0 5 10 22 21 37 13 18 18 34 14 43 -5 7 -5 10 0 6 10 -9 40 37 64 101
13 30 25 46 37 47 78 4 79 4 64 15 -12 9 -12 10 4 5 22 -8 97 14 90 26 -3 4
-9 6 -14 3 -13 -8 -41 6 -33 18 4 6 0 8 -10 4 -9 -3 -35 -11 -59 -18 -40 -11
-59 -14 -148 -22 -67 -7 -65 -5 -45 -27 10 -11 29 -20 43 -20 19 0 23 -4 20
-18 -4 -15 0 -18 21 -15 14 2 20 0 14 -3 -7 -3 -13 -12 -13 -19 0 -8 -7 -11
-19 -8 -13 3 -24 -5 -38 -29 -19 -32 -21 -64 -3 -53 4 3 6 -4 3 -15 -7 -27
-23 -25 -24 3 -1 20 -2 20 -6 2 -3 -11 -12 -24 -19 -28 -8 -5 -12 -13 -8 -18
4 -7 10 -7 18 0 8 7 12 4 13 -12 2 -14 -1 -17 -6 -9 -5 8 -13 1 -24 -23 -9
-19 -21 -35 -27 -35 -16 0 -12 14 10 33 22 19 27 39 7 32 -14 -6 -73 -96 -69
-108 1 -4 -1 -6 -5 -5 -10 3 -165 -157 -164 -169 0 -4 -5 -8 -12 -8 -16 0 -57
-28 -57 -39 0 -4 6 -4 13 2 8 7 18 7 27 2 11 -7 12 -10 2 -10 -7 0 -10 -5 -6
-12 5 -7 3 -8 -7 -2 -8 4 -18 9 -24 10 -5 1 -14 3 -20 4 -23 5 -37 -1 -32 -14
3 -8 0 -17 -7 -19 -8 -3 -12 5 -12 23 0 21 4 26 18 22 21 -5 33 20 48 101 10
59 43 110 114 176 27 26 33 41 15 41 -5 0 -7 -4 -4 -10 10 -16 -1 -11 -16 7
-8 9 -9 14 -3 10 11 -6 28 26 25 48 -1 6 8 -1 19 -14 11 -13 20 -19 20 -15 0
5 30 41 65 79 36 39 65 73 65 77 0 4 -14 -1 -30 -10 -17 -9 -28 -22 -26 -28 2
-6 -2 -11 -9 -11 -11 0 -11 5 -4 19 10 19 55 43 74 40 15 -3 37 36 25 43 -6 4
-10 3 -9 -2 3 -19 -2 -23 -14 -11 -11 10 -9 16 10 34 l24 22 -29 7 c-17 3 -38
15 -48 27 -26 28 -25 118 3 179 19 44 20 47 3 69 l-17 22 -21 -45 c-12 -26
-19 -54 -15 -63 4 -12 3 -15 -5 -10 -7 4 -12 3 -12 -3 0 -5 -23 -31 -50 -57
-28 -26 -48 -49 -45 -52 2 -3 -6 -13 -19 -23 -45 -35 -131 -142 -118 -147 6
-2 12 -8 12 -14 0 -6 -6 -6 -15 2 -17 14 -39 4 -31 -16 3 -9 0 -11 -11 -7 -12
5 -14 3 -8 -7 6 -10 2 -11 -21 -6 -31 7 -342 55 -359 56 -5 0 -3 -5 5 -10 8
-5 10 -10 5 -10 -6 0 -16 5 -22 11 -21 21 -96 -18 -154 -80 -112 -118 -119
-128 -103 -142 12 -10 13 -9 8 5 -3 9 -2 16 4 16 5 0 12 -6 15 -14 7 -18 -17
-28 -32 -13 -8 8 -16 6 -31 -8 -11 -10 -20 -23 -20 -29 0 -6 4 -5 9 3 5 7 14
10 20 7 21 -13 11 -26 -16 -22 -22 3 -34 -3 -57 -30 -24 -30 -26 -36 -15 -51
12 -14 12 -16 0 -8 -11 6 -13 4 -8 -8 3 -9 -2 -26 -12 -38 -16 -21 -18 -21
-16 -3 1 10 7 30 14 44 10 19 4 16 -23 -13 -19 -20 -48 -54 -63 -74 -15 -20
-41 -50 -56 -67 -16 -17 -36 -39 -44 -48 -19 -21 -9 -82 13 -74 8 3 14 1 14
-4 0 -6 -4 -10 -10 -10 -5 0 -10 -7 -10 -15 0 -8 -4 -15 -10 -15 -5 0 -21 -18
-36 -39 -47 -72 -9 -140 92 -164 32 -8 51 -15 40 -16 -14 -1 -17 -6 -12 -23
15 -52 18 -86 7 -92 -7 -5 -8 -13 -2 -24 5 -10 6 -33 2 -52 l-7 -35 -9 30 c-4
17 -7 39 -6 50 1 19 1 19 -9 2 -20 -32 -20 -92 1 -123 10 -16 19 -25 19 -20 0
6 6 2 13 -7 23 -31 97 -26 131 8 15 15 36 25 54 25 30 0 51 25 29 33 -7 2 12
3 41 1 28 -2 60 -8 71 -13 14 -8 23 -6 36 9 10 11 22 20 27 20 5 0 2 -7 -7
-16 -11 -12 -13 -19 -5 -24 6 -4 -11 -7 -37 -8 -34 -1 -44 1 -33 8 24 16 -11
13 -51 -5 l-34 -14 35 -2 c19 0 53 -3 75 -5 40 -3 81 19 69 38 -3 4 -2 7 3 6
5 -2 39 30 77 70 38 39 65 72 61 72 -4 0 4 9 19 21 14 11 23 25 20 31 -4 6 -2
8 3 5 6 -4 18 2 27 12 19 20 6 38 -16 25 -8 -5 -7 -1 2 10 8 11 16 14 18 7 2
-7 11 -6 25 4 16 10 44 13 105 10 45 -2 86 -6 90 -8 16 -10 455 -29 577 -26
l130 4 -3 -31 c-7 -57 17 -177 43 -216 40 -60 60 -66 240 -67 88 -1 228 -4
310 -7 111 -4 146 -3 135 6 -12 8 -9 9 13 4 32 -7 83 11 91 33 9 22 -18 66
-58 97 -20 15 -37 25 -38 24 -2 -2 -15 7 -28 20 -14 12 -35 25 -48 29 -22 5
-23 8 -20 106 3 83 6 101 19 102 9 2 55 18 102 37 48 19 89 33 92 30 3 -3 5
-13 5 -23 0 -12 6 -16 20 -12 23 6 24 2 8 -52 l-12 -40 -7 35 c-6 26 -7 20 -4
-22 2 -31 13 -74 24 -96 23 -45 75 -87 92 -76 8 4 9 3 5 -4 -5 -9 64 -12 276
-12 270 0 284 1 313 21 l30 21 -44 -5 c-29 -4 -40 -2 -30 4 7 5 26 9 42 9 19
0 27 5 27 18 0 18 -48 72 -63 72 -5 0 -20 11 -35 25 -15 14 -42 32 -60 41
l-33 15 4 352 c4 342 6 381 19 402 26 42 37 402 17 545 -6 41 -11 83 -11 93 1
9 -4 17 -10 17 -5 0 -7 8 -4 17 8 21 -44 273 -56 273 -5 0 -6 4 -3 10 13 21
-113 398 -128 383 -5 -4 -5 0 -2 8 3 8 -8 46 -25 84 -33 74 -34 87 -4 90 10 2
82 10 159 19 109 12 374 30 555 37 42 1 80 11 75 19 -3 6 1 7 9 4 23 -9 138
68 123 82 -14 14 29 44 65 44 21 0 38 4 38 10 0 5 6 7 14 4 21 -8 122 14 170
38 82 39 86 42 81 63 -3 11 -2 14 1 8 9 -19 41 2 60 39 12 24 13 36 5 54 -7
16 -7 25 0 30 7 4 8 20 5 37 -9 46 -46 118 -57 111 -5 -3 0 -18 11 -34 28 -40
25 -47 -6 -11 -19 23 -23 35 -16 48 11 19 -13 67 -29 57 -5 -3 -6 3 -2 12 4
12 3 15 -5 10 -7 -4 -12 -1 -12 8 0 26 -72 98 -119 119 -33 14 -49 17 -65 9
-11 -6 -29 -13 -39 -16 -11 -3 -15 -11 -11 -17 4 -8 3 -9 -5 -5 -7 4 -20 -2
-31 -16 -20 -24 -26 -43 -11 -33 16 9 22 -13 9 -34 -7 -11 -17 -17 -23 -12
-28 22 -153 51 -200 47 -27 -2 -44 -2 -37 1 23 9 12 20 -15 16 -21 -2 -23 -1
-10 5 30 13 -68 40 -147 41 -63 0 -68 -1 -63 -19 3 -11 0 -23 -5 -27 -6 -3 -8
-2 -5 3 3 6 2 16 -2 23 -7 10 -13 10 -29 2 -15 -8 -23 -8 -27 0 -4 6 -14 8
-22 5 -8 -3 -12 -2 -9 3 6 9 -15 21 -49 27 -11 2 -32 7 -47 10 -16 3 -28 2
-28 -3 0 -5 -24 -10 -52 -10 -46 -1 -49 0 -23 7 25 8 23 9 -17 6 -59 -4 -84
-21 -66 -44 11 -13 10 -15 -4 -9 -9 3 -18 1 -21 -6 -2 -6 -6 -3 -10 7 -4 9 -3
15 1 12 4 -3 13 4 19 14 10 14 9 19 -5 24 -9 3 -35 12 -57 20 -22 9 -48 16
-57 16 -9 0 -20 5 -24 12 -4 7 -3 8 5 4 6 -4 2 17 -10 46 -11 29 -25 55 -30
56 -5 2 -7 8 -3 13 8 14 -66 160 -78 153 -6 -4 -9 -1 -6 7 3 8 0 19 -6 26 -6
7 -24 30 -41 52 -16 22 -35 38 -42 36 -7 -2 -15 1 -19 7 -5 7 -2 8 6 3 9 -6
11 -4 5 4 -4 7 -27 21 -52 32 -50 21 -98 26 -87 8 4 -8 0 -9 -15 -4 -22 7 -66
-15 -108 -54 l-21 -20 -29 25 c-49 43 -209 108 -190 77z m-98 -43 c-8 -13 43
-24 58 -12 20 16 109 -2 161 -32 50 -29 112 -101 168 -197 19 -32 38 -56 41
-53 3 4 0 13 -8 21 -8 8 -15 19 -15 26 0 6 11 -4 25 -23 14 -19 25 -39 25 -44
0 -6 -4 -5 -9 3 -20 31 -18 -9 2 -62 17 -43 26 -55 39 -51 9 3 19 0 23 -5 3
-7 0 -8 -10 -5 -11 5 -14 2 -9 -12 5 -16 4 -17 -6 -4 -9 12 -10 10 -5 -10 13
-46 44 -110 54 -110 5 0 13 5 16 10 4 6 10 8 14 6 15 -9 51 25 51 48 0 13 6
23 14 23 8 0 13 -8 11 -18 -3 -12 1 -16 11 -12 7 3 11 9 8 14 -3 5 -1 9 5 9 5
0 12 -6 15 -12 4 -7 4 2 1 20 -2 17 0 32 5 32 6 0 10 -11 10 -25 0 -23 2 -24
53 -18 28 3 67 12 85 19 26 11 38 11 63 0 31 -13 31 -13 8 -20 -18 -4 -21 -8
-11 -15 11 -6 10 -12 -5 -26 -17 -18 -17 -18 17 -12 25 5 31 4 20 -3 -8 -5
-24 -10 -35 -10 -18 -1 -18 -2 -3 -10 12 -7 30 -3 68 17 66 34 185 44 244 19
48 -20 57 -20 31 0 -19 15 -19 16 -1 12 10 -1 22 -13 27 -25 6 -16 5 -21 -5
-17 -9 4 -13 -4 -12 -25 1 -17 6 -29 11 -27 6 2 9 9 7 15 -1 7 1 10 6 7 5 -3
31 6 58 20 43 23 58 25 128 21 62 -3 82 -8 92 -22 17 -23 18 -45 3 -45 -6 0
-9 7 -5 15 9 25 -11 17 -39 -16 -14 -18 -24 -38 -21 -46 3 -8 2 -11 -3 -8 -11
6 -25 -31 -17 -44 4 -5 2 -11 -3 -13 -14 -5 -17 -116 -3 -130 20 -20 42 10 42
57 0 23 7 64 15 90 8 27 12 52 9 57 -3 5 -2 7 3 6 4 -1 21 6 36 16 21 14 25
21 15 27 -9 6 -9 9 -1 9 6 0 14 -4 17 -8 9 -15 65 -1 59 14 -3 8 -1 14 5 14 5
0 12 -9 15 -21 3 -12 10 -18 15 -15 6 3 36 -6 68 -20 67 -30 154 -55 165 -48
5 2 5 12 2 22 -6 15 -5 15 10 3 9 -7 14 -17 11 -22 -3 -5 4 -9 15 -9 24 0 33
13 25 35 -5 11 -17 16 -38 15 -40 -2 -76 9 -76 24 0 6 14 28 31 49 17 20 26
37 20 37 -6 0 -11 -5 -11 -12 0 -6 -3 -9 -6 -6 -11 11 19 46 35 41 49 -16 82
-37 112 -72 61 -70 82 -96 82 -101 1 -10 37 -65 37 -55 0 5 5 4 12 -3 6 -6 13
-30 14 -52 1 -23 5 -57 9 -77 4 -23 3 -33 -4 -28 -7 3 -11 -2 -11 -14 0 -15 5
-19 20 -16 12 2 18 0 15 -6 -4 -5 -11 -6 -17 -3 -8 5 -9 1 -5 -12 7 -18 7 -18
-7 -1 -14 18 -16 18 -45 -4 -24 -17 -28 -26 -20 -36 8 -9 8 -13 0 -13 -6 0
-11 5 -11 11 0 7 -7 8 -17 4 -41 -16 -170 -47 -196 -47 -15 1 -25 -2 -23 -6 2
-4 -28 -8 -67 -8 -40 -1 -99 -3 -132 -4 -33 -1 -150 4 -260 11 -110 8 -224 14
-252 14 -29 0 -53 3 -53 6 0 13 -144 18 -159 6 -12 -9 -13 -9 -8 0 10 16 -33
28 -68 19 -16 -4 -25 -2 -25 5 0 7 -13 10 -35 7 -19 -2 -35 -1 -35 3 0 3 -28
10 -62 13 -35 4 -116 16 -182 26 -81 14 -124 16 -136 10 -24 -13 -40 -13 -20
0 13 8 13 10 0 14 -32 11 -202 34 -216 29 -8 -3 -14 0 -14 6 0 6 -12 11 -26
11 -14 0 -45 5 -70 11 -35 9 -48 9 -57 -1 -10 -10 -7 -11 13 -5 19 5 21 4 10
-4 -12 -9 -11 -11 9 -11 13 0 22 -3 18 -6 -3 -3 -20 -3 -37 1 -25 6 -30 10
-24 27 5 18 3 20 -21 16 -17 -4 -28 -1 -32 8 -3 8 -10 11 -15 8 -6 -4 -5 -10
3 -15 11 -7 10 -9 -3 -9 -10 0 -16 7 -15 19 0 11 8 18 17 16 26 -4 32 6 13 22
-16 13 -16 13 6 3 20 -10 27 -9 43 8 37 36 -7 59 -47 24 -46 -39 -65 -74 -65
-119 0 -27 4 -42 10 -38 5 3 8 0 5 -7 -6 -16 30 -77 51 -85 30 -11 38 14 16
49 -22 33 -31 23 -12 -12 7 -13 7 -21 0 -25 -6 -4 -10 -3 -9 2 1 4 -2 23 -6
41 -6 25 -10 30 -17 20 -8 -10 -9 -10 -5 2 2 8 10 14 16 13 6 -2 11 6 11 17 0
14 5 18 17 13 12 -5 15 -2 10 10 -3 9 -3 17 2 17 5 0 11 -8 14 -19 3 -14 21
-21 70 -31 36 -6 71 -9 77 -5 6 4 30 3 53 -1 35 -6 39 -8 22 -15 -18 -8 -17
-9 5 -7 14 1 50 -4 80 -10 126 -27 304 -52 322 -46 13 4 18 2 14 -4 -6 -11 97
-23 151 -18 18 1 30 -1 27 -6 -3 -4 -2 -8 3 -8 4 0 37 -5 73 -10 230 -33 594
-61 759 -59 103 2 136 -1 139 -11 3 -7 0 -10 -7 -6 -6 4 -11 3 -11 -3 0 -12
-68 -55 -95 -58 -11 -2 -27 -6 -35 -9 -8 -4 -96 -9 -195 -11 -99 -3 -182 -8
-185 -12 -3 -3 -48 -7 -100 -7 -135 -2 -361 -39 -344 -57 4 -4 -1 -7 -12 -7
-10 0 -59 -20 -107 -44 l-89 -45 34 -10 c18 -5 25 -10 16 -10 -9 -1 -24 -4
-34 -8 -11 -4 -15 -3 -11 4 4 6 1 13 -5 15 -19 7 -78 -14 -72 -24 3 -5 -7 -6
-22 -2 -16 4 -25 3 -21 -2 3 -6 -2 -10 -11 -10 -9 -1 -62 -13 -117 -28 -156
-41 -258 -55 -380 -51 -60 2 -125 8 -142 14 -24 7 -33 7 -33 -2 0 -7 -5 -4
-11 6 -6 9 -14 15 -19 12 -5 -3 -11 -1 -15 4 -3 6 -13 7 -22 4 -9 -4 -14 -2
-10 3 3 5 -8 17 -24 27 -17 9 -27 13 -24 7 3 -5 1 -11 -5 -15 -6 -4 -7 -11 -4
-17 4 -7 2 -8 -5 -4 -9 6 -9 11 -1 21 8 10 2 22 -27 52 -21 21 -42 36 -48 35
-5 -2 -7 0 -2 4 4 4 0 19 -9 33 -34 51 -94 176 -94 196 0 17 -2 18 -11 5 -8
-11 -9 -8 -4 13 4 19 2 26 -4 22 -6 -3 -9 0 -6 7 3 7 1 35 -4 61 -12 65 3 186
29 237 11 22 18 46 14 53 -4 7 -4 9 1 5 12 -12 56 53 45 67 -6 7 -3 11 10 11
10 0 16 -5 14 -11 -3 -5 0 -3 8 5 11 13 71 43 128 64 8 4 -5 4 -30 2 -25 -2
-36 -2 -26 1 15 4 16 7 5 14 -9 5 -2 7 21 5 19 -2 27 -1 18 1 -21 5 -23 19 -6
29 6 4 8 3 4 -4 -3 -6 7 -13 25 -17 18 -4 27 -10 21 -14 -5 -3 42 -6 106 -7
74 -1 145 -8 192 -19 41 -10 87 -18 102 -18 16 0 25 -4 21 -10 -4 -6 2 -8 15
-5 12 4 20 2 16 -3 -6 -11 -2 -11 21 -3 13 6 14 9 3 16 -10 7 -8 8 6 6 11 -2
20 -11 22 -20 1 -11 -3 -15 -12 -11 -8 3 -14 3 -14 0 0 -2 28 -15 63 -27 34
-13 76 -31 93 -41 28 -17 33 -17 50 -3 13 10 15 17 7 20 -7 3 -10 11 -7 18 4
10 -3 12 -23 10 -15 -2 -21 -1 -13 2 8 4 18 11 21 17 11 15 9 106 -2 150 -6
23 -10 50 -10 60 0 9 -5 15 -10 11 -6 -3 -8 5 -4 23 3 15 2 22 -1 15 -3 -6
-10 -9 -15 -6 -6 4 -6 11 1 19 15 18 -34 132 -56 132 -8 0 -14 -4 -14 -9 0 -5
-5 -6 -11 -2 -8 4 -4 11 11 19 22 12 22 12 -16 44 -60 49 -115 59 -203 37 -40
-9 -90 -66 -106 -120 -24 -78 -17 -254 9 -239 6 3 7 2 3 -3 -5 -4 -61 -7 -125
-6 -89 2 -113 0 -102 -9 13 -9 12 -10 -3 -5 -10 3 -23 6 -28 6 -5 0 -4 11 1
26 6 14 8 37 5 52 -3 15 -2 20 2 12 8 -19 63 146 56 169 -4 12 -3 13 5 3 7
-11 10 -10 16 3 3 9 3 22 -1 27 -3 7 -1 8 5 4 7 -4 12 -3 12 3 0 5 -4 13 -10
16 -5 3 -10 11 -10 18 0 6 6 2 14 -9 14 -18 15 -18 26 10 13 34 120 141 150
151 11 4 18 10 15 15 -3 5 -13 6 -23 3 -13 -4 -13 -2 3 10 23 19 29 21 20 7z
m435 -15 c0 -1 -8 -5 -18 -7 -11 -3 -19 0 -19 7 0 7 8 10 19 7 10 -2 18 -6 18
-7z m-155 -35 c-7 -12 -45 6 -45 20 0 5 -8 7 -17 4 -15 -5 -15 -4 -4 4 17 12
75 -13 66 -28z m105 26 c0 -3 -4 -8 -10 -11 -5 -3 -10 -1 -10 4 0 6 5 11 10
11 6 0 10 -2 10 -4z m162 -4 c-9 -6 -6 -12 12 -22 14 -7 38 -29 54 -49 33 -41
102 -158 102 -172 0 -14 11 -11 24 7 10 13 12 10 14 -15 1 -17 -2 -31 -8 -31
-5 0 -7 8 -3 18 4 12 3 14 -6 6 -11 -10 7 -66 39 -125 11 -21 3 -29 -25 -29
-18 0 -28 13 -48 58 -13 31 -34 68 -46 81 -11 13 -21 30 -21 38 0 8 -5 11 -12
7 -7 -5 -8 -3 -3 5 8 13 -37 61 -78 83 -44 23 -123 19 -113 -7 3 -10 0 -12
-11 -8 -12 5 -14 3 -8 -7 6 -9 4 -11 -5 -5 -9 5 -10 2 -5 -14 4 -14 2 -21 -6
-21 -7 0 -9 3 -6 7 4 3 1 11 -6 17 -7 6 -10 10 -8 9 2 -2 10 2 17 8 15 12 7
42 -9 32 -6 -4 -8 0 -4 10 4 10 2 17 -4 17 -7 0 -9 -11 -6 -25 4 -24 3 -25
-13 -10 -10 9 -17 28 -17 43 0 15 2 21 4 15 7 -21 22 -15 16 6 -3 13 2 23 16
31 12 6 19 15 16 20 -3 6 1 7 9 4 9 -3 16 -2 16 3 0 5 26 11 57 12 32 1 60 4
62 7 2 2 9 4 15 4 6 0 6 -4 -2 -8z m-597 -11 c3 -5 2 -12 -3 -15 -5 -3 -9 1
-9 9 0 17 3 19 12 6z m408 -33 c-10 -12 -19 -15 -21 -8 -7 20 7 40 23 34 14
-6 14 -9 -2 -26z m259 10 c-9 -9 -15 -9 -24 0 -9 9 -7 12 12 12 19 0 21 -3 12
-12z m-702 -12 c-7 -7 -14 -6 -21 1 -9 9 -7 12 9 10 14 -1 18 -5 12 -11z m-27
-25 c-4 -4 -11 -10 -14 -14 -4 -4 -6 4 -6 18 0 21 2 23 14 14 8 -7 10 -15 6
-18z m760 16 c3 -8 2 -20 -3 -26 -5 -9 -7 -4 -7 13 0 29 2 32 10 13z m-329
-23 c9 -24 2 -26 -12 -4 -7 11 -8 20 -3 20 5 0 12 -7 15 -16z m359 -34 c3 -11
2 -18 -3 -15 -4 3 -10 14 -13 25 -3 11 -2 18 3 15 4 -3 10 -14 13 -25z m-548
-10 c-3 -5 -14 -10 -23 -9 -14 0 -13 2 3 9 27 11 27 11 20 0z m-55 -15 c7 -9
8 -15 2 -15 -5 0 -12 7 -16 15 -3 8 -4 15 -2 15 2 0 9 -7 16 -15z m119 11 c-2
-2 -17 -6 -34 -10 -22 -5 -26 -4 -15 4 14 9 59 15 49 6z m49 -37 c-3 -8 -7 -3
-11 10 -4 17 -3 21 5 13 5 -5 8 -16 6 -23z m222 11 c-10 -18 -7 -20 22 -21 18
-1 39 -1 47 0 7 2 11 -1 8 -6 -3 -4 6 -22 20 -38 14 -17 22 -24 19 -18 -5 9
-2 11 8 7 9 -3 13 -10 10 -15 -3 -5 13 -46 36 -91 38 -76 40 -83 24 -95 -19
-14 -34 -9 -34 13 0 8 -5 14 -11 14 -5 0 -7 6 -3 13 6 9 4 9 -8 -1 -13 -10
-18 -10 -30 2 -9 9 -20 11 -29 6 -8 -5 -19 -4 -26 2 -20 16 -16 30 5 19 10 -6
29 -7 42 -4 16 4 21 3 16 -5 -4 -8 -2 -10 8 -6 27 10 6 34 -25 27 -24 -4 -30
-1 -38 18 -5 13 -6 28 -4 33 3 4 -8 5 -24 2 -25 -6 -31 -3 -36 14 -3 11 -1 18
4 14 15 -9 10 3 -8 22 -19 19 -25 64 -9 64 5 0 6 3 3 6 -6 7 10 44 19 44 2 0
0 -9 -6 -20z m91 -8 c15 -13 19 -21 10 -26 -7 -5 -10 -2 -9 5 2 7 -13 19 -32
25 -25 9 -29 13 -14 13 12 1 32 -7 45 -17z m152 1 c-4 -11 -3 -14 5 -9 8 5 10
2 6 -9 -5 -11 -10 -13 -17 -6 -9 9 -4 41 7 41 3 0 2 -7 -1 -17z m-502 -8 c31
-16 99 -112 99 -140 0 -8 5 -15 11 -15 5 0 8 -4 5 -8 -3 -4 0 -28 6 -53 5 -24
15 -82 21 -128 7 -50 17 -86 25 -89 8 -2 10 3 6 15 -5 14 -4 15 4 3 13 -18 5
-33 -14 -26 -8 3 -14 0 -14 -7 0 -9 -2 -9 -8 0 -11 17 -59 34 -77 27 -11 -5
-13 -2 -9 9 3 9 12 13 21 10 14 -5 15 2 9 58 -9 79 -17 93 -53 94 -22 0 -29 5
-32 25 -1 14 -8 28 -15 32 -7 5 -6 8 4 8 29 1 -13 20 -44 20 -22 0 -27 -4 -22
-16 5 -12 2 -15 -10 -10 -11 4 -18 -1 -21 -14 -3 -11 -9 -18 -13 -15 -3 2 -12
-19 -19 -47 -8 -38 -8 -54 0 -65 7 -7 9 -16 5 -20 -3 -3 -6 -1 -6 5 0 18 -24
10 -32 -10 -5 -11 -18 -18 -35 -18 -21 0 -24 3 -14 9 11 7 7 10 -15 14 -23 3
-20 4 13 6 l41 1 -10 38 c-6 20 -13 44 -15 52 -7 21 -3 107 7 153 8 39 50 108
60 102 3 -2 12 0 20 6 23 14 88 11 121 -6z m79 -15 c0 -3 -6 -7 -13 -7 -7 0
-13 8 -13 18 0 13 3 15 13 7 7 -6 13 -14 13 -18z m453 -13 c3 -8 -1 -14 -8
-14 -7 0 -11 6 -8 14 3 7 6 13 8 13 2 0 5 -6 8 -13z m-972 -20 c-10 -9 -11 -8
-5 6 3 10 9 15 12 12 3 -3 0 -11 -7 -18z m252 6 c-3 -7 -6 -13 -8 -13 -2 0 -5
6 -8 13 -3 8 1 14 8 14 7 0 11 -6 8 -14z m-46 -45 c-3 -8 -6 -5 -6 6 -1 11 2
17 5 13 3 -3 4 -12 1 -19z m20 0 c-3 -8 -6 -5 -6 6 -1 11 2 17 5 13 3 -3 4
-12 1 -19z m782 -51 c8 -10 7 -14 -4 -14 -8 0 -15 6 -15 14 0 7 2 13 4 13 2 0
9 -6 15 -13z m-102 -19 c-3 -8 -6 -5 -6 6 -1 11 2 17 5 13 3 -3 4 -12 1 -19z
m-167 -9 c0 -4 -7 -6 -15 -3 -8 4 -15 10 -15 15 0 4 7 6 15 3 8 -4 15 -10 15
-15z m192 -46 c2 -17 12 -32 28 -40 20 -10 21 -13 6 -13 -10 0 -29 12 -42 28
-26 29 -28 35 -17 45 13 14 22 6 25 -20z m109 13 c5 3 9 0 9 -6 0 -19 -20 -50
-33 -50 -8 0 -8 3 2 9 9 6 12 19 8 37 -4 16 -4 23 -1 16 3 -6 10 -10 15 -6z
m-666 -8 c4 4 0 -6 -10 -21 -14 -21 -21 -25 -29 -16 -8 8 -8 13 1 16 7 2 9 12
6 21 -6 14 -4 15 9 5 8 -7 18 -9 23 -5z m50 -9 c11 -17 -1 -21 -15 -4 -8 9 -8
15 -2 15 6 0 14 -5 17 -11z m392 -56 c-3 -10 -5 -4 -5 12 0 17 2 24 5 18 2 -7
2 -21 0 -30z m26 17 c3 -11 1 -18 -4 -14 -5 3 -9 12 -9 20 0 20 7 17 13 -6z
m-67 -57 c-9 -22 -20 -7 -22 28 -2 29 -1 30 13 9 8 -11 12 -28 9 -37z m229 36
c-4 -5 -21 -8 -38 -8 -21 1 -25 3 -12 6 11 3 24 9 29 14 11 10 28 1 21 -12z
m-398 -41 c-2 -13 -4 -5 -4 17 -1 22 1 32 4 23 2 -10 2 -28 0 -40z m-212 13
c-6 -5 -21 -12 -35 -16 -24 -7 -24 -7 -5 9 21 16 56 23 40 7z m1022 3 c-3 -3
-12 -4 -19 -1 -8 3 -5 6 6 6 11 1 17 -2 13 -5z m819 -6 c6 -1 11 -7 11 -14 0
-7 -4 -11 -9 -8 -4 3 -20 12 -36 21 -26 14 -26 15 -2 8 14 -3 30 -7 36 -7z
m-1726 -52 c0 -27 -10 -14 -16 20 -3 22 -2 25 6 14 5 -8 10 -24 10 -34z m1763
13 c-9 -9 -12 -7 -10 9 1 14 5 18 11 12 7 -7 6 -14 -1 -21z m-1448 11 c4 -6
-1 -7 -11 -3 -13 5 -15 3 -9 -7 5 -9 4 -11 -4 -6 -6 4 -9 12 -6 17 8 12 22 12
30 -1z m721 -21 c3 -5 -2 -12 -11 -16 -15 -5 -34 10 -35 29 0 9 39 -2 46 -13z
m117 14 c-7 -2 -19 -2 -25 0 -7 3 -2 5 12 5 14 0 19 -2 13 -5z m110 0 c-7 -2
-19 -2 -25 0 -7 3 -2 5 12 5 14 0 19 -2 13 -5z m-1766 -9 c-3 -3 -12 -4 -19
-1 -8 3 -5 6 6 6 11 1 17 -2 13 -5z m473 2 c0 -15 -14 -35 -21 -30 -15 9 -10
34 6 34 8 0 15 -2 15 -4z m1846 -33 c15 -21 22 -33 14 -26 -8 6 -19 13 -25 15
-5 1 -9 9 -7 16 2 6 -4 12 -13 12 -9 0 -13 5 -10 10 9 14 10 14 41 -27z
m-2016 13 c0 -2 -7 -7 -16 -10 -8 -3 -12 -2 -9 4 6 10 25 14 25 6z m-460 -16
c0 -5 -2 -10 -4 -10 -3 0 -8 5 -11 10 -3 6 -1 10 4 10 6 0 11 -4 11 -10z
m2090 -5 c0 -2 -7 -5 -15 -9 -9 -3 -15 0 -15 9 0 9 6 12 15 9 8 -4 15 -7 15
-9z m-2115 -16 c-4 -5 -12 -9 -18 -8 -9 0 -8 2 1 6 6 2 9 10 6 15 -4 7 -2 8 5
4 6 -4 9 -12 6 -17z m2181 -2 c4 -4 2 -7 -5 -7 -7 0 -9 -4 -6 -10 3 -5 0 -7
-9 -4 -23 9 -27 31 -5 29 10 -1 22 -4 25 -8z m-1476 -27 c0 -5 -10 -10 -22
-10 -19 0 -20 2 -8 10 19 13 30 13 30 0z m27 -22 c2 -17 0 -19 -7 -8 -5 8 -6
18 -4 22 8 12 10 10 11 -14z m1533 18 c0 -2 -7 -6 -15 -10 -8 -3 -15 -1 -15 4
0 6 7 10 15 10 8 0 15 -2 15 -4z m-2330 -20 c0 -3 -4 -8 -10 -11 -5 -3 -10 -1
-10 4 0 6 5 11 10 11 6 0 10 -2 10 -4z m2645 -16 c3 -5 2 -10 -4 -10 -5 0 -13
5 -16 10 -3 6 -2 10 4 10 5 0 13 -4 16 -10z m-2676 -13 c8 -10 7 -14 -4 -14
-8 0 -15 6 -15 14 0 7 2 13 4 13 2 0 9 -6 15 -13z m898 7 c-3 -3 -12 -4 -19
-1 -8 3 -5 6 6 6 11 1 17 -2 13 -5z m-925 -70 c2 -7 -1 -14 -6 -15 -5 -2 -10
6 -11 19 -2 22 10 19 17 -4z m-31 -61 c-12 -20 -14 -14 -5 12 4 9 9 14 11 11
3 -2 0 -13 -6 -23z m-14 -45 c-3 -8 -6 -5 -6 6 -1 11 2 17 5 13 3 -3 4 -12 1
-19z m480 -40 c-3 -8 -6 -5 -6 6 -1 11 2 17 5 13 3 -3 4 -12 1 -19z m448 -38
c-27 -12 -43 -12 -25 0 8 5 22 9 30 9 10 0 8 -3 -5 -9z m170 -20 c13 -5 14 -9
5 -9 -8 0 -24 4 -35 9 -13 5 -14 9 -5 9 8 0 24 -4 35 -9z m68 -17 c-7 -2 -19
-2 -25 0 -7 3 -2 5 12 5 14 0 19 -2 13 -5z m84 -9 c-3 -3 -12 -4 -19 -1 -8 3
-5 6 6 6 11 1 17 -2 13 -5z m73 -13 c0 -15 -43 -20 -80 -11 -35 10 -35 10 7 6
24 -2 46 0 49 5 7 12 24 12 24 0z m143 -28 c-7 -2 -19 -2 -25 0 -7 3 -2 5 12
5 14 0 19 -2 13 -5z m1142 -30 c-69 -18 -81 -17 -64 3 7 9 22 14 36 11 13 -2
23 -1 23 3 0 4 12 5 28 2 24 -5 22 -7 -23 -19z m-905 -3 c-8 -5 -19 -10 -25
-10 -5 0 -3 5 5 10 8 5 20 10 25 10 6 0 3 -5 -5 -10z m337 -6 c-3 -3 -12 -4
-19 -1 -8 3 -5 6 6 6 11 1 17 -2 13 -5z m335 -36 c-7 -7 -12 -8 -12 -2 0 14
12 26 19 19 2 -3 -1 -11 -7 -17z m-35 -58 c1 -11 -3 -23 -9 -26 -7 -5 -8 -2
-3 6 6 10 4 12 -10 6 -18 -7 -18 -6 0 14 22 24 20 24 22 0z m-2287 0 c0 -5 -2
-10 -4 -10 -3 0 -8 5 -11 10 -3 6 -1 10 4 10 6 0 11 -4 11 -10z m2250 -34 c0
-2 -7 -7 -16 -10 -8 -3 -12 -2 -9 4 6 10 25 14 25 6z m-55 -16 c-28 -12 -45
-12 -45 0 0 6 15 10 33 9 27 0 29 -2 12 -9z m-145 -10 c-8 -5 -22 -9 -30 -9
-10 0 -8 3 5 9 27 12 43 12 25 0z m-2017 -37 c-3 -7 -6 -13 -8 -13 -2 0 -5 6
-8 13 -3 8 1 14 8 14 7 0 11 -6 8 -14z m1414 -29 c-3 -3 -12 -4 -19 -1 -8 3
-5 6 6 6 11 1 17 -2 13 -5z m-1385 -13 c7 10 8 5 3 -14 -4 -21 -3 -27 6 -21 8
5 9 3 4 -6 -6 -10 -11 -9 -22 5 -7 11 -13 26 -12 34 0 12 2 13 6 2 5 -11 7
-11 15 0z m1163 -61 c3 -6 -1 -7 -9 -4 -18 7 -21 14 -7 14 6 0 13 -4 16 -10z
m-35 -10 c0 -5 -8 -10 -17 -10 -15 0 -16 2 -3 10 19 12 20 12 20 0z m-1067
-26 c-4 -12 -8 -13 -14 -3 -9 15 -2 32 11 24 5 -3 6 -13 3 -21z m1267 -2 c0
-15 -2 -15 -10 -2 -13 20 -13 33 0 25 6 -3 10 -14 10 -23z m-1230 -22 c10 -19
10 -20 -9 -8 -22 13 -28 28 -11 28 5 0 14 -9 20 -20z m894 -19 c4 -5 -3 -7
-14 -4 -23 6 -26 13 -6 13 8 0 17 -4 20 -9z m-794 -51 c0 -5 -2 -10 -4 -10 -3
0 -8 5 -11 10 -3 6 -1 10 4 10 6 0 11 -4 11 -10z m603 -7 c-3 -7 -9 -10 -14
-7 -14 8 -11 21 5 21 8 0 12 -6 9 -14z m-173 -13 c-8 -5 -19 -10 -25 -10 -5 0
-3 5 5 10 8 5 20 10 25 10 6 0 3 -5 -5 -10z m43 -17 c-7 -2 -19 -2 -25 0 -7 3
-2 5 12 5 14 0 19 -2 13 -5z m-136 -19 c-3 -3 -12 -4 -19 -1 -8 3 -5 6 6 6 11
1 17 -2 13 -5z m882 -94 c-6 -5 -18 -6 -26 -3 -19 8 -16 11 13 11 17 0 22 -3
13 -8z m-84 -40 c19 -8 19 -9 -2 -9 -12 -1 -25 4 -28 9 -7 12 2 12 30 0z m-30
-28 c-3 -3 -11 0 -18 7 -9 10 -8 11 6 5 10 -3 15 -9 12 -12z m-35 4 c0 -11
-19 -15 -25 -6 -3 5 1 10 9 10 9 0 16 -2 16 -4z m210 -87 c0 -3 -7 -6 -15 -6
-10 0 -15 10 -15 29 0 16 -4 27 -9 24 -5 -4 -7 3 -4 15 5 18 8 16 24 -17 10
-22 18 -42 19 -45z m-263 55 c-3 -3 -12 -4 -19 -1 -8 3 -5 6 6 6 11 1 17 -2
13 -5z m-991 -140 c-11 -29 -30 0 -21 33 7 27 7 28 17 6 6 -12 8 -30 4 -39z
m1251 4 c-3 -7 -5 -2 -5 12 0 14 2 19 5 13 2 -7 2 -19 0 -25z m-590 0 c-3 -8
-6 -5 -6 6 -1 11 2 17 5 13 3 -3 4 -12 1 -19z m-704 -141 c-3 -5 -11 -6 -19
-3 -8 3 -14 -1 -14 -10 0 -8 -5 -12 -10 -9 -16 10 4 31 29 31 11 0 17 -4 14
-9z m724 -84 c-3 -10 -5 -2 -5 17 0 19 2 27 5 18 2 -10 2 -26 0 -35z m-878
-49 c-7 -13 -17 -24 -22 -24 -6 0 -2 9 8 20 12 13 14 20 5 20 -10 0 -10 3 1
16 19 23 25 -1 8 -32z m41 32 c0 -3 -4 -8 -10 -11 -5 -3 -10 -1 -10 4 0 6 5
11 10 11 6 0 10 -2 10 -4z m837 -28 c-3 -8 -6 -5 -6 6 -1 11 2 17 5 13 3 -3 4
-12 1 -19z m653 -45 c-1 -13 -40 -59 -40 -48 0 10 31 55 38 55 1 0 2 -3 2 -7z
m7 -45 c-3 -8 -6 -5 -6 6 -1 11 2 17 5 13 3 -3 4 -12 1 -19z m-47 -43 c-7 -8
-22 -14 -34 -14 -20 2 -20 2 2 6 12 2 22 9 22 14 0 5 5 9 11 9 8 0 8 -5 -1
-15z m-105 -15 c-3 -5 -12 -10 -18 -10 -7 0 -6 4 3 10 19 12 23 12 15 0z m160
-18 c-3 -3 -11 0 -18 7 -9 10 -8 11 6 5 10 -3 15 -9 12 -12z m-8 -84 c-3 -7
-5 -2 -5 12 0 14 2 19 5 13 2 -7 2 -19 0 -25z m-1732 -37 c-3 -6 -11 -11 -16
-11 -5 0 -4 6 3 14 14 16 24 13 13 -3z m1752 -3 c-3 -8 -6 -5 -6 6 -1 11 2 17
5 13 3 -3 4 -12 1 -19z m-714 -65 c-10 -67 -32 -25 -24 46 4 34 4 34 16 10 7
-13 10 -39 8 -56z m-1109 -25 c-5 -8 -2 -9 11 -4 15 5 16 4 5 -9 -9 -11 -16
-13 -23 -6 -7 7 -16 7 -27 -2 -9 -6 -5 -2 8 11 25 24 37 29 26 10z m2 -76 c6
-21 16 -36 23 -34 7 1 10 -2 6 -8 -4 -6 7 -23 24 -38 l31 -27 -40 -46 c-28
-33 -38 -53 -35 -69 5 -25 -12 -53 -26 -44 -5 3 -9 11 -9 17 0 8 3 8 9 -2 6
-9 11 -10 15 -2 4 6 2 11 -5 11 -8 0 -8 5 2 18 7 9 -6 -1 -29 -23 -23 -22 -41
-43 -42 -47 0 -3 -20 -28 -45 -55 -25 -26 -45 -51 -45 -55 0 -13 20 -19 20 -6
1 12 34 58 42 58 16 0 -3 -42 -33 -73 -29 -31 -38 -35 -43 -22 -3 9 -2 13 4
10 6 -3 10 -1 10 4 0 6 -8 11 -18 11 -14 0 -18 8 -18 34 0 19 -12 57 -27 86
-25 48 -26 54 -12 70 22 24 18 36 -5 15 -11 -10 -34 -19 -52 -20 l-33 -2 30
13 c17 7 36 13 43 14 6 0 12 5 12 11 0 6 6 9 14 6 8 -3 39 21 75 59 38 38 56
64 47 64 -9 0 -16 5 -16 11 0 5 -5 7 -12 3 -7 -4 -8 -3 -4 5 4 6 11 9 16 6 4
-3 11 1 13 7 3 8 6 6 6 -4 1 -28 15 -22 56 23 24 26 34 46 30 57 -3 9 -2 13 2
8 4 -4 13 -24 19 -44z m-46 8 c0 -4 -8 -14 -18 -24 -18 -15 -19 -15 -16 11 1
16 2 29 3 30 2 6 31 -10 31 -17z m71 -23 c-10 -9 -11 -8 -5 6 3 10 9 15 12 12
3 -3 0 -11 -7 -18z m1022 -38 c-6 -6 -7 3 -4 23 4 28 6 29 9 9 2 -13 0 -27 -5
-32z m774 14 c-3 -10 -5 -4 -5 12 0 17 2 24 5 18 2 -7 2 -21 0 -30z m-1752 -7
c12 -12 12 -15 1 -19 -16 -7 -26 1 -26 20 0 17 8 17 25 -1z m1005 1 c0 -7 -7
-22 -15 -33 -13 -17 -13 -16 -3 14 13 34 18 40 18 19z m722 -39 c-6 -6 -7 0
-4 19 5 21 7 23 10 9 2 -10 0 -22 -6 -28z m-1682 1 c0 -6 -4 -7 -10 -4 -5 3
-10 11 -10 16 0 6 5 7 10 4 6 -3 10 -11 10 -16z m157 -11 c-3 -8 -6 -5 -6 6
-1 11 2 17 5 13 3 -3 4 -12 1 -19z m-423 -12 c-7 -11 -20 -21 -28 -22 -12 -2
-13 3 -4 21 6 13 19 23 28 22 16 -1 17 -3 4 -21z m1943 -53 c-3 -10 -5 -4 -5
12 0 17 2 24 5 18 2 -7 2 -21 0 -30z m10 -45 c-3 -8 -6 -5 -6 6 -1 11 2 17 5
13 3 -3 4 -12 1 -19z m-2527 1 c12 -8 10 -9 -8 -4 -13 4 -21 2 -20 -3 2 -6 0
-10 -4 -11 -26 -3 -29 1 -12 14 23 17 25 18 44 4z m85 -4 c41 -15 60 -11 35 6
-13 9 -13 10 0 6 8 -2 14 -12 13 -22 0 -9 11 -38 26 -64 24 -40 28 -58 30
-143 2 -71 -2 -113 -15 -155 -10 -32 -18 -60 -19 -63 -5 -21 -76 -115 -141
-187 -44 -47 -89 -100 -102 -117 -12 -17 -29 -34 -37 -39 -9 -4 -12 -13 -9
-19 4 -6 3 -8 -3 -5 -15 9 -50 -35 -47 -60 0 -12 -3 -20 -8 -17 -4 3 -6 11 -2
17 3 7 -11 -7 -33 -29 -76 -83 -133 -148 -136 -157 -2 -6 -12 5 -23 24 -13 21
-18 42 -14 54 6 17 7 17 13 1 4 -10 7 -26 7 -37 0 -10 5 -19 10 -19 13 0 13
11 -1 65 -6 25 -15 42 -20 39 -5 -3 -6 2 -3 10 6 16 -24 134 -37 142 -4 2 -5
12 -2 22 6 15 5 15 -11 3 -15 -13 -19 -13 -26 -1 -5 8 -6 18 -3 24 4 5 10 1
14 -10 4 -10 8 -14 8 -7 1 6 4 19 8 29 4 12 3 15 -5 10 -8 -5 -10 -2 -6 9 4 8
1 21 -5 29 -6 7 -9 15 -6 18 3 2 -4 29 -15 59 -11 30 -18 44 -16 32 5 -27 -5
-36 -20 -19 -9 10 -7 19 7 37 15 21 19 22 24 7 6 -15 8 -15 25 0 23 19 17 32
-10 27 -12 -2 -18 0 -15 6 4 5 11 6 17 3 7 -5 9 -2 6 8 -4 8 -1 15 7 15 7 0
11 -6 8 -14 -13 -32 19 -7 73 58 33 40 70 82 83 94 23 22 21 52 -2 38 -7 -3
-3 3 7 15 11 12 24 22 30 22 7 0 7 -3 1 -8 -9 -6 -19 -32 -12 -32 1 0 27 27
56 61 40 45 51 63 42 72 -6 6 -11 15 -11 21 0 5 3 6 7 3 3 -4 16 1 27 10 20
17 20 17 7 1 -20 -26 -6 -22 26 8 22 20 24 27 13 34 -16 10 -30 4 -30 -11 0
-6 5 -7 12 -3 7 4 8 3 4 -4 -4 -6 -13 -9 -22 -5 -13 5 -13 8 2 24 12 13 21 16
34 9 13 -7 24 -2 45 20 16 17 44 35 62 42 22 8 29 15 20 20 -20 13 13 9 58 -7z
m215 -5 c0 -13 -30 -13 -50 0 -11 7 -7 10 18 10 17 0 32 -4 32 -10z m-87 -7
c-7 -2 -19 -2 -25 0 -7 3 -2 5 12 5 14 0 19 -2 13 -5z m2293 -56 c1 -17 -1
-26 -3 -19 -4 9 -9 10 -18 2 -9 -8 -14 -6 -19 5 -3 9 -11 13 -17 9 -8 -5 -9
-3 -5 5 5 7 14 10 22 7 8 -3 17 1 20 9 10 25 19 17 20 -18z m-2321 4 c3 -5 1
-12 -5 -16 -5 -3 -10 1 -10 9 0 18 6 21 15 7z m55 -11 c0 -10 -29 -34 -35 -28
-10 10 8 46 21 41 8 -3 14 -9 14 -13z m60 -4 c0 -9 -7 -12 -20 -9 -11 3 -17 9
-14 14 8 14 34 10 34 -5z m190 -31 c14 -18 13 -19 -1 -8 -9 7 -19 10 -23 6 -4
-4 -4 1 0 10 3 10 7 17 8 15 1 -2 8 -12 16 -23z m1915 5 c-3 -5 -12 -10 -18
-10 -7 0 -6 4 3 10 19 12 23 12 15 0z m-2192 -52 c-9 -20 -10 -20 -10 10 0 22
4 29 10 23 7 -7 7 -18 0 -33z m62 -75 c-3 -24 -11 -43 -17 -43 -11 0 -3 118
10 149 10 23 15 -55 7 -106z m226 70 c-8 -15 -10 -15 -11 -2 0 17 10 32 18 25
2 -3 -1 -13 -7 -23z m1130 -27 c-7 -8 -9 -21 -5 -28 6 -10 3 -9 -9 1 -21 17
-22 31 -1 31 11 0 14 5 9 18 -5 13 -4 14 6 5 10 -10 9 -15 0 -27z m-1841 -16
c0 -5 -2 -10 -4 -10 -3 0 -8 5 -11 10 -3 6 -1 10 4 10 6 0 11 -4 11 -10z
m2693 -60 c3 -41 2 -54 -3 -35 -8 31 -13 112 -6 104 2 -2 6 -33 9 -69z m-2276
23 c-3 -10 -5 -4 -5 12 0 17 2 24 5 18 2 -7 2 -21 0 -30z m300 11 c-3 -4 -2
-15 3 -24 7 -13 6 -20 -6 -24 -20 -8 -30 20 -14 39 7 8 15 15 18 15 3 0 2 -3
-1 -6z m259 -50 c1 -9 0 -13 -4 -10 -3 4 -7 14 -8 22 -1 9 0 13 4 10 3 -4 7
-14 8 -22z m809 16 c3 -5 1 -10 -4 -10 -6 0 -11 5 -11 10 0 6 2 10 4 10 3 0 8
-4 11 -10z m-1340 -118 c-5 -5 -22 35 -25 59 -7 46 4 46 16 0 8 -30 12 -56 9
-59z m65 98 c0 -5 -4 -10 -10 -10 -5 0 -10 5 -10 10 0 6 5 10 10 10 6 0 10 -4
10 -10z m180 0 c0 -5 -4 -10 -10 -10 -5 0 -10 5 -10 10 0 6 5 10 10 10 6 0 10
-4 10 -10z m1907 -29 c-6 -17 -15 -29 -20 -28 -5 1 -12 -4 -15 -12 -3 -9 0
-11 9 -6 8 5 3 -4 -10 -18 -13 -15 -27 -24 -31 -22 -11 7 -41 -30 -33 -39 4
-4 -1 -4 -11 0 -15 6 -17 4 -11 -6 5 -9 4 -11 -4 -6 -7 5 6 26 41 62 29 29 53
59 53 66 1 7 6 12 13 11 7 -2 12 6 12 18 0 11 4 18 9 15 5 -4 5 -18 -2 -35z
m-890 -61 c-7 -13 -14 -15 -22 -7 -9 8 -8 15 4 29 19 22 34 3 18 -22z m-1002
10 c14 -16 16 -24 7 -42 -8 -18 -11 -19 -11 -5 -1 9 -6 17 -12 17 -5 0 -7 5
-4 10 3 6 1 10 -4 10 -6 0 -11 7 -11 15 0 21 13 19 35 -5z m-874 -33 c-10 -9
-11 -8 -5 6 3 10 9 15 12 12 3 -3 0 -11 -7 -18z m579 -12 c0 -5 -5 -3 -10 5
-5 8 -10 20 -10 25 0 6 5 3 10 -5 5 -8 10 -19 10 -25z m-598 -27 c-6 -6 -19
-13 -28 -14 -9 -1 -13 1 -9 4 4 4 12 7 18 7 5 0 12 6 15 14 3 9 0 11 -8 6 -9
-6 -11 -4 -5 4 5 9 10 10 18 2 8 -8 8 -14 -1 -23z m582 17 c3 -8 1 -15 -4 -15
-6 0 -10 7 -10 15 0 8 2 15 4 15 2 0 6 -7 10 -15z m1192 -72 c-7 -7 -26 7 -26
19 0 6 6 6 15 -2 9 -7 13 -15 11 -17z m884 23 c0 -2 -8 -10 -18 -19 -16 -15
-18 -15 -19 1 -1 11 6 18 18 19 10 1 19 0 19 -1z m-1747 -21 c-3 -9 -8 -14
-10 -11 -3 3 -2 9 2 15 9 16 15 13 8 -4z m811 -30 c-14 -14 -30 -23 -35 -20
-14 10 23 41 53 44 4 1 -4 -10 -18 -24z m-906 -20 c-3 -3 -9 2 -12 12 -6 14
-5 15 5 6 7 -7 10 -15 7 -18z m862 -15 c0 -5 -2 -10 -4 -10 -3 0 -8 5 -11 10
-3 6 -1 10 4 10 6 0 11 -4 11 -10z m-83 -55 c-15 -7 -24 -8 -29 -1 -4 5 3 15
15 21 15 7 24 8 29 1 4 -5 -3 -15 -15 -21z m-1060 3 c-3 -8 -6 -5 -6 6 -1 11
2 17 5 13 3 -3 4 -12 1 -19z m199 -6 c1 -7 0 -8 -3 -2 -3 8 -9 7 -19 -1 -11
-9 -14 -8 -14 6 0 19 32 17 36 -3z m-285 -36 c-11 -28 -12 -29 -35 -20 -9 3
-13 11 -10 16 4 6 10 5 15 -3 5 -9 11 -6 20 14 15 34 23 29 10 -7z m310 -5
c-20 -20 -21 -20 -21 -2 0 11 8 21 18 23 25 6 26 2 3 -21z m765 7 c5 -8 2 -9
-9 -5 -11 4 -17 1 -17 -8 0 -9 -6 -12 -15 -9 -8 4 -15 1 -15 -7 0 -7 -3 -9 -7
-5 -4 4 3 16 17 26 29 23 36 24 46 8z m-1640 -20 c5 -7 3 -8 -5 -4 -8 5 -11 2
-9 -9 2 -10 -8 -24 -22 -33 -17 -11 -21 -11 -12 -2 6 8 12 22 12 31 0 10 6 20
13 22 6 3 13 6 14 6 1 1 5 -4 9 -11z m491 -28 c1 -11 -2 -18 -8 -15 -5 4 -9 1
-9 -5 0 -6 -4 -9 -10 -5 -6 4 16 45 25 45 0 0 1 -9 2 -20z m345 -11 c-9 -10
-17 -19 -17 -19 0 0 -1 8 -2 18 -1 11 6 18 17 19 17 2 18 0 2 -18z m1520 -4
c-25 -11 -39 -12 -50 -4 -15 8 -14 9 3 5 11 -3 27 -1 35 4 8 5 22 10 30 9 8 0
0 -6 -18 -14z m-877 -5 c4 -6 -1 -7 -11 -3 -10 4 -15 2 -11 -3 4 -7 -6 -8 -26
-5 l-32 5 30 7 c44 10 43 10 50 -1z m-1020 -31 c-4 -5 -14 -8 -23 -8 -15 1
-15 2 1 6 9 2 14 9 11 15 -4 7 -2 8 5 4 6 -4 9 -12 6 -17z m-485 -29 c0 -11
-2 -20 -4 -20 -2 0 -6 9 -9 20 -3 11 -1 20 4 20 5 0 9 -9 9 -20z m717 14 c-3
-3 -12 -4 -19 -1 -8 3 -5 6 6 6 11 1 17 -2 13 -5z m1458 -4 c-3 -5 -11 -10
-16 -10 -6 0 -7 5 -4 10 3 6 11 10 16 10 6 0 7 -4 4 -10z m75 0 c0 -5 -4 -10
-10 -10 -16 0 -13 -149 4 -165 7 -8 16 -11 20 -8 3 4 6 -1 6 -10 0 -18 -20
-19 -32 -2 -5 6 -8 4 -8 -4 0 -21 42 -53 62 -48 10 3 16 2 13 -3 -4 -7 41 -44
55 -45 3 0 20 -14 38 -30 l34 -30 -319 -5 c-250 -4 -324 -2 -346 8 -39 18 -67
82 -67 156 0 53 -2 58 -20 53 -11 -3 -20 -1 -20 4 0 5 8 9 18 9 11 0 18 7 18
20 0 11 -6 20 -13 20 -7 0 -13 4 -13 10 0 5 7 7 15 4 8 -4 15 -1 15 5 0 6 5
11 11 11 8 0 8 -4 0 -14 -18 -21 -3 -24 74 -16 39 4 58 8 43 9 -16 0 -28 5
-28 10 0 5 15 5 38 0 39 -9 171 -1 154 10 -6 3 15 6 45 7 42 0 59 5 69 19 8
10 14 13 14 6 0 -18 72 -3 90 20 16 20 40 25 40 9z m-2217 -25 c4 -8 2 -17 -3
-20 -6 -4 -10 3 -10 14 0 25 6 27 13 6z m1257 10 c0 -8 -52 -26 -58 -20 -3 2
6 9 19 14 28 11 39 13 39 6z m-432 -26 l27 -1 -25 -7 c-24 -7 -40 3 -39 24 0
6 3 4 6 -2 2 -7 17 -13 31 -14z m1209 5 c-3 -3 -12 -4 -19 -1 -8 3 -5 6 6 6
11 1 17 -2 13 -5z m1009 -8 c3 -8 12 -12 19 -10 7 3 16 1 19 -4 9 -15 -43 -5
-60 12 -14 15 -14 16 1 16 8 0 18 -6 21 -14z m-1969 -2 c-3 -3 -12 -4 -19 -1
-8 3 -5 6 6 6 11 1 17 -2 13 -5z m780 0 c-3 -3 -12 -4 -19 -1 -8 3 -5 6 6 6
11 1 17 -2 13 -5z m380 -16 c-3 -8 -6 -5 -6 6 -1 11 2 17 5 13 3 -3 4 -12 1
-19z m-1267 3 c0 -4 -11 -6 -25 -3 -14 2 -25 6 -25 8 0 2 11 4 25 4 14 0 25
-4 25 -9z m160 -1 c0 -5 -12 -10 -27 -10 -22 0 -25 2 -13 10 20 13 40 13 40 0z
m73 3 c-7 -2 -19 -2 -25 0 -7 3 -2 5 12 5 14 0 19 -2 13 -5z m-807 -48 c4 -8
3 -23 0 -32 -6 -14 -8 -14 -22 5 -15 22 -12 42 7 42 5 0 12 -7 15 -15z m-96
-56 c-6 -11 -15 -17 -21 -14 -14 10 -11 25 7 25 9 0 12 5 8 12 -4 7 -3 8 4 4
9 -5 9 -13 2 -27z m2230 21 c0 -5 -5 -10 -11 -10 -5 0 -7 5 -4 10 3 6 8 10 11
10 2 0 4 -4 4 -10z m-2020 -17 c0 -5 -5 -15 -10 -23 -8 -12 -10 -11 -10 8 0
12 5 22 10 22 6 0 10 -3 10 -7z m110 1 c0 -3 -5 -13 -12 -23 -11 -18 -13 -18
-25 -3 -18 24 -16 30 12 30 14 0 25 -2 25 -4z m1935 -15 c11 -17 -1 -21 -15
-4 -8 9 -8 15 -2 15 6 0 14 -5 17 -11z m42 -15 c-3 -3 -12 -4 -19 -1 -8 3 -5
6 6 6 11 1 17 -2 13 -5z m-2349 -28 c0 -17 -5 -23 -14 -19 -17 6 -18 15 -2 31
16 16 16 16 16 -12z m82 -22 c0 -8 -5 -12 -10 -9 -6 4 -8 11 -5 16 9 14 15 11
15 -7z m225 6 c3 -5 -2 -19 -13 -30 l-19 -20 3 22 c1 13 3 26 3 31 1 10 19 9
26 -3z m1765 -14 c0 -2 -7 -7 -16 -10 -8 -3 -12 -2 -9 4 6 10 25 14 25 6z
m-1814 -31 c-2 -14 -9 -31 -16 -38 -10 -10 -11 -9 -4 3 5 8 9 20 10 25 0 6 2
16 2 23 1 6 4 12 6 12 3 0 3 -11 2 -25z m1849 5 c-7 -11 20 -31 36 -28 8 2 14
-7 15 -19 1 -12 -2 -20 -7 -17 -4 2 -6 11 -2 19 3 10 1 13 -9 10 -8 -3 -21 1
-28 10 -7 8 -19 15 -27 15 -13 0 -13 3 -3 15 12 15 35 11 25 -5z m-2160 0 c-3
-5 -10 -10 -16 -10 -5 0 -9 5 -9 10 0 6 7 10 16 10 8 0 12 -4 9 -10z m105 6
c0 -3 -4 -8 -10 -11 -5 -3 -10 -1 -10 4 0 6 5 11 10 11 6 0 10 -2 10 -4z
m-252 -41 c-3 -3 -9 2 -12 12 -6 14 -5 15 5 6 7 -7 10 -15 7 -18z m222 6 c0
-5 -9 -11 -21 -14 -16 -4 -18 -3 -8 9 13 16 29 19 29 5z m1414 -25 c-3 -7 10
-20 31 -31 19 -11 35 -26 34 -35 0 -10 -2 -11 -6 -2 -2 6 -10 12 -16 12 -23 0
-70 49 -63 65 3 9 10 14 15 10 6 -3 8 -11 5 -19z m-1581 7 c-7 -2 -13 -18 -13
-34 0 -16 -5 -29 -11 -29 -6 0 -8 7 -5 16 3 9 6 24 6 35 0 12 7 19 18 18 10 0
12 -3 5 -6z m97 -8 c-7 -9 -15 -13 -19 -10 -3 3 1 10 9 15 21 14 24 12 10 -5z
m-136 -35 c-6 -6 -10 -3 -10 10 0 13 4 16 10 10 7 -7 7 -13 0 -20z m161 20 c3
-5 1 -10 -4 -10 -6 0 -11 5 -11 10 0 6 2 10 4 10 3 0 8 -4 11 -10z m-49 -19
c-4 -5 -1 -11 6 -13 20 -7 -1 -26 -22 -21 -22 6 -22 6 -14 27 3 9 13 16 21 16
8 0 12 -4 9 -9z m2244 -11 c0 -5 -5 -10 -11 -10 -5 0 -7 5 -4 10 3 6 8 10 11
10 2 0 4 -4 4 -10z"/>
<path d="M7568 11888 c8 -8 18 -8 34 -1 21 9 20 10 -11 11 -25 0 -31 -2 -23
-10z"/>
<path d="M7945 11790 c-3 -5 -1 -10 4 -10 6 0 11 5 11 10 0 6 -2 10 -4 10 -3
0 -8 -4 -11 -10z"/>
<path d="M8330 11683 c-16 -21 -20 -37 -16 -61 3 -19 1 -30 -5 -27 -13 9 -11
-18 4 -39 23 -32 47 -10 47 45 0 67 20 77 85 43 38 -21 49 -23 56 -12 5 7 9
16 9 20 0 10 -51 44 -79 53 -21 6 -23 5 -18 -14 4 -18 3 -19 -15 -10 -24 13
-52 4 -45 -15 6 -16 -16 -40 -26 -29 -11 11 -8 25 4 17 7 -4 10 -1 7 7 -3 8 7
22 21 31 19 13 21 18 9 18 -9 0 -26 -12 -38 -27z m164 -28 c3 -8 -2 -12 -12
-10 -9 2 -20 4 -24 4 -5 1 -8 7 -8 15 0 17 36 10 44 -9z"/>
<path d="M8896 11617 c3 -10 9 -15 12 -12 3 3 0 11 -7 18 -10 9 -11 8 -5 -6z"/>
<path d="M6868 11453 c6 -2 18 -2 25 0 6 3 1 5 -13 5 -14 0 -19 -2 -12 -5z"/>
<path d="M5140 9430 c0 -5 5 -10 11 -10 5 0 7 5 4 10 -3 6 -8 10 -11 10 -2 0
-4 -4 -4 -10z"/>
<path d="M8545 11802 c-2 -3 -2 -8 1 -13 5 -9 34 -1 34 10 0 8 -27 10 -35 3z"/>
<path d="M9890 10440 c0 -465 1 -500 18 -509 16 -10 15 -10 -3 -11 -11 0 -176
-1 -368 -3 l-347 -2 0 138 0 137 250 0 250 0 0 360 0 360 -381 0 -380 0 3
-112 3 -113 253 -3 252 -2 0 -124 c0 -69 -2 -130 -5 -138 -4 -10 -53 -12 -250
-10 l-244 3 -1 -361 0 -360 475 0 475 0 0 -30 0 -30 125 0 125 0 0 655 -1 655
-124 0 -125 0 0 -500z m-263 -32 c-1 -79 -3 -15 -3 142 0 157 2 221 3 143 2
-79 2 -207 0 -285z m-217 332 c0 -5 -5 -10 -11 -10 -5 0 -7 5 -4 10 3 6 8 10
11 10 2 0 4 -4 4 -10z m-247 -27 c-24 -2 -62 -2 -85 0 -24 2 -5 4 42 4 47 0
66 -2 43 -4z m140 -330 c-62 -2 -165 -2 -230 0 -65 1 -14 3 112 3 127 0 180
-2 118 -3z m-40 -60 c-13 -2 -33 -2 -45 0 -13 2 -3 4 22 4 25 0 35 -2 23 -4z
m-98 -113 c3 -5 2 -10 -4 -10 -5 0 -16 -3 -25 -6 -11 -4 -16 -1 -16 10 0 18
35 22 45 6z m-18 -72 c-3 -8 -6 -5 -6 6 -1 11 2 17 5 13 3 -3 4 -12 1 -19z m0
-150 c-2 -24 -4 -5 -4 42 0 47 2 66 4 43 2 -24 2 -62 0 -85z m-8 -65 c1 16 2
16 19 0 17 -17 17 -18 0 -25 -10 -4 -18 -13 -18 -20 0 -9 -3 -9 -10 2 -5 8 -9
26 -9 40 0 23 1 23 9 5 7 -17 9 -17 9 -2z m778 -19 c-3 -3 -12 -4 -19 -1 -8 3
-5 6 6 6 11 1 17 -2 13 -5z m-99 -20 c-9 -9 -21 -13 -27 -10 -20 13 -11 26 16
26 25 0 26 -1 11 -16z m97 -54 c-3 -5 -17 -10 -30 -10 -13 0 -27 5 -30 10 -4
6 8 10 30 10 22 0 34 -4 30 -10z m-728 -6 c-3 -3 -12 -4 -19 -1 -8 3 -5 6 6 6
11 1 17 -2 13 -5z m593 -8 c0 -3 -4 -8 -10 -11 -5 -3 -10 -1 -10 4 0 6 5 11
10 11 6 0 10 -2 10 -4z m5 -46 c3 -5 -1 -10 -9 -10 -9 0 -16 5 -16 10 0 6 4
10 9 10 6 0 13 -4 16 -10z m75 -63 c0 -2 -17 -1 -37 1 -30 4 -34 6 -18 12 16
6 55 -3 55 -13z m60 3 c0 -5 -5 -10 -11 -10 -5 0 -7 5 -4 10 3 6 8 10 11 10 2
0 4 -4 4 -10z m-337 -7 c-101 -2 -265 -2 -365 0 -101 1 -19 2 182 2 201 0 283
-1 183 -2z"/>
<path d="M12571 10698 l0 -243 -51 -1 c-28 -1 -56 -6 -62 -12 -17 -17 -38 -15
-38 3 0 8 6 12 14 9 12 -5 15 29 16 225 l1 231 -296 0 -295 0 0 -594 c0 -327
3 -601 6 -610 5 -13 45 -15 295 -16 l289 0 0 265 0 265 60 0 60 0 0 -295 0
-295 115 0 115 0 0 655 0 655 -115 0 -115 0 1 -242z m-644 -640 c-1 -150 -2
-28 -2 272 0 300 1 422 2 273 2 -150 2 -396 0 -545z m323 656 c0 -22 -4 -33
-11 -29 -6 4 -8 13 -5 21 3 8 0 14 -6 14 -7 0 -6 5 2 15 18 21 20 19 20 -21z
m177 -86 c-2 -24 -4 -5 -4 42 0 47 2 66 4 43 2 -24 2 -62 0 -85z m-257 102 c0
-5 -2 -10 -4 -10 -3 0 -8 5 -11 10 -3 6 -1 10 4 10 6 0 11 -4 11 -10z m-53 -6
c-3 -3 -12 -4 -19 -1 -8 3 -5 6 6 6 11 1 17 -2 13 -5z m101 -426 l-3 -380 -60
-1 -60 -1 -3 381 -2 382 52 3 c29 2 59 1 66 -1 10 -2 12 -84 10 -383z m-211
335 c-3 -10 -5 -4 -5 12 0 17 2 24 5 18 2 -7 2 -21 0 -30z m310 5 c-3 -7 -5
-2 -5 12 0 14 2 19 5 13 2 -7 2 -19 0 -25z m-237 -28 c0 -11 -4 -20 -10 -20
-5 0 -10 9 -10 20 0 11 5 20 10 20 6 0 10 -9 10 -20z m175 -10 c3 -5 1 -10 -4
-10 -6 0 -11 5 -11 10 0 6 2 10 4 10 3 0 8 -4 11 -10z m178 -70 c5 -40 4 -42
-7 -22 -6 12 -15 19 -19 16 -13 -13 -7 27 6 40 15 17 13 20 20 -34z m157 -90
c0 -5 -5 -10 -11 -10 -5 0 -7 5 -4 10 3 6 8 10 11 10 2 0 4 -4 4 -10z m-220
-211 c0 -24 -4 -38 -10 -34 -5 3 -10 22 -10 41 0 19 5 34 10 34 6 0 10 -18 10
-41z m96 26 c-10 -8 -24 -11 -32 -8 -24 9 -15 18 18 20 29 1 30 0 14 -12z m52
-10 c-3 -3 -18 -8 -34 -11 -22 -3 -25 -2 -14 6 15 10 58 14 48 5z m119 -37
c-3 -7 -5 -2 -5 12 0 14 2 19 5 13 2 -7 2 -19 0 -25z m-20 -10 c-3 -8 -6 -5
-6 6 -1 11 2 17 5 13 3 -3 4 -12 1 -19z m-190 -325 c-1 -54 -3 -10 -3 97 0
107 2 151 3 98 2 -54 2 -142 0 -195z m-275 18 c-10 -6 -7 -10 12 -13 14 -3 27
0 29 6 2 6 3 4 3 -4 -2 -24 -53 -25 -66 -1 -9 18 -8 21 12 21 17 0 19 -3 10
-9z m65 -13 c-3 -8 -6 -5 -6 6 -1 11 2 17 5 13 3 -3 4 -12 1 -19z m-195 -23
c0 -5 -5 -11 -11 -13 -6 -2 -11 4 -11 13 0 9 5 15 11 13 6 -2 11 -8 11 -13z
m215 -61 c-3 -3 -12 -4 -19 -1 -8 3 -5 6 6 6 11 1 17 -2 13 -5z m-337 -34 c0
-19 -5 -30 -14 -30 -10 0 -14 10 -14 30 1 18 6 30 15 30 8 0 13 -12 13 -30z
m67 24 c-3 -3 -12 -4 -19 -1 -8 3 -5 6 6 6 11 1 17 -2 13 -5z m-2 -44 c-3 -5
-10 -10 -16 -10 -5 0 -9 5 -9 10 0 6 7 10 16 10 8 0 12 -4 9 -10z m405 -10 c0
-5 -4 -10 -10 -10 -5 0 -10 5 -10 10 0 6 5 10 10 10 6 0 10 -4 10 -10z m-127
-27 c-46 -2 -120 -2 -165 0 -46 1 -9 3 82 3 91 0 128 -2 83 -3z"/>
<path d="M12892 10282 l3 -657 123 -3 122 -3 0 661 0 661 -125 -2 -125 -1 2
-656z m65 -355 c-1 -166 -2 -30 -2 303 0 333 1 469 2 303 2 -167 2 -439 0
-606z"/>
<path d="M14320 10280 l0 -660 135 0 135 0 -2 658 -3 657 -132 3 -133 3 0
-661z"/>
<path d="M10430 10586 c0 -325 1 -334 20 -339 11 -3 20 -2 20 1 0 4 254 6 565
4 l565 -2 0 334 0 335 -120 0 -120 1 -1 -47 c-1 -27 -2 -58 -2 -70 -1 -18 -4
-20 -15 -11 -10 9 -97 11 -315 9 -166 -1 -305 -5 -311 -8 -5 -3 -6 -1 -2 5 9
16 -7 15 -22 0 -13 -13 -12 -18 -15 67 l-2 50 -102 3 -102 3 -4 -88 -3 -88 -2
88 c-2 70 -5 87 -17 87 -13 0 -15 -44 -15 -334z m150 317 c0 -5 -5 -15 -10
-23 -8 -12 -10 -11 -10 8 0 12 5 22 10 22 6 0 10 -3 10 -7z m65 -63 c-3 -5 -1
-10 4 -10 6 0 11 -8 11 -17 0 -15 -2 -14 -15 3 -17 23 -19 34 -4 34 5 0 7 -4
4 -10z m711 -327 c1 -68 -7 -90 -20 -60 -5 9 -7 9 -12 -2 -5 -11 -8 -11 -15 0
-8 12 -11 11 -19 -1 -6 -10 -10 -11 -10 -2 0 6 -5 12 -11 12 -5 0 -7 -4 -4
-10 4 -6 -9 -10 -32 -10 -28 0 -34 3 -23 10 10 7 -74 10 -254 9 -147 0 -271 2
-274 6 -3 3 -5 28 -3 55 2 46 1 50 -21 50 -18 0 -20 2 -8 10 9 5 156 8 360 7
l345 -2 1 -72z"/>
<path d="M13660 10906 c-55 -14 -122 -54 -114 -67 3 -5 7 -9 10 -9 3 0 2 5 -1
10 -3 6 -2 10 4 10 18 0 21 -17 6 -30 -13 -11 -18 -10 -28 4 -11 16 -15 14
-43 -21 -16 -21 -43 -65 -60 -98 -26 -50 -30 -70 -28 -118 3 -58 -15 -157 -28
-157 -3 0 -9 10 -11 23 -2 12 -5 -55 -6 -150 0 -107 3 -174 9 -178 6 -4 8 -11
5 -16 -3 -5 -1 -36 6 -69 8 -44 15 -58 23 -50 7 7 7 16 -2 30 -18 29 -15 38 4
11 13 -18 14 -28 5 -47 -16 -35 27 -123 95 -192 30 -31 54 -52 54 -47 0 5 7 0
16 -11 8 -10 13 -14 10 -7 -4 6 -1 15 5 19 7 4 9 3 5 -4 -9 -15 24 -44 46 -39
11 3 16 1 11 -6 -4 -6 0 -8 10 -4 10 3 17 2 17 -3 0 -16 139 -11 196 7 29 9
51 20 48 25 -3 4 1 5 9 2 23 -8 120 89 156 155 39 73 56 131 71 236 15 106 7
374 -13 437 -9 25 -12 50 -9 54 4 4 1 4 -6 0 -10 -6 -13 -3 -11 10 4 29 -21
95 -33 88 -7 -4 -8 -2 -4 4 13 22 -11 47 -46 47 -28 0 -33 4 -35 27 -1 20 2
25 13 21 11 -4 12 -8 3 -19 -7 -8 -9 -17 -5 -21 3 -3 6 -1 6 5 0 7 7 12 16 12
9 0 12 -5 8 -12 -5 -7 -3 -8 6 -3 9 6 -3 23 -45 61 -92 85 -219 115 -345 80z
m308 -59 c12 -11 22 -24 22 -29 0 -13 -27 -9 -40 7 -10 12 -10 15 0 15 7 0 2
9 -11 21 -13 11 -17 17 -9 13 8 -4 25 -16 38 -27z m-312 6 c-2 -9 -15 -20 -29
-24 -34 -9 -32 11 3 28 14 7 26 12 27 13 1 0 0 -8 -1 -17z m268 -2 c4 -5 -3
-7 -14 -4 -23 6 -26 13 -6 13 8 0 17 -4 20 -9z m-404 -78 c0 -13 -2 -14 -17
-2 -11 10 -14 10 -9 2 4 -7 2 -13 -3 -13 -14 0 -14 13 1 28 14 14 28 6 28 -15z
m76 -20 c-11 -11 -17 4 -9 23 7 18 8 18 11 1 2 -10 1 -21 -2 -24z m348 12 c3
-9 0 -15 -9 -15 -8 0 -15 7 -15 15 0 8 4 15 9 15 5 0 11 -7 15 -15z m-259 -5
c3 -5 -1 -10 -9 -10 -9 0 -16 -7 -16 -15 0 -18 -16 -20 -26 -3 -4 6 1 17 11
25 22 16 32 16 40 3z m95 -20 c0 -5 -9 -10 -19 -10 -11 0 -23 5 -26 10 -4 6 5
10 19 10 14 0 26 -4 26 -10z m-47 -32 c-2 -5 -15 -8 -29 -8 -13 0 -24 3 -24 8
0 4 13 7 29 7 16 0 27 -3 24 -7z m100 -5 c-7 -2 -19 -2 -25 0 -7 3 -2 5 12 5
14 0 19 -2 13 -5z m79 -35 c-6 -6 -7 0 -4 19 5 21 7 23 10 9 2 -10 0 -22 -6
-28z m-78 3 c7 -6 15 -8 18 -5 3 3 5 -3 5 -13 -1 -10 4 -17 11 -15 8 1 11 -1
8 -6 -3 -5 4 -33 16 -63 18 -46 22 -81 25 -234 5 -172 -3 -254 -31 -330 -6
-16 -6 -17 3 -5 7 10 11 11 11 3 0 -7 -9 -17 -20 -23 -11 -6 -20 -17 -20 -24
0 -14 -68 -52 -84 -48 -4 2 -23 3 -42 4 -19 1 -31 5 -27 11 4 6 0 8 -11 4 -9
-4 -15 -3 -12 2 8 13 -16 27 -42 25 -21 -1 -22 0 -7 22 14 21 12 54 -4 54 -3
0 -7 10 -7 23 -1 12 -6 66 -13 121 -13 117 -7 267 15 351 9 33 16 74 17 90 0
17 2 24 4 17 3 -8 12 -3 26 14 38 49 117 61 161 25z m264 -6 c0 -14 -4 -25 -9
-25 -10 0 -11 12 -3 34 9 22 12 20 12 -9z m-667 -18 c-10 -9 -11 -8 -5 6 3 10
9 15 12 12 3 -3 0 -11 -7 -18z m233 11 c-3 -4 -11 -5 -19 -1 -21 7 -19 12 4
10 11 0 18 -5 15 -9z m-49 -57 c-3 -5 1 -11 7 -14 7 -2 10 -8 6 -12 -12 -13
-20 1 -24 37 -3 26 -1 30 7 15 5 -9 8 -21 4 -26z m303 -28 c2 -21 0 -34 -4
-31 -10 10 -15 68 -6 68 4 0 9 -17 10 -37z m209 -5 c-3 -8 -6 -5 -6 6 -1 11 2
17 5 13 3 -3 4 -12 1 -19z m-40 -125 c-3 -10 -5 -4 -5 12 0 17 2 24 5 18 2 -7
2 -21 0 -30z m60 -5 c-3 -8 -6 -5 -6 6 -1 11 2 17 5 13 3 -3 4 -12 1 -19z
m-710 -131 c-2 -23 -3 -1 -3 48 0 50 1 68 3 42 2 -26 2 -67 0 -90z m-57 -57
c-7 -29 -8 -23 -8 35 0 58 1 64 8 35 5 -19 5 -51 0 -70z m760 -165 c0 -14 -4
-25 -9 -25 -5 0 -11 11 -13 25 -4 17 -1 25 8 25 8 0 14 -11 14 -25z m-33 -62
c-3 -10 -5 -4 -5 12 0 17 2 24 5 18 2 -7 2 -21 0 -30z m-189 -18 c-3 -3 -9 2
-12 12 -6 14 -5 15 5 6 7 -7 10 -15 7 -18z m-305 -10 c-3 -9 -8 -14 -10 -11
-3 3 -2 9 2 15 9 16 15 13 8 -4z m503 -42 c-11 -11 -19 6 -11 24 8 17 8 17 12
0 3 -10 2 -21 -1 -24z m-695 4 c-10 -9 -11 -8 -5 6 3 10 9 15 12 12 3 -3 0
-11 -7 -18z m474 3 c-3 -5 -11 -10 -16 -10 -6 0 -7 5 -4 10 3 6 11 10 16 10 6
0 7 -4 4 -10z m195 -20 c0 -18 -3 -18 -26 -7 l-27 12 24 6 c13 4 25 7 27 8 1
1 2 -8 2 -19z m-77 3 c-7 -2 -19 -2 -25 0 -7 3 -2 5 12 5 14 0 19 -2 13 -5z
m-165 -60 c4 -14 -25 -17 -54 -6 -16 6 -16 7 2 14 25 10 46 7 52 -8z m-83 -2
c7 -12 -12 -24 -25 -16 -11 7 -4 25 10 25 5 0 11 -4 15 -9z m-264 -26 c3 2 5
-4 5 -13 1 -9 4 -26 8 -37 6 -15 4 -15 -6 3 -8 12 -18 19 -23 15 -4 -4 -6 -1
-2 8 3 9 0 23 -6 30 -10 11 -9 11 4 1 9 -6 18 -10 20 -7z m547 -8 c2 -9 -1
-17 -7 -17 -6 0 -8 8 -5 18 5 14 3 14 -10 -2 -9 -11 -14 -28 -11 -37 4 -12 -5
-26 -28 -43 -35 -27 -53 -34 -42 -16 3 6 2 10 -4 10 -5 0 -12 -5 -14 -10 -3
-6 -4 -5 -3 2 2 7 14 13 28 13 35 1 60 23 53 46 -8 23 12 62 28 56 7 -2 13
-11 15 -20z m-450 -72 c-2 -1 -12 -7 -24 -13 -15 -8 -21 -8 -21 1 0 7 11 13
24 13 14 1 23 1 21 -1z m269 -11 c-3 -3 -12 -4 -19 -1 -8 3 -5 6 6 6 11 1 17
-2 13 -5z m-92 -51 c31 -5 35 -8 20 -14 -30 -12 -47 -10 -39 2 5 8 -1 10 -17
6 -13 -3 -33 -1 -44 3 -17 7 -16 9 10 9 17 1 48 -2 70 -6z"/>
<path d="M13640 9970 c0 -5 5 -10 10 -10 6 0 10 5 10 10 0 6 -4 10 -10 10 -5
0 -10 -4 -10 -10z"/>
<path d="M13818 9883 c7 -3 16 -2 19 1 4 3 -2 6 -13 5 -11 0 -14 -3 -6 -6z"/>
<path d="M14870 10475 l0 -435 585 0 585 0 1 25 c0 14 0 50 0 80 0 30 0 69 0
85 l-1 30 -460 0 -460 0 0 55 0 55 444 0 c346 0 445 3 449 13 4 10 6 10 6 0 1
-7 6 -13 12 -13 6 0 9 6 6 14 -3 8 -3 16 1 18 4 2 5 41 2 88 l-5 85 -457 3
-458 2 0 55 0 55 461 0 c456 0 461 0 456 20 -3 11 -2 20 1 20 4 0 6 40 4 90
l-3 90 -585 0 -584 0 0 -435z m248 253 c-2 -13 -7 -23 -13 -23 -5 0 -11 10
-13 23 -2 15 2 22 13 22 11 0 15 -7 13 -22z m62 -11 c0 -5 -4 -5 -10 -2 -5 3
-10 14 -10 23 0 15 2 15 10 2 5 -8 10 -19 10 -23z m840 18 c0 -8 -4 -15 -10
-15 -5 0 -7 7 -4 15 4 8 8 15 10 15 2 0 4 -7 4 -15z m-217 -192 c-112 -2 -294
-2 -405 0 -112 1 -21 2 202 2 223 0 314 -1 203 -2z m-629 -18 c-4 -8 -10 -15
-15 -15 -5 0 -9 7 -9 15 0 8 7 15 15 15 9 0 12 -6 9 -15z m629 -42 c-112 -2
-294 -2 -405 0 -112 1 -21 2 202 2 223 0 314 -1 203 -2z m224 -55 c-3 -7 -5
-2 -5 12 0 14 2 19 5 13 2 -7 2 -19 0 -25z m-20 -10 c-3 -8 -6 -5 -6 6 -1 11
2 17 5 13 3 -3 4 -12 1 -19z m-812 -19 c4 -5 -9 -9 -29 -9 -19 0 -41 -3 -50
-6 -10 -4 -16 -1 -16 7 0 16 86 23 95 8z m805 -169 c0 -6 -140 -10 -400 -10
-260 0 -400 4 -400 10 0 7 140 10 400 10 260 0 400 -3 400 -10z m-825 -20 c-3
-5 -10 -10 -16 -10 -5 0 -9 5 -9 10 0 6 7 10 16 10 8 0 12 -4 9 -10z m853 -66
l-3 -39 -5 47 c-3 26 -1 43 3 39 5 -5 7 -26 5 -47z m-21 -76 c-3 -8 -6 -5 -6
6 -1 11 2 17 5 13 3 -3 4 -12 1 -19z"/>
<path d="M6257 10873 c-14 -13 -6 -25 13 -20 12 3 18 1 14 -5 -3 -5 -17 -7
-31 -3 -16 4 -22 2 -18 -4 3 -6 0 -8 -8 -5 -20 7 -31 -14 -17 -31 9 -11 9 -15
1 -15 -6 0 -11 5 -11 10 0 6 -5 10 -11 10 -6 0 -9 -7 -6 -14 4 -9 1 -13 -6
-10 -7 2 -38 -19 -70 -49 -69 -64 -74 -90 -23 -139 131 -126 184 -168 213
-168 26 0 64 36 57 55 -11 28 -30 14 -25 -17 0 -5 -4 -8 -10 -8 -7 0 -8 7 -4
18 4 9 10 25 12 34 5 16 7 15 24 -5 18 -22 18 -19 19 151 0 114 -4 172 -11
172 -5 0 -8 4 -4 9 14 23 -78 55 -98 34z m93 -55 c0 -5 -4 -7 -9 -4 -5 4 -12
0 -14 -6 -3 -7 -6 -3 -6 10 -1 12 -7 22 -13 23 -10 0 -10 2 0 6 6 2 10 10 6
16 -3 7 4 1 15 -12 12 -13 21 -27 21 -33z m-60 -54 c0 -8 -4 -14 -10 -14 -5 0
-10 9 -10 21 0 11 5 17 10 14 6 -3 10 -13 10 -21z m-164 -91 c-2 -3 -13 0 -24
6 -11 6 -23 7 -27 3 -5 -4 -5 -2 -1 5 5 9 13 10 31 1 14 -6 23 -13 21 -15z
m38 -92 c7 -11 -22 -23 -35 -15 -5 3 -7 10 -4 15 8 12 32 12 39 0z m76 -7 c0
-8 -4 -12 -10 -9 -5 3 -10 10 -10 16 0 5 5 9 10 9 6 0 10 -7 10 -16z m58 -1
c-5 -25 -28 -28 -28 -4 0 12 6 21 16 21 9 0 14 -7 12 -17z m-32 -75 c5 -7 0
-9 -14 -6 -16 5 -19 2 -15 -11 5 -12 3 -13 -7 -4 -14 13 -5 33 15 33 8 0 17
-5 21 -12z m21 -34 c-3 -3 -12 -4 -19 -1 -8 3 -5 6 6 6 11 1 17 -2 13 -5z"/>
<path d="M7611 10780 c-17 -22 -27 -40 -22 -40 12 0 66 69 59 75 -3 3 -19 -13
-37 -35z"/>
<path d="M6733 10630 c-18 -9 -29 -20 -26 -24 4 -4 0 -4 -9 -1 -10 4 -21 -2
-31 -15 -14 -21 -17 -55 -4 -55 12 0 87 50 87 58 0 4 4 6 9 3 5 -3 14 1 22 10
10 12 10 17 -2 29 -12 11 -19 10 -46 -5z m47 -4 c0 -3 -4 -8 -10 -11 -5 -3
-10 -1 -10 4 0 6 5 11 10 11 6 0 10 -2 10 -4z m-86 -45 c3 -5 0 -11 -7 -14 -8
-3 -14 1 -14 9 0 16 13 19 21 5z"/>
<path d="M13383 10563 c-6 -27 -7 -55 -3 -67 9 -23 9 -23 15 62 2 28 2 52 1
52 -1 0 -7 -21 -13 -47z"/>
<path d="M6617 10562 c-15 -10 -34 -27 -43 -38 -8 -10 -12 -13 -8 -5 4 8 -8 3
-28 -12 -19 -15 -38 -24 -41 -20 -4 3 -7 3 -7 0 0 -4 8 -15 18 -25 15 -15 22
-17 35 -7 9 7 13 16 9 20 -4 5 -1 5 5 1 7 -4 30 5 50 19 29 19 38 32 39 55 0
17 0 30 0 30 -1 0 -13 -8 -29 -18z m-22 -62 c-3 -5 -12 -10 -18 -10 -7 0 -6 4
3 10 19 12 23 12 15 0z m-35 -4 c0 -2 -7 -7 -16 -10 -8 -3 -12 -2 -9 4 6 10
25 14 25 6z"/>
<path d="M10360 10025 l0 -115 130 0 c97 0 130 3 130 13 0 8 4 7 10 -3 5 -8
10 -84 10 -168 l0 -153 123 3 122 3 0 172 c0 94 3 169 8 166 4 -2 7 -11 7 -19
0 -8 9 -14 20 -14 12 0 17 5 14 14 -3 7 2 16 10 19 14 6 21 -4 17 -25 0 -5
161 -8 359 -8 l360 0 0 115 0 115 -660 0 -660 0 0 -115z m257 -82 c-15 -2 -25
-9 -22 -14 9 -14 -5 -11 -21 6 -14 13 -11 15 28 14 30 -2 35 -3 15 -6z m453
-19 c0 -2 -15 -4 -32 -3 -27 0 -29 2 -13 8 18 8 45 4 45 -5z m80 0 c0 -2 -15
-4 -32 -3 -27 0 -29 2 -13 8 18 8 45 4 45 -5z m50 6 c0 -5 -7 -10 -16 -10 -8
0 -12 5 -9 10 3 6 10 10 16 10 5 0 9 -4 9 -10z m233 -7 c-13 -2 -35 -2 -50 0
-16 2 -5 4 22 4 28 0 40 -2 28 -4z m80 0 c-7 -2 -21 -2 -30 0 -10 3 -4 5 12 5
17 0 24 -2 18 -5z m-796 -38 c0 -8 -4 -12 -9 -9 -4 3 -8 9 -8 15 0 5 4 9 8 9
5 0 9 -7 9 -15z m-27 -81 c0 -8 -7 -14 -15 -14 -17 0 -18 2 -9 24 7 18 24 12
24 -10z m108 -177 l77 -3 -80 0 -80 1 -1 80 0 80 3 -77 4 -77 77 -4z"/>
<path d="M6961 10021 c-11 -7 -12 -13 -3 -23 9 -11 9 -17 0 -26 -8 -8 -8 -12
-2 -12 6 0 18 8 26 18 26 31 11 63 -21 43z"/>
<path d="M6110 10010 c0 -5 5 -10 11 -10 5 0 7 5 4 10 -3 6 -8 10 -11 10 -2 0
-4 -4 -4 -10z"/>
<path d="M6877 9972 c-55 -36 -75 -61 -39 -48 16 6 16 5 0 -7 -10 -8 -14 -18
-10 -22 4 -5 1 -5 -6 -1 -7 4 -10 11 -7 16 3 5 1 11 -5 15 -5 3 -11 1 -11 -4
-3 -26 -4 -30 -11 -37 -4 -3 -5 3 -3 16 4 21 3 21 -18 6 -12 -9 -34 -21 -49
-27 -16 -6 -28 -15 -28 -20 0 -5 -3 -8 -7 -7 -5 0 -15 -2 -23 -6 -8 -3 -60
-24 -115 -46 -55 -21 -93 -39 -85 -40 13 0 13 -1 0 -10 -11 -7 -5 -8 19 -3 25
4 32 3 27 -6 -8 -13 83 20 187 68 37 18 65 36 62 41 -3 6 -11 10 -16 10 -6 0
-8 -4 -4 -9 3 -5 0 -13 -7 -17 -7 -4 -10 -4 -6 1 4 4 3 14 -3 22 -9 10 -7 13
7 13 11 0 26 -4 34 -10 16 -10 73 19 103 54 10 12 16 15 12 8 -13 -24 50 15
68 42 13 19 14 26 4 35 -9 7 -28 0 -70 -27z m17 -28 c3 -8 2 -12 -4 -9 -6 3
-10 10 -10 16 0 14 7 11 14 -7z m-184 -108 c0 -2 -7 -7 -16 -10 -8 -3 -12 -2
-9 4 6 10 25 14 25 6z m-132 -49 c8 -10 2 -12 -30 -12 l-40 0 28 12 c16 7 30
12 30 13 1 0 6 -6 12 -13z"/>
<path d="M14794 9897 c-2 -7 -3 -60 -2 -118 l3 -104 663 -3 662 -2 0 120 0
120 -660 0 c-537 0 -662 -2 -666 -13z m86 -12 c0 -9 -6 -12 -15 -9 -8 4 -15
10 -15 15 0 5 7 9 15 9 8 0 15 -7 15 -15z m1180 5 c0 -5 -13 -8 -30 -7 -39 3
-39 17 0 17 17 0 30 -4 30 -10z m45 -8 c-3 -3 -11 0 -18 7 -9 10 -8 11 6 5 10
-3 15 -9 12 -12z m-2 -92 c0 -28 -3 -54 -7 -57 -3 -3 -6 22 -6 57 0 35 3 60 6
57 4 -3 7 -29 7 -57z m-1253 0 c0 -5 -9 -10 -20 -10 -11 0 -20 5 -20 10 0 6 9
10 20 10 11 0 20 -4 20 -10z m30 -95 c0 -8 -7 -15 -15 -15 -26 0 -18 20 13 29
1 1 2 -6 2 -14z m1180 -5 c0 -6 -13 -10 -30 -10 -39 0 -39 14 0 17 17 1 30 -2
30 -7z"/>
<path d="M11144 9827 c-2 -7 -3 -62 -2 -123 l3 -109 128 -3 127 -3 0 126 0
125 -125 0 c-95 0 -127 -3 -131 -13z m43 -29 c-3 -7 -5 -2 -5 12 0 14 2 19 5
13 2 -7 2 -19 0 -25z m13 -178 c0 -15 157 -13 163 3 3 9 8 9 18 -2 9 -9 9 -11
2 -7 -7 4 -13 2 -13 -4 0 -17 -182 -11 -198 6 -11 12 -9 14 8 14 11 0 20 -4
20 -10z"/>
<path d="M11760 9035 c1 -237 0 -231 48 -219 22 6 22 7 22 225 l0 219 -35 0
-36 0 1 -225z m28 180 c-3 -3 -9 2 -12 12 -6 14 -5 15 5 6 7 -7 10 -15 7 -18z
m-1 -358 c-2 -23 -3 -1 -3 48 0 50 1 68 3 42 2 -26 2 -67 0 -90z"/>
<path d="M10661 9039 l-1 -216 25 0 25 0 0 101 0 101 74 0 c41 0 72 -2 70 -4
-2 -2 1 -10 6 -16 6 -7 13 -41 16 -76 10 -90 18 -109 50 -109 22 0 25 3 20 23
-3 12 -6 42 -6 67 0 33 -3 41 -10 30 -7 -11 -8 -7 -4 15 4 23 0 36 -18 56 -27
31 -59 44 -68 29 -4 -6 -14 -8 -23 -4 -31 11 -5 26 35 20 29 -5 40 -3 44 9 3
8 10 13 14 10 11 -7 22 24 13 37 -3 7 -1 8 5 4 8 -5 12 3 12 23 0 36 -47 98
-63 82 -6 -6 -16 -11 -21 -11 -6 0 -4 4 4 10 25 16 2 24 -75 24 -54 1 -74 -2
-71 -11 4 -10 -14 -23 -34 -23 -5 0 -11 10 -13 23 -2 12 -5 -75 -6 -194z m179
191 c0 -5 -2 -10 -4 -10 -3 0 -8 5 -11 10 -3 6 -1 10 4 10 6 0 11 -4 11 -10z
m32 -33 c22 -1 25 -4 17 -20 -6 -10 -9 -30 -7 -45 5 -45 -24 -62 -104 -62
l-68 0 0 68 0 67 68 -3 c37 -2 79 -4 94 -5z m35 -48 c-13 -30 -15 -31 -14 -9
1 14 6 30 12 36 16 19 17 9 2 -27z m-210 5 c-3 -3 -12 -4 -19 -1 -8 3 -5 6 6
6 11 1 17 -2 13 -5z m0 -116 c-3 -7 -5 -2 -5 12 0 14 2 19 5 13 2 -7 2 -19 0
-25z m190 -60 c-3 -8 -6 -5 -6 6 -1 11 2 17 5 13 3 -3 4 -12 1 -19z m36 -103
c-3 -9 -8 -14 -10 -11 -3 3 -2 9 2 15 9 16 15 13 8 -4z"/>
<path d="M10680 9239 c0 -5 5 -7 10 -4 6 3 10 8 10 11 0 2 -4 4 -10 4 -5 0
-10 -5 -10 -11z"/>
<path d="M11054 9234 c3 -8 2 -12 -4 -9 -6 3 -10 2 -10 -4 0 -5 6 -12 13 -14
10 -4 10 -6 0 -6 -7 -1 -13 -13 -13 -27 0 -17 4 -23 13 -18 9 6 9 5 0 -7 -7
-9 -11 -64 -10 -169 l2 -155 133 -3 c126 -3 132 -2 132 17 0 19 -8 21 -102 23
l-103 3 -3 78 -3 77 101 0 c93 0 100 1 100 20 0 19 -7 20 -100 20 l-100 0 -1
53 c-1 28 -1 58 0 65 1 6 -6 12 -15 12 -10 0 -15 3 -11 6 3 3 56 5 116 5 l111
-2 0 26 0 25 -126 0 c-110 0 -125 -2 -120 -16z m236 -10 c0 -8 -4 -12 -10 -9
-5 3 -10 10 -10 16 0 5 5 9 10 9 6 0 10 -7 10 -16z m-195 -165 c10 -14 1 -21
-19 -13 -9 3 -13 10 -10 15 7 12 21 11 29 -2z m98 -16 c-7 -2 -19 -2 -25 0 -7
3 -2 5 12 5 14 0 19 -2 13 -5z m90 0 c3 -5 -8 -9 -24 -10 -15 -1 -31 2 -34 7
-4 6 7 10 24 10 16 0 32 -3 34 -7z m-193 -23 c0 -5 -4 -10 -10 -10 -5 0 -10 5
-10 10 0 6 5 10 10 10 6 0 10 -4 10 -10z m-13 -122 c-3 -8 -6 -5 -6 6 -1 11 2
17 5 13 3 -3 4 -12 1 -19z m21 -47 c3 -8 -1 -12 -9 -9 -7 2 -15 10 -17 17 -3
8 1 12 9 9 7 -2 15 -10 17 -17z m67 -11 c3 -5 -1 -10 -10 -10 -9 0 -13 5 -10
10 3 6 8 10 10 10 2 0 7 -4 10 -10z"/>
<path d="M11350 9244 c0 -12 33 -98 39 -104 4 -3 6 -10 6 -16 0 -26 90 -272
98 -267 4 3 7 -3 5 -13 -2 -14 4 -20 24 -22 31 -4 40 10 78 118 12 36 33 93
47 128 13 34 21 67 18 72 -3 6 -2 10 3 10 14 0 23 43 11 51 -8 5 -8 9 0 13 6
4 11 4 11 -1 0 -10 20 19 20 30 0 5 -14 7 -32 5 -31 -3 -33 -5 -74 -128 -23
-68 -40 -129 -37 -134 4 -5 10 0 14 12 8 22 29 31 29 12 0 -5 -4 -10 -10 -10
-5 0 -10 -8 -10 -18 0 -10 -7 -27 -16 -38 -15 -18 -15 -18 -8 5 4 16 3 21 -5
17 -6 -4 -11 -15 -11 -26 0 -10 -6 -20 -14 -23 -8 -3 -16 -14 -19 -24 -2 -10
-3 -7 -2 7 3 30 -28 124 -37 114 -4 -3 -6 3 -5 13 0 11 -10 54 -23 96 -19 60
-27 74 -37 65 -10 -8 -10 -14 -2 -24 7 -9 8 -14 1 -14 -11 0 -22 24 -22 48 0
13 2 14 9 4 6 -11 10 -10 15 4 4 9 3 21 -1 25 -12 12 -63 22 -63 13z m33 -29
c-3 -9 -8 -14 -10 -11 -3 3 -2 9 2 15 9 16 15 13 8 -4z m277 -14 c0 -5 3 -17
7 -27 4 -11 3 -15 -5 -10 -10 6 -13 -1 -26 -79 -1 -11 -7 -28 -11 -38 -6 -15
-10 -16 -16 -5 -13 19 -11 36 2 18 8 -11 9 -5 5 25 -4 27 -2 35 4 25 7 -11 10
-6 10 20 0 44 10 80 21 80 5 0 9 -4 9 -9z m-230 -96 c0 -5 -5 -3 -10 5 -5 8
-10 20 -10 25 0 6 5 3 10 -5 5 -8 10 -19 10 -25z m112 -222 c-3 -16 -7 -22
-10 -15 -4 13 4 42 11 42 2 0 2 -12 -1 -27z"/>
<path d="M11937 9243 c-4 -3 -7 -23 -7 -44 0 -27 5 -39 18 -42 15 -4 15 -5 0
-6 -15 -1 -17 -19 -17 -165 l-1 -164 135 -1 c128 -1 135 0 135 18 0 18 -9 20
-110 23 -83 2 -109 0 -106 -9 5 -13 -31 -29 -41 -19 -4 3 -1 6 5 6 7 0 12 5
12 11 0 5 -4 7 -10 4 -5 -3 -10 -2 -10 4 0 5 10 11 23 13 20 3 22 8 23 73 l1
70 102 3 c77 2 101 6 101 16 0 21 -23 26 -116 26 l-84 0 0 73 0 72 100 -3 100
-3 0 25 0 26 -101 0 c-80 0 -100 -3 -96 -13 8 -20 -25 -37 -41 -21 -7 8 -8 15
-2 19 6 3 10 1 10 -5 0 -6 5 -8 10 -5 6 3 10 10 10 16 0 10 -33 12 -43 2z m40
-193 c8 -12 9 -21 3 -25 -6 -3 -10 0 -11 7 0 10 -2 10 -6 1 -9 -23 -20 -14
-15 12 5 30 13 32 29 5z m210 -216 c-3 -3 -12 -4 -19 -1 -8 3 -5 6 6 6 11 1
17 -2 13 -5z"/>
<path d="M12237 9238 c4 -7 9 -22 10 -33 6 -36 12 -45 33 -45 12 0 19 -4 15
-10 -3 -5 -12 -7 -20 -4 -15 6 -11 -10 54 -231 24 -83 28 -90 54 -92 30 -2 52
26 44 58 -3 10 -1 17 3 14 5 -3 14 14 20 37 6 24 18 64 25 91 8 26 11 47 8 47
-3 0 0 7 7 15 7 8 10 22 6 30 -4 11 -2 14 6 9 7 -5 9 0 6 14 -8 27 17 51 35
33 9 -9 9 -14 -2 -20 -12 -8 -10 -23 10 -95 13 -47 27 -86 31 -86 4 0 5 -7 2
-15 -4 -8 -1 -15 5 -15 6 0 8 -6 6 -12 -3 -7 1 -33 9 -58 12 -42 16 -45 46
-45 l33 0 28 100 c16 55 26 106 24 113 -3 8 0 10 7 6 8 -5 9 0 4 17 -16 50
-18 80 -7 93 9 10 9 16 1 21 -6 4 -13 5 -15 4 -9 -10 -54 -202 -49 -210 3 -5
0 -9 -5 -9 -6 0 -11 -6 -11 -14 0 -7 -7 -27 -16 -42 l-16 -29 6 27 c7 31 -3
88 -15 88 -5 0 -9 -10 -10 -22 0 -22 -1 -22 -8 -3 -5 13 -3 24 5 30 10 8 8 25
-10 89 -23 78 -23 78 -40 55 -20 -29 -21 -17 -1 14 11 18 12 31 4 60 -9 32
-14 37 -39 37 -17 0 -30 -4 -30 -10 0 -5 7 -7 15 -4 9 4 15 0 15 -10 0 -10 -8
-15 -22 -13 -20 2 -23 -2 -20 -33 1 -23 -1 -30 -7 -22 -13 21 -21 -36 -10 -67
6 -14 6 -27 1 -30 -5 -3 -12 -13 -15 -21 -4 -8 -4 0 -1 18 12 71 -16 8 -31
-68 -6 -31 -33 -85 -34 -67 -1 11 -6 15 -13 11 -7 -4 -8 -3 -4 5 9 15 -2 71
-15 71 -5 0 -9 -8 -10 -17 0 -12 -2 -13 -6 -5 -3 7 0 19 6 26 8 10 7 32 -6 85
-9 39 -20 71 -25 71 -4 0 -5 6 -2 13 7 18 -13 67 -27 67 -6 0 -9 -7 -5 -15 3
-8 1 -15 -4 -15 -6 0 -10 7 -10 15 0 8 -7 15 -16 15 -10 0 -12 -5 -7 -12z
m341 -155 c9 -17 9 -22 -3 -27 -11 -4 -15 2 -15 26 0 34 2 34 18 1z m-277 -6
c-10 -9 -11 -8 -5 6 3 10 9 15 12 12 3 -3 0 -11 -7 -18z m26 -19 c-3 -7 -5 -2
-5 12 0 14 2 19 5 13 2 -7 2 -19 0 -25z m378 -34 c-4 -24 -3 -34 4 -30 7 5 7
-3 0 -24 -24 -66 -33 -34 -15 53 10 47 20 49 11 1z m-261 -30 c3 -8 2 -12 -4
-9 -6 3 -10 10 -10 16 0 14 7 11 14 -7z m-91 -39 c-3 -9 -8 -14 -10 -11 -3 3
-2 9 2 15 9 16 15 13 8 -4z m337 -58 c0 -7 -4 -6 -10 3 -8 12 -10 12 -10 1 0
-8 -3 -12 -6 -8 -9 9 6 28 17 22 5 -4 9 -12 9 -18z m-291 -28 c-13 -26 -20
-21 -12 9 3 12 9 19 14 16 5 -3 4 -14 -2 -25z"/>
<path d="M12739 9229 c-8 -15 -8 -24 0 -32 8 -8 11 -8 12 1 3 27 4 31 13 39 5
5 6 -11 2 -37 -4 -25 -11 -46 -16 -48 -12 -4 -13 -62 -2 -62 13 0 46 116 37
130 -5 9 -4 11 3 6 7 -4 12 -1 12 8 0 24 -47 20 -61 -5z"/>
<path d="M13037 9244 c-4 -4 -7 -101 -7 -216 l0 -208 25 0 26 0 -2 144 c-1 79
1 148 5 154 3 6 -1 17 -10 26 -9 10 -13 24 -9 36 3 10 2 27 -4 37 -7 15 -6 19
8 19 13 0 16 -7 13 -32 -3 -25 1 -36 17 -46 12 -7 21 -20 21 -28 0 -13 -2 -13
-11 0 -9 12 -10 11 -4 -5 4 -11 14 -42 23 -70 13 -40 17 -45 20 -26 l4 23 16
-23 c14 -20 14 -24 0 -32 -12 -8 -13 -17 -5 -48 5 -23 14 -36 20 -32 6 4 8 0
4 -9 -3 -9 -1 -33 5 -53 11 -32 15 -36 42 -33 25 2 31 8 30 25 0 12 4 20 8 16
5 -3 8 1 7 8 -2 8 5 32 15 54 9 21 18 46 20 55 1 8 10 31 18 51 16 37 32 94
33 116 0 7 4 13 9 13 6 0 9 -72 7 -170 l-2 -170 30 2 31 2 -2 211 -3 210 -28
3 c-34 4 -54 -11 -62 -46 -12 -55 -112 -324 -117 -316 -3 5 -11 31 -18 57 -10
36 -17 47 -28 42 -12 -4 -12 -2 -3 8 8 11 2 38 -26 118 -20 57 -41 107 -46
110 -5 3 -7 10 -5 15 4 11 -55 18 -65 8z m373 -24 c0 -11 -7 -20 -15 -20 -15
0 -21 21 -8 33 12 13 23 7 23 -13z m-70 -117 c-11 -17 -11 -17 -6 0 3 10 7 26
7 35 1 15 2 15 6 0 2 -10 -1 -25 -7 -35z m-191 -28 c0 -5 -4 -3 -9 5 -5 8 -9
22 -9 30 0 16 17 -16 18 -35z m165 -45 c-31 -47 -38 -51 -21 -12 14 32 29 51
40 52 4 0 -5 -18 -19 -40z m95 -117 c1 -17 -3 -35 -9 -38 -6 -4 -10 17 -9 57
1 47 3 57 9 38 4 -14 8 -39 9 -57z"/>
<path d="M13639 9209 c-11 -23 -22 -49 -24 -58 -2 -9 -13 -40 -24 -69 -11 -30
-17 -61 -14 -70 4 -13 3 -14 -5 -4 -6 10 -18 -13 -41 -77 -17 -49 -31 -94 -31
-99 0 -5 12 -9 27 -8 23 1 29 8 42 51 l16 50 88 3 c65 2 86 6 81 15 -4 7 0 5
8 -3 8 -8 20 -35 27 -60 14 -48 25 -60 55 -60 24 0 19 29 -29 147 -20 48 -37
95 -39 103 -8 32 -49 136 -59 148 -5 6 -6 12 -1 12 5 0 2 5 -6 10 -29 19 -49
10 -71 -31z m81 -23 c0 -12 -14 5 -31 39 -8 16 -6 15 10 -4 12 -13 21 -28 21
-35z m-69 7 c-12 -20 -14 -14 -5 12 4 9 9 14 11 11 3 -2 0 -13 -6 -23z m39
-33 c0 -6 7 -26 15 -46 8 -19 14 -37 14 -39 1 -15 33 -80 43 -86 13 -8 2 -29
-15 -29 -7 0 -6 4 3 10 10 7 -8 10 -61 10 -68 0 -77 2 -82 20 -3 11 -1 18 3
15 4 -3 13 9 19 25 6 18 6 30 0 30 -5 0 -9 -5 -9 -12 0 -6 -2 -9 -5 -6 -10 10
7 37 19 32 13 -5 31 45 27 74 -1 6 5 12 14 12 8 0 15 -5 15 -10z m-35 -9 c3
-5 1 -12 -4 -15 -5 -3 -11 1 -15 9 -6 16 9 21 19 6z m63 -32 c-3 -8 -7 -3 -11
10 -4 17 -3 21 5 13 5 -5 8 -16 6 -23z m42 -47 c-6 -2 -10 -8 -10 -13 0 -6 5
-7 10 -4 6 3 10 -2 10 -12 0 -15 -2 -16 -15 -3 -9 9 -12 24 -8 38 4 18 8 20
14 10 5 -7 4 -14 -1 -16z m40 -101 c0 -5 -7 -12 -16 -15 -14 -5 -15 -4 -4 9
14 17 20 19 20 6z m-246 -67 c-10 -21 -20 -32 -22 -26 -2 6 4 22 12 34 9 12
17 32 17 43 1 16 2 17 6 3 2 -10 -4 -34 -13 -54z m74 48 c2 -7 -1 -12 -8 -12
-6 0 -9 4 -6 9 4 5 1 12 -4 14 -6 3 -5 4 2 3 6 -1 14 -8 16 -14z m59 -8 c-3
-3 -12 -4 -19 -1 -8 3 -5 6 6 6 11 1 17 -2 13 -5z m137 -29 c3 3 2 0 -3 -6
-10 -12 -31 -4 -31 13 0 7 4 7 13 -1 8 -6 17 -9 21 -6z m-290 -70 c3 -8 1 -15
-3 -15 -5 0 -11 7 -15 15 -3 8 -1 15 3 15 5 0 11 -7 15 -15z m314 3 c-2 -6
-10 -14 -16 -16 -7 -2 -10 2 -6 12 7 18 28 22 22 4z"/>
<path d="M13840 9225 c0 -24 3 -25 60 -25 49 0 60 3 60 17 0 9 3 14 6 11 3 -4
5 -96 4 -206 l-1 -199 28 2 28 1 0 187 c0 117 4 187 10 188 6 0 36 0 68 -1 55
-1 57 -1 57 24 l0 26 -160 0 -160 0 0 -25z m260 11 c0 -3 -4 -8 -10 -11 -5 -3
-10 -1 -10 4 0 6 5 11 10 11 6 0 10 -2 10 -4z"/>
<path d="M14220 9035 l0 -215 89 0 c50 0 93 5 96 10 3 6 18 10 33 9 24 0 25
-1 7 -9 -18 -8 -17 -9 8 -9 21 -1 27 4 27 19 0 18 -6 20 -67 19 -38 -1 -74 -6
-80 -11 -9 -7 -15 -5 -19 6 -6 16 -8 16 -25 0 -10 -9 -25 -14 -34 -11 -19 8
-20 27 -1 27 10 0 14 17 15 61 1 34 -3 58 -8 55 -5 -3 -7 3 -4 14 5 18 14 20
78 20 52 0 76 4 85 15 17 20 30 19 30 -2 0 -15 2 -16 10 -3 17 27 11 30 -59
30 -52 0 -70 -4 -75 -15 -3 -8 -11 -15 -18 -15 -9 0 -8 3 2 10 13 9 13 10 0
11 -8 1 -18 1 -22 0 -5 0 -8 4 -8 10 0 5 -4 8 -9 5 -5 -4 -7 3 -4 14 4 16 2
19 -11 14 -11 -4 -16 -1 -16 11 0 11 5 15 16 11 12 -5 15 0 14 22 -5 65 -10
62 105 62 101 0 105 1 95 19 -7 14 -6 21 3 24 6 3 -48 6 -120 6 l-133 1 0
-215z m140 195 c0 -5 -6 -10 -14 -10 -8 0 -18 5 -21 10 -3 6 3 10 14 10 12 0
21 -4 21 -10z m90 0 c0 -5 -7 -10 -15 -10 -8 0 -15 5 -15 10 0 6 7 10 15 10 8
0 15 -4 15 -10z m-185 -9 c3 -5 1 -12 -4 -15 -5 -4 -12 0 -15 6 -4 7 -4 2 -2
-11 4 -17 2 -21 -6 -13 -12 12 -4 42 11 42 5 0 12 -4 16 -9z"/>
<path d="M5110 8480 c-8 -5 -10 -10 -5 -10 6 0 17 5 25 10 8 5 11 10 5 10 -5
0 -17 -5 -25 -10z"/>
</g>
</svg>
