<?xml version="1.0" standalone="no"?>
<!DOCTYPE svg PUBLIC "-//W3C//DTD SVG 20010904//EN"
 "http://www.w3.org/TR/2001/REC-SVG-20010904/DTD/svg10.dtd">
<svg version="1.0" xmlns="http://www.w3.org/2000/svg"
 width="2083.000000pt" height="2083.000000pt" viewBox="0 0 2083.000000 2083.000000"
 preserveAspectRatio="xMidYMid meet">
<g transform="translate(0.000000,2083.000000) scale(0.100000,-0.100000)"
fill="#088EA2" stroke="none">
<path d="M7225 12395 c28 -7 51 -12 53 -10 6 5 -61 25 -82 24 -12 0 2 -6 29
-14z"/>
<path d="M6930 12370 c0 -5 5 -10 10 -10 6 0 10 5 10 10 0 6 -4 10 -10 10 -5
0 -10 -4 -10 -10z"/>
<path d="M6960 12376 c0 -2 8 -10 18 -17 15 -13 16 -12 3 4 -13 16 -21 21 -21
13z"/>
<path d="M7064 12340 c-50 -41 -65 -45 -72 -19 -3 12 -2 12 7 -1 5 -8 14 -11
18 -6 4 5 2 11 -5 13 -6 3 -9 10 -5 16 4 7 -1 6 -10 -2 -14 -11 -20 -11 -34 0
-10 8 3 -9 28 -37 25 -27 59 -69 74 -92 15 -23 30 -42 32 -42 2 0 1 5 -3 11
-4 8 0 7 15 -1 15 -7 20 -17 16 -29 -3 -10 -3 -26 1 -35 5 -14 9 -12 26 9 10
14 16 29 13 35 -3 5 1 20 9 32 21 30 20 37 -5 31 -11 -3 -18 -11 -15 -19 3 -9
0 -11 -11 -7 -12 5 -14 3 -8 -8 5 -8 5 -11 -1 -6 -5 5 -10 13 -10 18 -1 5 -2
14 -3 20 0 5 -6 7 -13 3 -8 -5 -9 -2 -5 9 4 10 2 17 -4 17 -7 0 -9 -10 -4 -27
5 -23 4 -26 -6 -16 -7 7 -14 18 -15 25 -1 7 -4 20 -6 28 -3 8 -3 12 -1 8 9
-16 21 -7 16 11 -3 13 2 23 16 30 12 7 18 17 15 26 -4 8 -10 12 -15 9 -16 -10
-9 9 9 22 9 7 14 14 11 14 -4 0 -29 -18 -55 -40z m19 -32 c-10 -11 -19 -15
-21 -9 -2 6 -9 8 -15 4 -7 -3 -4 3 6 15 11 11 25 18 33 15 13 -5 12 -9 -3 -25z
m-34 -52 c-3 -3 -11 5 -18 17 -13 21 -12 21 5 5 10 -10 16 -20 13 -22z m91
-123 c-11 -17 -11 -17 -6 0 3 10 6 24 7 30 0 9 2 9 5 0 3 -7 0 -20 -6 -30z"/>
<path d="M7297 12369 c7 -7 15 -10 18 -7 3 3 -2 9 -12 12 -14 6 -15 5 -6 -5z"/>
<path d="M7159 12353 c-12 -15 -12 -16 1 -8 8 5 28 8 45 6 35 -3 32 3 -6 12
-19 5 -31 2 -40 -10z"/>
<path d="M7375 12300 c10 -11 20 -20 23 -20 3 0 -3 9 -13 20 -10 11 -20 20
-23 20 -3 0 3 -9 13 -20z"/>
<path d="M7340 12280 c13 -24 17 -25 17 -5 0 8 -6 16 -14 19 -11 4 -11 1 -3
-14z"/>
<path d="M6546 12256 c5 -13 4 -17 -4 -12 -8 5 -10 2 -5 -10 6 -15 7 -15 16 1
6 11 5 21 -3 28 -8 9 -9 7 -4 -7z"/>
<path d="M6820 12240 c-12 -8 -11 -10 7 -10 12 0 25 5 28 10 8 13 -15 13 -35
0z"/>
<path d="M7370 12241 c0 -5 7 -15 17 -22 15 -13 15 -12 4 9 -12 23 -21 28 -21
13z"/>
<path d="M6870 12232 c0 -5 15 -7 33 -6 29 3 30 3 7 -5 -14 -5 -39 -9 -57 -10
-59 -2 -42 -16 19 -16 58 0 62 -2 95 -40 19 -22 39 -39 45 -37 5 1 6 -3 3 -9
-8 -11 11 -54 33 -77 15 -17 15 -18 -3 42 -8 27 -13 52 -10 54 3 3 8 -9 11
-26 4 -18 11 -32 16 -32 5 0 6 -5 2 -12 -4 -7 -3 -8 4 -4 15 9 -25 93 -44 93
-8 0 -14 -4 -14 -9 0 -5 -5 -6 -11 -2 -8 4 -4 11 10 18 l22 12 -23 21 c-13 12
-36 29 -53 37 -32 17 -85 22 -85 8z m98 -48 c-3 -14 -5 -12 -10 9 -3 19 -2 25
4 19 6 -6 8 -18 6 -28z m42 -14 c0 -3 -6 -7 -13 -7 -7 0 -13 8 -13 18 0 13 3
15 13 7 7 -6 13 -14 13 -18z"/>
<path d="M6729 12190 c-33 -34 -38 -44 -32 -71 4 -21 3 -30 -4 -26 -14 9 -23
-26 -22 -83 1 -43 1 -43 10 -15 5 17 6 38 3 49 -4 12 -2 16 5 12 6 -4 11 0 11
11 0 15 2 16 10 3 12 -19 13 -4 1 38 -11 36 -5 44 8 11 7 -20 9 -19 32 17 32
53 36 64 11 34 -12 -14 -21 -20 -22 -13 0 6 5 15 11 18 6 4 8 14 5 22 -4 11
-2 13 9 9 9 -3 15 0 15 9 0 23 -9 18 -51 -25z m12 -14 c-6 -7 -9 -22 -5 -32 5
-17 4 -17 -5 -2 -12 18 -5 48 11 48 7 0 6 -5 -1 -14z"/>
<path d="M7189 12202 l-15 -27 49 4 c27 2 47 -1 44 -5 -3 -5 6 -23 19 -39 18
-23 24 -26 24 -12 0 9 -4 17 -8 17 -5 0 -14 11 -20 24 -6 13 -21 28 -34 32
-13 4 -27 13 -33 20 -8 11 -13 8 -26 -14z"/>
<path d="M7410 12170 c6 -11 13 -20 16 -20 2 0 0 9 -6 20 -6 11 -13 20 -16 20
-2 0 0 -9 6 -20z"/>
<path d="M7320 12166 c0 -5 8 -18 17 -28 15 -17 15 -18 0 -13 -13 6 -15 2 -11
-21 6 -34 15 -44 22 -25 3 10 9 8 23 -10 10 -13 20 -21 23 -18 4 3 -3 16 -14
29 -11 13 -20 29 -20 35 0 15 -39 65 -40 51z"/>
<path d="M7154 12103 c-13 -22 -14 -25 -2 -15 13 10 17 10 22 -4 3 -8 2 -23
-3 -31 -10 -18 16 -93 36 -106 7 -4 13 -13 13 -20 0 -7 -4 -6 -11 3 -14 21 -3
-22 22 -77 17 -42 28 -51 43 -35 7 7 11 8 37 11 13 1 2 21 -12 21 -6 0 -7 -5
-3 -12 4 -7 3 -8 -5 -4 -17 11 -2 28 20 21 33 -11 40 3 22 46 -8 22 -13 42
-10 45 2 3 10 -9 16 -26 6 -17 15 -29 20 -25 6 3 8 -3 6 -14 -2 -14 1 -18 11
-14 7 3 11 9 8 14 -3 5 -1 9 5 9 5 0 12 -6 15 -12 4 -7 4 2 1 20 -4 31 4 38
37 33 8 -1 -15 69 -31 97 -16 27 -13 -3 4 -34 16 -32 19 -54 7 -54 -4 0 -14 6
-21 13 -11 10 -13 9 -8 -5 4 -12 -1 -21 -14 -29 -17 -9 -21 -7 -26 10 -3 12
-9 21 -14 21 -5 0 -8 3 -7 8 1 4 -1 17 -6 29 -6 18 -12 21 -36 16 -25 -4 -31
-1 -39 18 -5 13 -6 28 -4 33 3 4 -9 5 -27 1 -30 -7 -32 -5 -27 14 3 12 -1 27
-8 35 -8 7 -11 16 -8 20 4 3 4 6 1 6 -3 0 -14 -12 -24 -27z m64 -81 c-10 -2
-18 -11 -18 -19 0 -9 -3 -14 -6 -10 -3 3 -3 15 1 26 4 14 11 18 23 13 16 -6
16 -7 0 -10z m53 -55 c-7 -7 -15 -6 -26 3 -24 20 -18 31 10 18 17 -8 22 -15
16 -21z m48 9 c8 -10 9 -16 1 -21 -5 -3 -11 -18 -11 -33 l-1 -27 -8 30 c-16
62 -8 83 19 51z m-63 -87 c1 -17 -1 -28 -4 -24 -4 3 -7 20 -8 36 -2 39 9 28
12 -12z"/>
<path d="M7301 11964 c0 -11 3 -14 6 -6 3 7 2 16 -1 19 -3 4 -6 -2 -5 -13z"/>
<path d="M7157 12073 c-4 -3 -7 -11 -7 -17 0 -6 5 -5 12 2 6 6 9 14 7 17 -3 3
-9 2 -12 -2z"/>
<path d="M7346 12045 c4 -8 8 -15 10 -15 2 0 4 7 4 15 0 8 -4 15 -10 15 -5 0
-7 -7 -4 -15z"/>
<path d="M7490 12006 c0 -14 4 -27 8 -30 5 -3 6 8 4 25 -5 35 -12 38 -12 5z"/>
<path d="M7370 12005 c0 -5 5 -17 10 -25 5 -8 10 -10 10 -5 0 6 -5 17 -10 25
-5 8 -10 11 -10 5z"/>
<path d="M7520 12000 c0 -5 5 -10 11 -10 5 0 7 5 4 10 -3 6 -8 10 -11 10 -2 0
-4 -4 -4 -10z"/>
<path d="M7544 11949 c-3 -6 0 -15 7 -20 22 -14 36 -10 17 5 -10 7 -15 16 -11
19 3 4 4 7 0 7 -3 0 -9 -5 -13 -11z"/>
<path d="M7428 11913 c7 -3 16 -2 19 1 4 3 -2 6 -13 5 -11 0 -14 -3 -6 -6z"/>
<path d="M7495 11909 c-4 -5 -22 -9 -41 -9 -19 0 -34 -5 -34 -10 0 -6 10 -8
23 -5 35 9 120 10 137 2 9 -4 24 -1 35 8 20 16 20 16 0 7 -13 -6 -29 -6 -45 0
-36 15 -69 18 -75 7z"/>
<path d="M7645 11910 c4 -6 -1 -17 -11 -25 -18 -13 -18 -14 2 -9 12 3 25 0 30
-7 5 -9 2 -11 -9 -6 -11 4 -14 2 -10 -9 3 -7 10 -14 16 -14 19 0 -2 -12 -35
-20 l-33 -8 31 -1 c20 -1 38 7 50 21 10 12 13 18 6 14 -9 -6 -11 0 -7 23 4 24
1 33 -16 42 -16 8 -20 8 -14 -1z"/>
<path d="M7763 11903 c9 -2 25 -2 35 0 9 3 1 5 -18 5 -19 0 -27 -2 -17 -5z"/>
<path d="M7870 11901 c8 -6 22 -11 31 -11 9 0 20 -7 23 -16 3 -8 11 -12 17 -9
14 9 -18 32 -57 40 -22 5 -25 4 -14 -4z"/>
<path d="M7705 11883 c-19 -13 -18 -14 10 -7 37 8 39 10 23 17 -8 2 -23 -2
-33 -10z"/>
<path d="M8195 11870 c3 -5 1 -10 -5 -10 -6 0 -8 -4 -5 -10 3 -5 1 -10 -4 -10
-6 0 -11 5 -11 10 0 12 -86 14 -93 3 -3 -5 16 -7 41 -6 35 2 41 0 22 -6 -19
-6 -9 -9 43 -13 72 -6 104 -22 78 -37 -10 -6 -6 -9 12 -8 30 2 33 7 15 25 -9
9 -9 12 3 12 12 0 12 2 -1 10 -8 5 -28 10 -44 10 -16 0 -26 3 -23 7 8 7 -11
33 -25 33 -5 0 -6 -4 -3 -10z"/>
<path d="M8617 11857 c-3 -8 1 -14 8 -14 7 0 11 6 8 14 -3 7 -6 13 -8 13 -2 0
-5 -6 -8 -13z"/>
<path d="M8270 11850 c8 -5 22 -9 30 -9 10 0 8 3 -5 9 -27 12 -43 12 -25 0z"/>
<path d="M7980 11841 c0 -6 4 -13 10 -16 6 -3 7 1 4 9 -7 18 -14 21 -14 7z"/>
<path d="M8766 11841 c-4 -5 3 -7 14 -4 23 6 26 13 6 13 -8 0 -17 -4 -20 -9z"/>
<path d="M8323 11827 c3 -9 2 -17 -4 -17 -6 0 -8 -4 -4 -9 3 -6 -5 -19 -17
-30 -22 -21 -25 -22 -55 -25 -10 -1 -23 -5 -29 -8 -13 -9 -16 -58 -3 -58 5 0
9 5 9 12 0 6 3 9 6 5 9 -9 -22 -48 -32 -40 -5 4 -3 1 4 -7 14 -17 16 -50 2
-50 -5 0 -10 -7 -10 -15 0 -8 -4 -15 -9 -15 -11 0 -11 -49 1 -56 19 -12 38 19
38 60 0 70 27 143 62 168 17 13 34 22 39 21 5 -2 9 1 9 6 0 5 9 7 20 4 16 -4
19 -2 14 13 -4 11 -16 28 -27 39 -18 16 -20 17 -14 2z m-81 -109 c-9 -9 -15
-9 -24 1 -11 11 -10 13 5 8 10 -4 17 -2 17 5 0 6 3 8 7 5 4 -4 1 -13 -5 -19z
m-35 -170 c-3 -8 -6 -5 -6 6 -1 11 2 17 5 13 3 -3 4 -12 1 -19z"/>
<path d="M8068 11823 c7 -3 16 -2 19 1 4 3 -2 6 -13 5 -11 0 -14 -3 -6 -6z"/>
<path d="M8388 11813 c7 -3 16 -2 19 1 4 3 -2 6 -13 5 -11 0 -14 -3 -6 -6z"/>
<path d="M8564 11799 c-14 -15 -26 -19 -49 -15 -19 4 -25 3 -16 -3 11 -7 10
-10 -5 -13 -17 -3 -17 -4 4 -10 15 -4 20 -2 16 5 -4 7 -1 7 7 -1 11 -11 12
-14 1 -21 -11 -7 -10 -10 3 -15 23 -9 25 -8 25 9 0 8 6 15 13 15 8 0 19 12 25
26 9 19 9 24 0 18 -8 -5 -9 -2 -5 9 8 22 4 21 -19 -4z m10 -24 c-4 -8 -10 -12
-15 -9 -11 6 -2 24 11 24 5 0 7 -7 4 -15z"/>
<path d="M6398 11803 c7 -3 16 -2 19 1 4 3 -2 6 -13 5 -11 0 -14 -3 -6 -6z"/>
<path d="M8435 11800 c27 -12 43 -12 25 0 -8 5 -22 9 -30 9 -10 0 -8 -3 5 -9z"/>
<path d="M8789 11787 c7 -9 20 -17 28 -17 10 0 13 -6 9 -16 -6 -14 -4 -15 9
-4 14 12 20 9 42 -16 l25 -29 -22 32 c-23 36 -38 48 -60 48 -8 0 -22 4 -30 10
-13 8 -13 7 -1 -8z"/>
<path d="M8408 11773 c7 -3 16 -2 19 1 4 3 -2 6 -13 5 -11 0 -14 -3 -6 -6z"/>
<path d="M8440 11766 c0 -2 7 -7 16 -10 8 -3 12 -2 9 4 -6 10 -25 14 -25 6z"/>
<path d="M8602 11736 c7 -8 15 -12 17 -11 5 6 -10 25 -20 25 -5 0 -4 -6 3 -14z"/>
<path d="M8650 11730 c20 -13 33 -13 25 0 -3 6 -14 10 -23 10 -15 0 -15 -2 -2
-10z"/>
<path d="M8843 11724 c1 -11 13 -34 25 -50 l22 -29 -10 28 c-6 16 -17 39 -25
50 -15 22 -15 22 -12 1z"/>
<path d="M8330 11683 c-16 -21 -20 -37 -16 -61 3 -19 1 -30 -5 -27 -13 9 -11
-18 4 -39 23 -32 45 -10 49 49 3 48 1 52 -13 39 -15 -14 -29 -10 -29 8 0 5 4
6 10 3 5 -3 7 0 4 8 -4 10 2 15 20 15 14 0 26 -5 26 -10 0 -5 4 -6 10 -3 5 3
30 -6 56 -21 38 -22 48 -25 55 -13 5 8 9 17 9 22 0 14 -62 45 -78 39 -10 -3
-13 -1 -8 6 4 7 -1 10 -14 9 -35 -2 -22 -14 32 -28 28 -8 53 -19 55 -25 5 -15
-29 -14 -47 1 -21 17 -80 36 -94 29 -6 -3 -2 2 8 10 17 13 17 16 4 16 -9 0
-26 -12 -38 -27z m-3 -125 c-3 -8 -6 -5 -6 6 -1 11 2 17 5 13 3 -3 4 -12 1
-19z"/>
<path d="M8588 11703 c7 -3 16 -2 19 1 4 3 -2 6 -13 5 -11 0 -14 -3 -6 -6z"/>
<path d="M8675 11700 c-16 -7 -17 -9 -3 -9 9 -1 20 4 23 9 7 11 7 11 -20 0z"/>
<path d="M7132 11684 c-7 -8 -8 -14 -3 -14 10 0 25 19 20 25 -2 1 -10 -3 -17
-11z"/>
<path d="M8170 11613 c0 -28 3 -34 10 -23 13 20 13 47 0 55 -6 4 -10 -9 -10
-32z"/>
<path d="M6646 11603 c-20 -20 -34 -43 -31 -50 2 -8 1 -12 -4 -8 -5 3 -9 -15
-9 -40 0 -25 4 -43 9 -40 5 4 7 0 4 -7 -6 -16 30 -77 51 -85 28 -11 38 13 18
46 -16 26 -20 29 -25 14 -5 -14 -7 -12 -11 9 -3 15 -1 25 3 22 5 -3 9 3 9 14
0 18 23 23 45 10 21 -12 126 -29 144 -23 11 3 37 3 58 -1 31 -6 34 -8 18 -15
-17 -7 -15 -8 10 -8 17 0 53 -5 80 -10 115 -24 305 -52 314 -47 5 3 11 1 13
-5 2 -7 38 -12 95 -13 50 0 89 -4 87 -8 -2 -3 13 -9 33 -12 146 -22 209 -28
246 -23 27 4 36 2 26 -4 -12 -7 -12 -9 1 -9 8 0 101 -6 205 -14 209 -16 425
-19 425 -7 0 12 -50 32 -62 25 -7 -5 -8 -2 -4 5 6 9 -7 12 -51 11 -32 -1 -130
3 -218 9 -88 7 -171 9 -185 6 -20 -4 -22 -3 -10 5 11 8 2 10 -38 8 -28 -2 -52
0 -52 3 0 13 -144 18 -159 6 -12 -9 -13 -9 -8 0 10 16 -33 28 -68 19 -14 -4
-25 -3 -25 2 0 5 -44 14 -97 21 -54 7 -154 21 -221 32 -97 16 -127 17 -138 8
-8 -6 -17 -9 -21 -5 -3 3 -1 6 6 6 7 0 10 4 7 9 -8 12 -172 35 -187 25 -8 -5
-9 -3 -4 6 6 10 2 11 -19 6 -14 -3 -26 -3 -26 2 0 10 -138 34 -151 27 -5 -4
-9 -1 -9 5 0 8 -14 10 -42 7 -24 -3 -37 -3 -30 0 6 2 12 9 12 14 0 6 -4 8 -9
4 -5 -3 -12 -1 -15 4 -3 4 4 8 17 7 12 0 21 4 20 11 -2 7 3 10 10 7 17 -6 51
31 42 45 -12 21 -42 11 -79 -26z m109 -93 c-19 -8 -18 -9 4 -9 13 -1 22 -4 18
-7 -3 -4 -18 -3 -34 0 -21 6 -24 9 -12 17 7 5 21 8 29 8 10 0 8 -3 -5 -9z
m-128 -22 c-3 -8 -6 -5 -6 6 -1 11 2 17 5 13 3 -3 4 -12 1 -19z m210 -4 c-3
-3 -12 -4 -19 -1 -8 3 -5 6 6 6 11 1 17 -2 13 -5z m238 -34 c-27 -12 -43 -12
-25 0 8 5 22 9 30 9 10 0 8 -3 -5 -9z m170 -20 c13 -5 14 -9 5 -9 -8 0 -24 4
-35 9 -13 5 -14 9 -5 9 8 0 24 -4 35 -9z m68 -17 c-7 -2 -19 -2 -25 0 -7 3 -2
5 12 5 14 0 19 -2 13 -5z m-638 -12 c3 -5 2 -12 -3 -15 -5 -3 -9 1 -9 9 0 17
3 19 12 6z m938 -38 c-7 -2 -19 -2 -25 0 -7 3 -2 5 12 5 14 0 19 -2 13 -5z
m414 -39 c-3 -3 -12 -4 -19 -1 -8 3 -5 6 6 6 11 1 17 -2 13 -5z"/>
<path d="M8940 11560 c0 -5 5 -10 10 -10 6 0 10 5 10 10 0 6 -4 10 -10 10 -5
0 -10 -4 -10 -10z"/>
<path d="M6868 11453 c6 -2 18 -2 25 0 6 3 1 5 -13 5 -14 0 -19 -2 -12 -5z"/>
<path d="M8873 11424 c-13 -14 -18 -24 -11 -22 10 4 45 48 37 48 -2 0 -14 -12
-26 -26z"/>
<path d="M8756 11371 c-3 -4 6 -6 19 -3 14 2 25 6 25 8 0 8 -39 4 -44 -5z"/>
<path d="M8829 11353 c-13 -17 -13 -17 6 -3 11 8 22 16 24 17 2 2 0 3 -6 3 -6
0 -17 -8 -24 -17z"/>
<path d="M8698 11353 c6 -2 18 -2 25 0 6 3 1 5 -13 5 -14 0 -19 -2 -12 -5z"/>
<path d="M8543 11333 c9 -2 23 -2 30 0 6 3 -1 5 -18 5 -16 0 -22 -2 -12 -5z"/>
<path d="M8760 11330 c-18 -12 -2 -12 25 0 13 6 15 9 5 9 -8 0 -22 -4 -30 -9z"/>
<path d="M8448 11323 c6 -2 18 -2 25 0 6 3 1 5 -13 5 -14 0 -19 -2 -12 -5z"/>
<path d="M8533 11293 c-15 -5 -18 -33 -4 -33 8 0 25 30 19 35 -2 1 -9 0 -15
-2z"/>
<path d="M8583 11293 c9 -2 23 -2 30 0 6 3 -1 5 -18 5 -16 0 -22 -2 -12 -5z"/>
<path d="M6141 11274 c0 -11 3 -14 6 -6 3 7 2 16 -1 19 -3 4 -6 -2 -5 -13z"/>
<path d="M8489 11213 c-13 -16 -12 -17 4 -4 16 13 21 21 13 21 -2 0 -10 -8
-17 -17z"/>
<path d="M6167 11201 c3 -12 9 -21 13 -21 4 0 10 -13 14 -30 3 -16 10 -30 16
-30 13 0 13 17 0 25 -6 4 -8 10 -5 15 3 5 -6 20 -19 35 -21 23 -24 24 -19 6z"/>
<path d="M6217 11170 c-3 -11 0 -23 5 -27 7 -3 8 -1 4 5 -4 7 -2 12 4 12 6 0
10 -8 9 -17 -2 -10 1 -29 5 -42 6 -18 10 -21 17 -10 7 11 9 10 9 -3 0 -10 4
-18 10 -18 6 0 5 10 -2 25 -6 13 -15 22 -19 19 -5 -3 -9 5 -9 18 0 13 -7 31
-14 41 -13 17 -14 16 -19 -3z"/>
<path d="M7990 11170 c8 -5 26 -10 40 -10 20 0 22 2 10 10 -8 5 -26 10 -40 10
-20 0 -22 -2 -10 -10z"/>
<path d="M8400 11165 c-14 -8 -20 -14 -14 -15 5 0 19 7 30 15 24 18 16 19 -16
0z"/>
<path d="M7840 11156 c0 -12 76 -26 141 -26 37 0 18 16 -34 28 -69 16 -107 15
-107 -2z"/>
<path d="M7655 11140 c-5 -8 126 -2 134 6 2 2 -26 3 -63 3 -36 -1 -68 -5 -71
-9z"/>
<path d="M7553 11123 c-13 -2 -23 -10 -23 -18 0 -16 38 -8 58 12 15 14 11 15
-35 6z"/>
<path d="M7810 11126 c0 -2 7 -6 15 -10 8 -3 15 -1 15 4 0 6 -7 10 -15 10 -8
0 -15 -2 -15 -4z"/>
<path d="M7400 11053 c-47 -25 -78 -43 -68 -40 11 4 15 0 14 -11 -2 -9 -9 -18
-16 -20 -7 -3 -10 0 -6 6 3 6 0 12 -6 14 -19 7 -78 -14 -72 -24 3 -5 -7 -6
-22 -2 -16 4 -25 3 -21 -2 3 -6 -2 -10 -11 -10 -9 -1 -62 -13 -117 -28 -55
-15 -140 -33 -190 -41 -97 -15 -279 -13 -332 4 -24 7 -33 7 -33 -2 0 -7 -4 -6
-10 3 -14 23 -20 7 -7 -20 15 -29 46 -38 159 -46 109 -9 313 13 298 31 -12 14
-3 25 19 24 12 0 10 -3 -4 -8 -19 -8 -19 -8 2 -15 12 -4 31 -2 42 3 15 9 22 6
35 -12 12 -15 18 -18 22 -9 3 6 10 12 14 12 8 0 8 -19 1 -65 -1 -5 -8 1 -17
15 -11 19 -14 20 -10 5 18 -67 48 -279 57 -404 11 -136 7 -354 -7 -411 -6 -24
-6 -25 10 -5 16 19 16 16 12 -55 -4 -56 -2 -69 5 -50 6 14 8 33 5 42 -2 10 0
21 6 24 5 3 7 17 3 31 -3 14 -1 31 6 40 30 35 9 643 -22 643 -5 0 -6 6 -3 13
3 8 -4 56 -15 107 -15 69 -18 97 -10 106 6 8 16 11 21 8 13 -9 98 18 91 29 -3
5 4 6 17 2 17 -5 21 -4 15 5 -5 8 -4 11 3 6 15 -9 125 38 115 49 -5 4 -3 5 4
1 16 -9 63 14 63 31 0 7 5 13 11 13 5 0 7 -5 3 -12 -4 -7 10 -2 31 10 41 25
40 25 71 -30 17 -33 28 -37 19 -8 -8 27 -49 70 -65 70 -10 0 -10 3 0 15 23 28
-21 15 -110 -32z m25 -23 c3 -6 -1 -7 -9 -4 -18 7 -21 14 -7 14 6 0 13 -4 16
-10z m-35 -10 c0 -5 -8 -10 -17 -10 -15 0 -16 2 -3 10 19 12 20 12 20 0z
m-327 -127 c-3 -7 -9 -10 -14 -7 -14 8 -11 21 5 21 8 0 12 -6 9 -14z m-498
-12 c3 -5 2 -12 -3 -15 -5 -3 -9 1 -9 9 0 17 3 19 12 6z m325 -1 c-8 -5 -19
-10 -25 -10 -5 0 -3 5 5 10 8 5 20 10 25 10 6 0 3 -5 -5 -10z m37 -16 c-3 -3
-12 -4 -19 -1 -8 3 -5 6 6 6 11 1 17 -2 13 -5z m240 -601 c-2 -16 -4 -3 -4 27
0 30 2 43 4 28 2 -16 2 -40 0 -55z"/>
<path d="M7570 11090 c-10 -7 4 -8 45 -4 33 4 62 8 64 10 10 9 -95 3 -109 -6z"/>
<path d="M6260 11031 c0 -6 4 -13 10 -16 6 -3 7 1 4 9 -7 18 -14 21 -14 7z"/>
<path d="M7580 11034 c0 -6 7 -19 16 -30 14 -18 14 -18 3 6 -14 31 -19 36 -19
24z"/>
<path d="M6338 10999 c36 -42 24 -56 -17 -18 -12 12 -25 19 -27 16 -3 -3 11
-16 30 -29 20 -14 33 -28 29 -31 -3 -4 7 -5 24 -4 19 3 30 -1 30 -9 0 -6 -7
-10 -16 -7 -9 2 -3 -3 14 -13 32 -18 55 -39 55 -49 0 -3 -5 -3 -12 1 -7 5 -9
2 -5 -8 8 -22 11 -269 3 -288 -3 -8 -4 -37 -2 -65 3 -48 1 -52 -43 -99 -37
-40 -40 -44 -14 -26 26 19 35 21 47 11 11 -9 16 -9 22 0 4 8 3 9 -5 5 -19 -12
-26 25 -8 39 10 7 17 20 17 29 0 10 5 14 10 11 16 -10 12 22 -5 39 -14 14 -14
18 -1 43 8 16 15 22 16 16 0 -7 5 -13 11 -13 15 0 9 282 -6 292 -6 5 -4 8 4 8
11 0 10 4 -5 16 -10 8 -14 13 -8 10 7 -3 9 3 6 19 -5 31 -13 37 -32 24 -10 -6
-11 -9 -2 -9 6 0 12 -5 12 -11 0 -8 -5 -8 -15 1 -10 8 -12 17 -6 24 7 8 0 17
-19 28 -21 12 -32 13 -36 6 -5 -7 -2 -8 6 -3 8 5 11 4 6 -3 -4 -6 -14 -8 -22
-5 -12 5 -13 7 -3 14 8 4 11 9 9 11 -3 2 -18 14 -35 28 l-30 25 23 -26z m149
-241 c-3 -7 -5 -2 -5 12 0 14 2 19 5 13 2 -7 2 -19 0 -25z"/>
<path d="M7570 10965 c0 -5 5 -17 10 -25 5 -8 10 -10 10 -5 0 6 -5 17 -10 25
-5 8 -10 11 -10 5z"/>
<path d="M7620 10955 c0 -5 5 -17 10 -25 5 -8 10 -10 10 -5 0 6 -5 17 -10 25
-5 8 -10 11 -10 5z"/>
<path d="M7596 10911 c-4 -6 -2 -11 4 -11 6 0 9 -4 6 -9 -3 -5 1 -24 9 -42
l14 -34 -2 42 c-3 45 -19 73 -31 54z"/>
<path d="M6283 10870 c-31 -12 -29 -17 7 -17 18 0 27 4 23 11 -3 6 1 4 10 -4
13 -12 14 -22 8 -45 -5 -17 -10 -22 -10 -12 -1 10 -8 20 -16 23 -8 4 -13 9
-10 13 2 4 -13 7 -33 6 -20 0 -36 -5 -34 -10 2 -6 10 -9 18 -7 8 2 14 -2 14
-7 0 -17 -20 -23 -36 -10 -12 10 -17 10 -27 0 -7 -7 -7 -11 -2 -10 15 3 45
-12 45 -22 0 -6 -10 -5 -22 2 -18 10 -20 9 -15 -5 3 -8 2 -18 -3 -21 -6 -4
-10 -12 -10 -18 0 -8 4 -7 9 2 5 8 20 15 33 16 15 1 22 7 20 19 -2 9 1 16 7
16 21 0 41 -13 41 -26 0 -8 5 -14 10 -14 6 0 10 -34 10 -81 0 -47 -4 -78 -9
-74 -5 3 -11 -5 -13 -17 -4 -27 -31 -31 -36 -5 -2 10 3 17 12 17 13 0 16 14
16 81 0 60 -3 80 -12 77 -7 -3 -13 -9 -14 -14 -2 -37 -18 -142 -23 -156 -4
-12 -10 -15 -21 -8 -12 8 -12 10 3 16 23 8 22 39 -3 64 -17 17 -20 17 -20 4 0
-9 -9 -18 -21 -21 -11 -3 -16 -9 -11 -12 14 -9 25 -51 14 -51 -16 0 -23 -32
-11 -46 7 -9 20 -12 33 -8 12 4 18 3 14 -1 -9 -10 35 -45 56 -45 9 0 16 -4 16
-9 0 -9 -35 -4 -55 8 -6 3 1 -4 15 -16 14 -13 34 -23 45 -23 27 1 60 26 45 35
-8 5 -6 13 6 27 16 16 19 44 22 179 3 118 1 159 -7 159 -7 0 -10 4 -6 9 3 5
-5 17 -17 25 -25 18 -25 18 -55 6z m63 -128 c-12 -11 -15 5 -8 44 l7 39 3 -39
c2 -21 1 -41 -2 -44z m3 -210 c1 -13 -6 -30 -14 -39 -8 -8 -13 -19 -10 -24 4
-5 1 -9 -5 -9 -8 0 -9 6 -4 18 4 9 10 40 12 67 3 38 7 45 13 30 4 -11 8 -30 8
-43z m-139 13 c0 -8 -4 -15 -9 -15 -13 0 -22 16 -14 24 11 11 23 6 23 -9z m99
-51 c2 -2 -12 -4 -32 -4 -20 0 -39 5 -42 11 -5 7 5 8 32 3 21 -4 40 -8 42 -10z"/>
<path d="M7661 10843 c-1 -12 4 -25 9 -28 12 -7 12 2 0 30 -8 19 -9 19 -9 -2z"/>
<path d="M7601 10768 c-13 -16 -45 -41 -72 -57 -27 -15 -46 -31 -42 -35 4 -4
0 -4 -9 -1 -8 3 -22 0 -29 -7 -8 -7 -21 -14 -29 -16 -8 -2 -21 -8 -30 -12 -27
-16 81 0 150 22 77 24 89 33 71 51 -11 10 -13 10 -7 0 4 -8 1 -13 -8 -13 -9 0
-19 0 -23 -1 -4 0 -9 5 -12 12 -2 8 2 10 13 6 11 -4 15 -3 10 4 -3 6 6 21 21
33 15 12 26 27 24 33 -2 5 -15 -3 -28 -19z m-35 -79 c4 -7 0 -9 -14 -5 -11 4
-23 2 -27 -4 -3 -6 -11 -7 -18 -3 -7 4 -4 9 9 14 28 11 42 10 50 -2z m-89 -35
c-3 -3 -12 -4 -19 -1 -8 3 -5 6 6 6 11 1 17 -2 13 -5z"/>
<path d="M6149 10773 c-13 -16 -12 -17 4 -4 16 13 21 21 13 21 -2 0 -10 -8
-17 -17z"/>
<path d="M7680 10770 c0 -5 5 -10 11 -10 5 0 7 5 4 10 -3 6 -8 10 -11 10 -2 0
-4 -4 -4 -10z"/>
<path d="M6130 10725 c-11 -13 -10 -14 4 -9 9 3 16 10 16 15 0 13 -6 11 -20
-6z"/>
<path d="M7627 10715 c2 -7 16 -12 29 -12 18 0 22 3 15 10 -15 15 -50 16 -44
2z"/>
<path d="M7700 10706 c0 -9 5 -16 10 -16 6 0 10 4 10 9 0 6 -4 13 -10 16 -5 3
-10 -1 -10 -9z"/>
<path d="M6116 10685 c10 -8 23 -15 28 -15 6 0 1 7 -10 15 -10 8 -23 15 -28
15 -6 0 -1 -7 10 -15z"/>
<path d="M6172 10654 c-7 -8 -8 -14 -3 -14 10 0 25 19 20 25 -2 1 -10 -3 -17
-11z"/>
<path d="M6733 10630 c-18 -9 -29 -20 -26 -24 4 -4 0 -4 -9 -1 -10 4 -21 -2
-31 -15 -14 -21 -17 -55 -4 -55 12 0 87 50 87 58 0 4 4 6 9 3 5 -3 14 1 22 10
10 12 10 17 -2 29 -12 11 -19 10 -46 -5z m47 -4 c0 -3 -4 -8 -10 -11 -5 -3
-10 -1 -10 4 0 6 5 11 10 11 6 0 10 -2 10 -4z m-86 -45 c3 -5 0 -11 -7 -14 -8
-3 -14 1 -14 9 0 16 13 19 21 5z"/>
<path d="M7698 10638 c-2 -7 -1 -26 3 -43 6 -28 7 -26 8 13 1 42 -3 53 -11 30z"/>
<path d="M7741 10604 c0 -11 3 -14 6 -6 3 7 2 16 -1 19 -3 4 -6 -2 -5 -13z"/>
<path d="M6120 10580 c8 -5 11 -10 6 -10 -5 0 -3 -7 4 -15 9 -11 16 -13 24 -5
10 10 -18 39 -39 40 -5 0 -3 -5 5 -10z"/>
<path d="M6620 10564 c-44 -29 -69 -73 -34 -60 9 3 12 2 9 -4 -4 -6 -14 -9
-23 -8 -9 2 -16 -2 -15 -7 1 -6 -8 -12 -20 -12 -19 -2 -19 0 6 23 38 35 34 40
-7 9 -35 -26 -51 -22 -40 12 5 15 4 15 -5 3 -15 -21 -14 -24 12 -52 l23 -25
60 38 c50 33 59 42 60 69 0 16 0 30 -1 30 0 0 -12 -7 -25 -16z"/>
<path d="M7711 10550 c0 -8 4 -24 9 -35 5 -13 9 -14 9 -5 0 8 -4 24 -9 35 -5
13 -9 14 -9 5z"/>
<path d="M6501 10448 c0 -9 -9 -21 -18 -27 -10 -5 -16 -12 -13 -14 11 -11 42
22 37 40 -4 16 -5 16 -6 1z"/>
<path d="M7781 10444 c0 -11 3 -14 6 -6 3 7 2 16 -1 19 -3 4 -6 -2 -5 -13z"/>
<path d="M7752 10400 c0 -14 2 -19 5 -12 2 6 2 18 0 25 -3 6 -5 1 -5 -13z"/>
<path d="M6387 10337 c4 -6 -1 -8 -11 -4 -11 4 -15 3 -10 -4 4 -6 0 -15 -7
-20 -8 -5 -9 -9 -3 -9 6 0 20 11 32 23 17 18 19 24 8 24 -8 0 -12 -5 -9 -10z"/>
<path d="M7769 10335 c-8 -8 3 -75 12 -75 5 0 9 12 9 28 0 28 -13 56 -21 47z"/>
<path d="M6287 10292 c-28 -29 -35 -52 -16 -52 6 0 9 6 6 14 -5 14 15 40 24
32 2 -2 10 2 16 9 25 27 -5 24 -30 -3z"/>
<path d="M7782 10230 c0 -14 2 -19 5 -12 2 6 2 18 0 25 -3 6 -5 1 -5 -13z"/>
<path d="M7765 10173 c-11 -8 -19 -19 -17 -25 2 -6 -3 -8 -10 -5 -7 2 -19 -2
-26 -9 -11 -12 -10 -15 2 -20 16 -6 12 -24 -5 -24 -6 0 -7 5 -4 10 4 7 -5 9
-27 6 -45 -5 -98 -26 -98 -38 0 -5 -4 -7 -9 -4 -5 4 -20 2 -33 -3 -21 -9 -19
-10 14 -10 20 -1 41 5 45 12 11 17 62 39 75 31 6 -4 5 -10 -3 -16 -11 -7 -9
-8 4 -4 10 3 24 6 31 6 7 0 23 9 36 20 15 13 18 20 9 20 -12 0 -12 2 0 9 7 5
10 14 7 20 -4 6 -1 11 8 11 8 0 18 5 21 11 11 17 1 18 -20 2z"/>
<path d="M7780 10110 c-9 -6 -10 -10 -3 -10 6 0 15 5 18 10 8 12 4 12 -15 0z"/>
<path d="M7628 10063 c7 -3 16 -2 19 1 4 3 -2 6 -13 5 -11 0 -14 -3 -6 -6z"/>
<path d="M7817 10049 c7 -7 15 -10 18 -7 3 3 -2 9 -12 12 -14 6 -15 5 -6 -5z"/>
<path d="M7852 10025 c0 -16 2 -22 5 -12 2 9 2 23 0 30 -3 6 -5 -1 -5 -18z"/>
<path d="M6944 10004 c-19 -16 -23 -22 -10 -18 13 5 17 4 12 -4 -11 -18 11
-23 25 -5 8 10 9 14 2 10 -6 -4 -14 -3 -18 3 -6 9 7 14 28 11 10 -1 9 17 -2
23 -4 3 -21 -6 -37 -20z"/>
<path d="M6890 9980 c-8 -5 -11 -12 -7 -16 4 -4 13 -2 19 4 15 15 7 24 -12 12z"/>
<path d="M7101 9955 c-1 -11 -4 -31 -6 -45 l-6 -25 11 25 c6 13 9 33 7 45 -4
19 -4 19 -6 0z"/>
<path d="M6821 9929 c-13 -10 -19 -19 -14 -19 13 0 49 27 43 33 -3 3 -16 -3
-29 -14z"/>
<path d="M6771 9911 c-8 -5 -9 -11 -3 -15 5 -3 12 1 16 9 6 17 6 18 -13 6z"/>
<path d="M7103 9829 c0 -27 4 -52 9 -55 6 -4 8 2 3 15 -4 12 -2 21 4 21 15 0
14 39 -2 55 -11 10 -13 4 -14 -36z"/>
<path d="M6740 9840 c-9 -6 -10 -10 -3 -10 6 0 15 5 18 10 8 12 4 12 -15 0z"/>
<path d="M6610 9825 c-33 -19 -21 -19 21 0 19 8 27 14 19 14 -8 0 -26 -6 -40
-14z"/>
<path d="M6679 9813 c-13 -15 -12 -15 11 -3 34 17 36 20 18 20 -9 0 -22 -7
-29 -17z"/>
<path d="M6465 9770 c-16 -7 -17 -9 -3 -9 9 -1 20 4 23 9 7 11 7 11 -20 0z"/>
<path d="M7056 9754 c-4 -14 -5 -28 -3 -31 3 -2 8 8 11 23 4 14 5 28 3 31 -3
2 -8 -8 -11 -23z"/>
<path d="M7097 9741 c-4 -17 -3 -21 5 -13 5 5 8 16 6 23 -3 8 -7 3 -11 -10z"/>
<path d="M6137 9708 c-5 -21 -5 -21 7 -6 7 10 17 14 22 9 5 -4 20 -5 34 0 l25
7 -27 1 c-14 1 -33 4 -41 7 -9 3 -16 -3 -20 -18z"/>
<path d="M6260 9720 c-13 -9 -13 -10 0 -9 8 0 24 4 35 9 l20 9 -20 0 c-11 0
-27 -4 -35 -9z"/>
<path d="M6405 9710 c3 -5 10 -10 16 -10 5 0 9 5 9 10 0 6 -7 10 -16 10 -8 0
-12 -4 -9 -10z"/>
<path d="M7070 9690 c-8 -15 -9 -25 -1 -33 7 -7 12 -2 17 17 8 35 -1 44 -16
16z"/>
<path d="M5835 9689 c-3 -4 2 -6 10 -5 21 3 28 13 10 13 -9 0 -18 -4 -20 -8z"/>
<path d="M6186 9691 c-3 -5 3 -11 13 -14 14 -3 18 -1 14 9 -6 16 -19 18 -27 5z"/>
<path d="M7802 9664 c-20 -79 -22 -94 -14 -94 8 0 33 121 26 129 -1 1 -7 -14
-12 -35z"/>
<path d="M6109 9680 c-1 -6 -2 -16 -3 -22 -1 -7 -7 -12 -14 -11 -6 2 -20 -9
-29 -25 -10 -15 -31 -38 -46 -51 -20 -17 -27 -31 -24 -47 2 -13 0 -21 -4 -18
-5 3 -17 0 -26 -6 -17 -11 -17 -11 0 -6 11 3 20 0 23 -9 5 -11 14 -5 35 22 17
21 36 46 44 56 14 16 11 21 -7 18 -4 0 -4 7 -1 16 4 11 8 13 11 5 7 -21 26
-11 65 33 26 30 34 45 26 51 -7 4 -9 3 -5 -4 3 -6 2 -13 -4 -17 -5 -3 -10 -2
-10 3 0 13 -30 24 -31 12z m10 -46 c-23 -24 -49 -32 -49 -15 0 5 10 11 23 13
13 2 22 10 21 20 -1 10 4 14 13 11 11 -4 10 -10 -8 -29z m-82 -73 c1 -11 -4
-25 -12 -31 -22 -18 -30 8 -9 31 21 23 19 23 21 0z"/>
<path d="M7026 9665 c-9 -26 -7 -32 5 -12 6 10 9 21 6 23 -2 3 -7 -2 -11 -11z"/>
<path d="M6280 9649 c0 -5 5 -7 10 -4 6 3 10 8 10 11 0 2 -4 4 -10 4 -5 0 -10
-5 -10 -11z"/>
<path d="M7821 9644 c0 -11 3 -14 6 -6 3 7 2 16 -1 19 -3 4 -6 -2 -5 -13z"/>
<path d="M5780 9620 c0 -5 5 -10 11 -10 5 0 7 5 4 10 -3 6 -8 10 -11 10 -2 0
-4 -4 -4 -10z"/>
<path d="M6210 9590 c-6 -11 -8 -20 -6 -20 3 0 10 9 16 20 6 11 8 20 6 20 -3
0 -10 -9 -16 -20z"/>
<path d="M5650 9590 c0 -6 8 -10 18 -10 10 0 23 -5 28 -10 7 -7 11 -6 11 5 0
8 -2 13 -5 11 -2 -3 -15 -1 -28 4 -15 6 -24 6 -24 0z"/>
<path d="M6996 9583 c-6 -14 -5 -15 5 -6 7 7 10 15 7 18 -3 3 -9 -2 -12 -12z"/>
<path d="M5745 9581 c-3 -5 -2 -12 3 -15 5 -3 9 1 9 9 0 17 -3 19 -12 6z"/>
<path d="M6240 9569 c0 -5 5 -7 10 -4 6 3 10 8 10 11 0 2 -4 4 -10 4 -5 0 -10
-5 -10 -11z"/>
<path d="M7764 9544 c-18 -14 -18 -15 4 -4 12 6 22 13 22 15 0 8 -5 6 -26 -11z"/>
<path d="M7812 9525 c0 -16 2 -22 5 -12 2 9 2 23 0 30 -3 6 -5 -1 -5 -18z"/>
<path d="M7680 9510 c-30 -11 -50 -19 -43 -19 6 -1 19 -4 29 -8 12 -4 15 -3
10 5 -9 15 -1 15 40 0 30 -11 31 -13 16 -26 -9 -7 -12 -11 -5 -7 8 4 12 -4 10
-25 -1 -16 -5 -30 -8 -30 -3 0 -11 -11 -17 -25 -7 -15 -8 -25 -2 -25 6 0 10 5
10 10 0 6 9 21 20 32 15 17 17 24 8 30 -9 5 -9 8 -1 8 6 0 9 9 6 20 -4 14 0
20 11 20 9 0 16 5 16 10 0 6 -6 10 -12 9 -7 -1 -22 -1 -33 1 l-20 1 20 9 c11
5 14 9 7 9 -7 1 -10 6 -7 11 3 6 5 10 3 9 -2 -1 -28 -9 -58 -19z"/>
<path d="M6215 9509 c-4 -6 -5 -12 -2 -15 2 -3 7 2 10 11 7 17 1 20 -8 4z"/>
<path d="M6991 9506 c-12 -14 -12 -19 -1 -29 9 -8 11 -9 6 0 -3 6 -1 13 5 15
7 2 10 10 8 17 -4 10 -8 9 -18 -3z"/>
<path d="M6160 9490 c-8 -5 -11 -12 -7 -16 4 -4 13 -2 19 4 15 15 7 24 -12 12z"/>
<path d="M6946 9483 c-6 -14 -5 -15 5 -6 7 7 10 15 7 18 -3 3 -9 -2 -12 -12z"/>
<path d="M7556 9482 c-2 -4 11 -6 30 -4 19 2 34 6 34 8 0 8 -59 4 -64 -4z"/>
<path d="M7495 9470 c3 -5 10 -10 16 -10 5 0 9 5 9 10 0 6 -7 10 -16 10 -8 0
-12 -4 -9 -10z"/>
<path d="M7795 9421 c-4 -33 -3 -67 2 -75 6 -10 9 10 11 59 1 41 0 75 -2 75
-2 0 -7 -27 -11 -59z"/>
<path d="M7680 9466 c0 -2 7 -6 15 -10 8 -3 15 -1 15 4 0 6 -7 10 -15 10 -8 0
-15 -2 -15 -4z"/>
<path d="M5931 9443 c7 -12 16 -19 19 -15 3 4 10 11 15 15 6 5 3 7 -6 4 -9 -3
-22 0 -29 6 -9 8 -8 5 1 -10z"/>
<path d="M6124 9438 l-19 -23 23 19 c21 18 27 26 19 26 -2 0 -12 -10 -23 -22z"/>
<path d="M6960 9445 c-11 -13 -15 -13 -21 -3 -5 8 -8 1 -6 -19 2 -34 4 -33 46
20 17 21 -2 23 -19 2z"/>
<path d="M6904 9413 c-4 -10 -9 -22 -9 -28 -4 -25 -18 -44 -27 -39 -6 4 -9 1
-6 -7 6 -19 34 -18 30 2 -1 10 5 15 19 15 12 -1 24 5 26 12 3 6 0 12 -7 12 -6
0 -8 -6 -4 -12 4 -7 -1 -5 -11 4 -15 14 -16 20 -5 33 7 8 11 18 8 21 -3 3 -9
-3 -14 -13z"/>
<path d="M6128 9373 c-18 -21 -31 -43 -25 -43 2 0 13 14 25 30 25 33 24 41 0
13z"/>
<path d="M5889 9363 c-13 -16 -12 -17 4 -4 9 7 17 15 17 17 0 8 -8 3 -21 -13z"/>
<path d="M7706 9323 c2 -7 -2 -13 -8 -13 -7 0 -7 -4 1 -14 9 -10 8 -15 -4 -20
-11 -4 -15 1 -15 17 0 22 -1 22 -19 -3 -11 -13 -17 -28 -15 -32 2 -4 -3 -11
-13 -16 -14 -8 -15 -13 -4 -26 12 -15 7 -40 -7 -32 -4 2 -16 -6 -27 -17 -11
-11 -14 -17 -5 -13 8 4 6 -1 -5 -11 -12 -10 -27 -27 -35 -37 -15 -19 -14 -19
13 -1 31 20 127 132 148 173 8 15 18 30 24 34 6 5 3 8 -7 8 -9 0 -18 3 -21 8
-2 4 -2 1 -1 -5z m-26 -69 c0 -8 -5 -13 -11 -11 -6 1 -14 -4 -17 -12 -3 -9 0
-11 8 -6 8 5 11 4 6 -3 -4 -6 -13 -9 -22 -5 -13 5 -13 8 2 24 9 11 14 19 10
19 -4 0 -4 5 -1 10 8 13 25 3 25 -16z"/>
<path d="M6844 9289 c-3 -6 -1 -16 5 -22 9 -9 10 -7 5 7 -6 15 -4 17 6 11 9
-5 11 -4 6 3 -9 15 -13 15 -22 1z"/>
<path d="M5945 9228 c-27 -29 -43 -47 -35 -40 16 14 34 16 25 3 -7 -12 12 -24
25 -16 8 5 7 11 -1 21 -9 12 -8 19 8 37 21 23 37 47 31 47 -2 0 -26 -24 -53
-52z"/>
<path d="M6774 9238 l-29 -33 33 29 c30 28 37 36 29 36 -2 0 -16 -15 -33 -32z"/>
<path d="M5816 9225 c4 -8 8 -15 10 -15 2 0 4 7 4 15 0 8 -4 15 -10 15 -5 0
-7 -7 -4 -15z"/>
<path d="M7584 9195 c-10 -8 -14 -15 -8 -15 6 0 17 7 24 15 16 19 9 19 -16 0z"/>
<path d="M6714 9178 l-19 -23 23 19 c21 18 27 26 19 26 -2 0 -12 -10 -23 -22z"/>
<path d="M7549 9153 c-13 -16 -12 -17 4 -4 9 7 17 15 17 17 0 8 -8 3 -21 -13z"/>
<path d="M7493 9104 l-28 -26 33 22 c29 20 39 30 28 30 -3 0 -18 -12 -33 -26z"/>
<path d="M7498 9064 c-38 -20 -36 -28 2 -9 17 9 30 18 30 20 0 7 -1 6 -32 -11z"/>
<path d="M7405 9039 c-5 -7 -4 -10 3 -5 6 3 13 2 17 -3 3 -5 -3 -14 -12 -20
-10 -5 -14 -13 -9 -18 5 -4 11 -2 13 5 3 6 10 9 15 6 7 -5 8 -2 3 6 -6 10 -4
12 8 7 9 -3 19 -2 22 3 4 6 -2 10 -12 10 -11 0 -24 5 -30 11 -8 8 -13 7 -18
-2z"/>
<path d="M7370 9020 c-13 -8 -12 -10 3 -10 9 0 17 5 17 10 0 12 -1 12 -20 0z"/>
<path d="M7380 8981 c0 -7 -4 -9 -10 -6 -5 3 -22 -6 -37 -21 -23 -21 -24 -24
-6 -15 12 6 25 16 28 21 4 6 10 8 15 5 10 -6 25 14 16 22 -3 4 -6 1 -6 -6z"/>
<path d="M7767 8961 c-4 -18 -7 -66 -7 -105 l0 -72 48 -24 c26 -13 57 -23 70
-22 15 1 21 -2 16 -10 -4 -7 -3 -8 4 -4 7 4 12 1 12 -7 0 -7 7 -14 15 -14 17
0 9 17 -19 37 -20 14 -25 16 -47 19 -5 0 -7 7 -3 14 6 9 4 9 -8 -1 -18 -15
-48 -6 -48 15 0 8 5 11 12 7 7 -5 8 -3 3 6 -6 10 -11 9 -22 -5 -7 -11 -13 -17
-14 -14 -8 40 -8 69 0 69 12 0 13 46 2 105 l-7 40 -7 -34z"/>
<path d="M7270 8960 c-9 -6 -10 -10 -3 -10 6 0 15 5 18 10 8 12 4 12 -15 0z"/>
<path d="M7225 8940 c-3 -6 1 -7 9 -4 18 7 21 14 7 14 -6 0 -13 -4 -16 -10z"/>
<path d="M7261 8874 c0 -11 3 -14 6 -6 3 7 2 16 -1 19 -3 4 -6 -2 -5 -13z"/>
<path d="M7303 8840 c0 -30 2 -43 4 -27 2 15 2 39 0 55 -2 15 -4 2 -4 -28z"/>
<path d="M7155 8870 c-3 -6 1 -7 9 -4 18 7 21 14 7 14 -6 0 -13 -4 -16 -10z"/>
<path d="M7075 8840 c-3 -5 -1 -10 4 -10 6 0 11 5 11 10 0 6 -2 10 -4 10 -3 0
-8 -4 -11 -10z"/>
<path d="M6120 8829 c11 -8 8 -9 -13 -4 -19 4 -26 2 -22 -5 3 -5 0 -10 -7 -10
-24 0 -68 -24 -68 -37 0 -8 -12 -13 -29 -13 -15 0 -50 -3 -76 -7 -33 -4 -46
-3 -41 5 3 6 -2 12 -11 14 -24 5 -93 -12 -93 -23 0 -5 12 -6 27 -3 15 4 32 6
38 5 38 -7 190 -12 213 -6 24 6 25 8 8 14 -17 6 -15 10 15 28 19 11 47 23 62
27 33 8 36 26 5 26 -19 0 -20 -2 -8 -11z"/>
<path d="M7020 8820 c0 -5 5 -10 10 -10 6 0 10 5 10 10 0 6 -4 10 -10 10 -5 0
-10 -4 -10 -10z"/>
<path d="M6818 8813 c7 -3 16 -2 19 1 4 3 -2 6 -13 5 -11 0 -14 -3 -6 -6z"/>
<path d="M5966 8795 c-22 -8 -44 -11 -49 -8 -6 3 -7 1 -3 -5 4 -7 25 -12 47
-12 25 0 38 4 34 10 -3 6 4 14 17 19 37 15 -3 12 -46 -4z"/>
<path d="M6768 8803 c6 -2 18 -2 25 0 6 3 1 5 -13 5 -14 0 -19 -2 -12 -5z"/>
<path d="M6948 8803 c7 -3 16 -2 19 1 4 3 -2 6 -13 5 -11 0 -14 -3 -6 -6z"/>
<path d="M6893 8793 c9 -2 23 -2 30 0 6 3 -1 5 -18 5 -16 0 -22 -2 -12 -5z"/>
<path d="M5745 8780 c-13 -6 -15 -9 -5 -9 8 0 22 4 30 9 18 12 2 12 -25 0z"/>
<path d="M6628 8783 c12 -2 30 -2 40 0 9 3 -1 5 -23 4 -22 0 -30 -2 -17 -4z"/>
<path d="M6507 8760 c5 -18 -5 -25 -29 -21 -5 0 -8 -4 -8 -9 0 -6 16 -8 43 -4
46 7 59 14 39 21 -10 4 -10 8 -1 19 9 11 6 14 -19 14 -25 0 -29 -3 -25 -20z"/>
<path d="M6785 8770 c-14 -7 -8 -8 20 -3 22 3 42 7 44 9 9 8 -45 2 -64 -6z"/>
<path d="M6698 8753 c12 -2 30 -2 40 0 9 3 -1 5 -23 4 -22 0 -30 -2 -17 -4z"/>
<path d="M5180 8739 c0 -5 -5 -7 -12 -3 -7 4 -8 3 -4 -4 10 -17 46 -15 46 3 0
8 -7 15 -15 15 -8 0 -15 -5 -15 -11z"/>
<path d="M6150 8730 c-8 -5 -10 -10 -5 -10 6 0 17 5 25 10 8 5 11 10 5 10 -5
0 -17 -5 -25 -10z"/>
<path d="M6578 8733 c7 -3 16 -2 19 1 4 3 -2 6 -13 5 -11 0 -14 -3 -6 -6z"/>
<path d="M7317 8723 c-4 -3 -7 -11 -7 -17 0 -6 5 -5 12 2 6 6 9 14 7 17 -3 3
-9 2 -12 -2z"/>
<path d="M5207 8691 c5 -19 1 -21 -41 -21 -37 0 -46 -3 -46 -18 0 -22 -48 -74
-61 -67 -5 4 -9 13 -9 21 0 8 -5 12 -10 9 -7 -4 -7 -12 0 -25 14 -26 13 -28
-16 -55 -26 -24 -27 -55 -3 -55 6 0 9 6 6 14 -3 8 14 34 41 62 33 33 48 42 50
32 4 -18 -53 -78 -74 -78 -9 0 -12 -5 -9 -10 3 -6 17 -7 30 -4 13 3 33 0 45
-6 12 -7 20 -8 17 -3 -3 5 16 8 43 7 30 -2 49 1 47 8 -3 17 47 20 59 4 8 -12
10 -5 9 28 -2 34 1 43 14 42 9 0 15 5 14 12 -2 6 2 12 7 12 7 0 7 6 1 19 -8
14 -7 20 4 25 8 3 15 10 15 16 0 18 -27 11 -43 -12 l-16 -23 0 31 c-1 31 -22
51 -42 38 -6 -3 -16 -1 -24 6 -11 9 -12 7 -8 -9z m-90 -188 c-3 -3 -11 -2 -17
2 -8 5 -7 11 2 22 12 15 13 14 16 -1 2 -10 1 -20 -1 -23z m76 0 c-7 -2 -19 -2
-25 0 -7 3 -2 5 12 5 14 0 19 -2 13 -5z"/>
<path d="M6440 8700 c0 -5 5 -10 11 -10 5 0 7 5 4 10 -3 6 -8 10 -11 10 -2 0
-4 -4 -4 -10z"/>
<path d="M7970 8670 c-9 -16 -8 -22 5 -26 9 -4 19 -4 22 0 4 3 0 6 -8 6 -11 0
-11 2 1 10 11 7 11 10 2 10 -7 0 -10 5 -7 10 3 6 4 10 1 10 -3 0 -10 -9 -16
-20z"/>
<path d="M6445 8670 c3 -5 8 -10 11 -10 2 0 4 5 4 10 0 6 -5 10 -11 10 -5 0
-7 -4 -4 -10z"/>
<path d="M5382 8658 c2 -7 -3 -12 -9 -10 -18 3 -16 -10 3 -34 15 -18 15 -18
10 0 -4 10 -2 24 4 31 8 9 8 15 0 20 -6 4 -9 1 -8 -7z"/>
<path d="M7310 8651 c5 -11 15 -23 21 -27 6 -3 3 5 -6 20 -20 30 -30 35 -15 7z"/>
<path d="M7644 8621 c3 -4 55 -8 115 -7 179 2 114 -9 -92 -15 l-192 -5 225 -1
c133 -1 217 2 205 7 -11 5 -15 9 -10 10 6 1 1 5 -10 10 -26 11 -248 13 -241 1z"/>
<path d="M5349 8618 c-1 -2 -2 -15 -3 -30 -1 -20 1 -24 10 -17 7 5 10 19 7 29
-5 18 -11 25 -14 18z"/>
<path d="M7045 8610 c3 -5 8 -10 11 -10 2 0 4 5 4 10 0 6 -5 10 -11 10 -5 0
-7 -4 -4 -10z"/>
<path d="M4975 8570 c-3 -5 -1 -10 4 -10 6 0 11 5 11 10 0 6 -2 10 -4 10 -3 0
-8 -4 -11 -10z"/>
<path d="M4907 8549 c4 -13 8 -18 11 -10 2 7 -1 18 -6 23 -8 8 -9 4 -5 -13z"/>
<path d="M6410 8565 c0 -5 5 -17 10 -25 5 -8 10 -10 10 -5 0 6 -5 17 -10 25
-5 8 -10 11 -10 5z"/>
<path d="M7061 8567 c2 -1 13 -9 24 -17 19 -14 19 -14 6 3 -7 9 -18 17 -24 17
-6 0 -8 -1 -6 -3z"/>
<path d="M7150 8556 c0 -2 8 -10 18 -17 15 -13 16 -12 3 4 -13 16 -21 21 -21
13z"/>
<path d="M4973 8539 c14 -8 22 -8 30 0 8 8 3 11 -18 11 -26 -1 -28 -2 -12 -11z"/>
<path d="M5310 8540 c-8 -5 -12 -12 -9 -15 4 -3 12 1 19 10 14 17 11 19 -10 5z"/>
<path d="M6456 8533 c-8 -20 9 -40 19 -22 6 8 4 10 -5 4 -9 -5 -10 -2 -5 14 8
25 0 29 -9 4z"/>
<path d="M4887 8503 c-4 -3 -7 -21 -7 -40 0 -28 4 -33 23 -33 20 1 20 2 5 11
-22 12 -24 49 -4 49 8 0 18 5 21 10 7 11 -28 14 -38 3z"/>
<path d="M4955 8490 c-16 -18 -16 -20 -2 -20 10 0 17 -6 17 -12 0 -10 3 -9 9
1 5 7 14 11 20 7 7 -5 9 -1 5 9 -4 9 -13 14 -21 10 -11 -3 -13 -1 -9 10 7 20
3 19 -19 -5z"/>
<path d="M6430 8504 c0 -5 7 -18 15 -28 8 -11 15 -16 15 -10 0 5 -7 18 -15 28
-8 11 -15 16 -15 10z"/>
<path d="M6477 8493 c-4 -3 5 -14 21 -23 37 -23 64 -32 57 -20 -3 6 -11 10
-17 10 -7 0 -21 9 -33 20 -12 11 -25 17 -28 13z"/>
<path d="M5065 8480 c4 -6 11 -8 16 -5 14 9 11 15 -7 15 -8 0 -12 -5 -9 -10z"/>
<path d="M5116 8462 c-2 -4 10 -9 27 -10 24 -2 28 0 17 8 -18 12 -37 13 -44 2z"/>
<path d="M5239 8453 c-13 -16 -12 -17 4 -4 9 7 17 15 17 17 0 8 -8 3 -21 -13z"/>
<path d="M6663 8453 c9 -2 25 -2 35 0 9 3 1 5 -18 5 -19 0 -27 -2 -17 -5z"/>
<path d="M7008 8453 c28 -2 76 -2 105 0 28 2 5 3 -53 3 -58 0 -81 -1 -52 -3z"/>
<path d="M7118 8403 c7 -3 16 -2 19 1 4 3 -2 6 -13 5 -11 0 -14 -3 -6 -6z"/>
</g>
</svg>
