<?xml version="1.0" standalone="no"?>
<!DOCTYPE svg PUBLIC "-//W3C//DTD SVG 20010904//EN"
 "http://www.w3.org/TR/2001/REC-SVG-20010904/DTD/svg10.dtd">
<svg version="1.0" xmlns="http://www.w3.org/2000/svg"
 width="2083.000000pt" height="2083.000000pt" viewBox="0 0 2083.000000 2083.000000"
 preserveAspectRatio="xMidYMid meet">

<g transform="translate(0.000000,2083.000000) scale(0.100000,-0.100000)"
fill="#078EA1" stroke="none">
<path d="M6785 12419 c-171 -22 -313 -203 -386 -492 -13 -50 -27 -87 -34 -87
-7 0 -40 -18 -73 -40 -71 -48 -134 -134 -158 -218 -20 -69 -20 -208 1 -287 20
-78 82 -207 131 -271 36 -49 128 -125 159 -132 22 -5 29 -82 22 -274 l-7 -176
-128 -129 c-134 -134 -223 -253 -262 -352 -16 -41 -56 -92 -167 -215 -83 -91
-153 -160 -162 -159 -9 1 -96 14 -195 29 -198 30 -227 27 -287 -24 -25 -21
-207 -229 -466 -534 -12 -13 -12 -24 -3 -58 11 -39 10 -44 -14 -69 -71 -75
-44 -175 52 -190 35 -6 38 -9 51 -63 l15 -56 -33 -38 c-29 -32 -32 -42 -28
-76 6 -46 29 -75 73 -94 39 -16 97 -3 118 28 15 21 18 21 104 10 49 -7 99 -12
110 -12 14 0 66 51 163 160 79 88 148 160 153 160 6 0 83 -7 171 -15 88 -8
280 -18 426 -21 l266 -7 6 -76 c9 -118 40 -186 97 -216 42 -22 675 -26 708 -5
54 36 15 100 -108 176 l-60 37 0 92 0 91 93 36 c50 19 100 38 110 43 15 6 17
0 17 -61 0 -121 37 -201 106 -230 46 -19 566 -20 604 -1 62 31 23 101 -94 172
l-66 40 0 327 c0 298 2 334 21 410 27 107 37 396 20 549 -33 288 -139 673
-253 921 -12 27 -19 50 -16 53 13 14 216 36 413 45 320 15 389 24 455 57 41
21 61 40 78 71 19 34 29 42 52 42 54 0 192 31 249 56 171 76 187 202 51 398
-96 139 -171 185 -244 151 -26 -13 -63 -54 -101 -113 -1 -1 -28 7 -60 18 -32
11 -72 20 -88 20 -17 0 -55 12 -86 27 -64 32 -157 41 -227 24 -41 -11 -52 -9
-111 15 -69 27 -181 35 -232 17 -17 -7 -44 -2 -99 17 l-75 27 -27 75 c-84 229
-186 362 -296 382 -40 8 -125 -16 -145 -40 -30 -36 -48 -37 -97 -1 -74 53
-125 67 -207 56z m130 -68 c105 -47 222 -221 293 -435 17 -48 35 -93 41 -99 7
-7 32 1 83 27 59 30 89 38 149 43 98 7 188 -20 134 -41 -19 -7 -20 -35 -1 -42
8 -3 38 7 67 23 47 24 66 28 139 28 50 0 98 -6 117 -14 30 -12 31 -14 17 -36
-13 -20 -13 -24 0 -35 12 -10 21 -8 45 9 43 31 107 51 161 51 44 0 110 -16
110 -27 0 -2 -13 -15 -29 -29 -40 -33 -71 -119 -71 -194 0 -102 44 -90 52 14
11 132 79 194 185 169 26 -6 77 -23 112 -38 79 -33 183 -40 189 -12 4 19 -4
23 -70 32 -58 8 -61 21 -15 71 59 65 105 48 193 -72 149 -202 137 -306 -44
-363 -279 -87 -826 -56 -1747 99 -337 57 -355 61 -355 73 0 6 14 22 32 37 48
41 17 69 -37 34 -44 -29 -68 -80 -63 -132 5 -53 44 -122 70 -122 29 0 29 17 3
67 -14 26 -22 49 -16 51 5 2 70 -8 143 -22 177 -34 529 -90 758 -120 278 -37
492 -56 724 -63 l209 -6 -31 -28 c-53 -47 -115 -59 -362 -69 -405 -17 -511
-35 -675 -116 -225 -110 -491 -178 -700 -178 -256 0 -383 73 -480 277 -55 113
-75 190 -75 282 0 232 149 375 388 375 65 0 191 -21 278 -45 67 -20 253 -93
272 -108 17 -13 45 11 36 32 -3 9 -10 59 -15 111 -25 285 -118 440 -263 440
-58 0 -93 -14 -134 -53 -48 -47 -66 -118 -59 -237 l6 -95 -120 0 c-94 0 -119
3 -119 14 0 31 74 231 107 291 46 81 128 163 185 183 59 21 135 20 183 -2z
m353 -15 c68 -36 150 -159 207 -309 31 -83 31 -87 0 -87 -18 0 -28 7 -36 27
-29 77 -80 162 -125 211 -51 53 -52 54 -100 50 -27 -3 -56 -8 -65 -12 -11 -5
-24 3 -43 29 -24 31 -26 38 -14 52 40 49 122 67 176 39z m-320 -163 c60 -45
114 -192 128 -352 l7 -82 -32 13 c-31 13 -32 15 -35 78 -3 77 -19 114 -46 105
-22 -7 -53 33 -48 62 2 14 -4 19 -30 21 -55 5 -94 -42 -107 -129 -6 -39 -10
-46 -26 -42 -24 7 -34 54 -34 163 0 99 19 144 75 173 43 22 111 18 148 -10z
m334 -35 c41 -45 122 -194 112 -209 -14 -23 -40 -6 -58 36 -15 37 -22 44 -38
39 -23 -7 -48 12 -48 37 0 12 -7 19 -20 19 -14 0 -27 14 -42 44 -26 54 -19 76
23 76 25 0 41 -10 71 -42z m303 -1218 c33 -82 42 -116 35 -129 -14 -27 -75
-71 -165 -119 l-80 -43 55 6 c30 4 95 20 143 37 49 16 90 28 92 26 8 -8 66
-222 90 -330 37 -172 36 -179 -26 -219 -28 -18 -88 -48 -133 -66 l-81 -34 75
7 c41 3 105 14 141 23 l67 17 6 -51 c20 -167 -5 -473 -41 -501 -29 -22 -139
-54 -215 -61 -105 -9 -69 -25 72 -31 140 -6 136 1 69 -113 -91 -156 -230 -279
-424 -374 -261 -129 -529 -182 -950 -192 -159 -3 -246 -2 -240 4 6 5 55 25
110 43 377 124 671 366 826 680 94 190 137 354 160 595 19 208 -6 533 -56 724
-9 35 -15 64 -13 65 2 2 58 22 126 45 68 22 162 61 210 85 67 34 89 41 95 31
4 -8 27 -64 52 -125z m-526 -87 c22 -81 51 -281 62 -414 18 -234 -11 -495 -78
-703 -124 -386 -386 -656 -790 -817 -112 -44 -312 -97 -396 -104 -67 -6 -263
8 -275 19 -4 5 72 95 163 195 11 12 55 44 98 72 154 101 310 286 414 492 l52
104 58 12 c145 33 391 144 562 255 68 43 87 71 58 82 -8 3 -53 -20 -101 -50
-261 -164 -564 -273 -699 -252 -124 20 -147 99 -73 252 90 188 321 416 582
576 47 28 88 56 91 61 3 5 -1 16 -9 24 -13 13 -23 10 -84 -27 -38 -24 -98 -62
-133 -87 -35 -24 -64 -43 -65 -41 -1 2 0 88 2 191 3 166 6 188 20 182 74 -28
296 -29 432 -1 98 21 98 21 109 -21z m-984 -1118 l35 -30 -133 -157 c-72 -86
-135 -157 -138 -157 -4 -1 -9 16 -12 37 -4 21 -18 60 -32 87 l-25 49 23 26
c13 14 68 74 122 134 l99 109 14 -34 c7 -19 28 -47 47 -64z m131 -131 c-70
-131 -130 -216 -218 -309 -70 -75 -165 -155 -182 -155 -3 0 -1 11 4 25 5 14
14 52 19 85 10 59 14 64 172 250 l163 190 44 0 44 0 -46 -86z m-784 -21 c54
-49 83 -168 67 -280 -17 -125 -53 -180 -304 -460 -124 -139 -229 -253 -234
-253 -10 0 -134 447 -128 462 3 7 104 128 224 269 136 157 233 262 254 272 40
21 92 16 121 -10z m2331 -481 c-3 -137 -3 -260 0 -274 5 -18 24 -36 59 -56 93
-53 143 -93 127 -103 -8 -5 -131 -9 -274 -9 -238 0 -263 2 -291 19 -42 26 -64
92 -64 191 l0 77 51 27 c132 72 272 200 346 316 21 33 41 60 45 60 4 0 5 -112
1 -248z m-763 -380 l0 -98 95 -62 c52 -35 95 -67 95 -72 0 -6 -119 -10 -315
-10 -357 0 -361 1 -389 70 -13 33 -24 190 -13 190 107 5 471 61 486 76 2 2 13
4 23 4 16 0 18 -10 18 -98z"/>
<path d="M8340 11692 c-23 -19 -45 -102 -34 -134 5 -17 43 -26 45 -10 1 4 3
21 5 37 9 83 23 91 95 55 43 -22 59 -20 59 9 0 22 -76 61 -119 61 -16 0 -39
-8 -51 -18z"/>
<path d="M9890 10430 l0 -510 -350 0 -350 0 0 135 0 135 250 0 250 0 0 360 0
360 -380 0 -380 0 0 -115 0 -115 255 0 255 0 0 -135 0 -135 -250 0 -250 0 0
-360 0 -360 475 0 475 0 0 -30 0 -30 125 0 125 0 0 655 0 655 -125 0 -125 0 0
-510z"/>
<path d="M12570 10695 l0 -245 -60 0 -60 0 0 230 0 230 -295 0 -295 0 0 -610
0 -610 295 0 295 0 0 265 0 265 60 0 60 0 0 -295 0 -295 115 0 115 0 0 655 0
655 -115 0 -115 0 0 -245z m-350 -395 l0 -380 -65 0 -65 0 0 380 0 380 65 0
65 0 0 -380z"/>
<path d="M12890 10280 l0 -660 125 0 125 0 0 660 0 660 -125 0 -125 0 0 -660z"/>
<path d="M14320 10280 l0 -660 135 0 135 0 0 660 0 660 -135 0 -135 0 0 -660z"/>
<path d="M10430 10585 l0 -335 585 0 585 0 0 335 0 335 -120 0 -119 0 -3 -57
-3 -58 -337 -3 -338 -2 0 60 0 60 -125 0 -125 0 0 -335z m930 -60 l0 -65 -340
0 -340 0 0 65 0 65 340 0 340 0 0 -65z"/>
<path d="M13653 10906 c-59 -19 -104 -49 -155 -103 -97 -104 -138 -254 -138
-503 0 -262 46 -416 156 -520 82 -77 128 -95 249 -95 82 0 109 4 147 22 111
51 198 173 235 330 26 111 26 415 0 526 -37 157 -125 280 -235 330 -59 26
-197 33 -259 13z m168 -233 c36 -21 75 -97 89 -172 13 -72 13 -318 -1 -400
-13 -75 -41 -140 -71 -168 -14 -13 -36 -18 -75 -18 -51 0 -58 3 -84 35 -38 45
-57 109 -70 235 -24 230 25 463 104 495 35 14 77 11 108 -7z"/>
<path d="M14870 10475 l0 -435 585 0 585 0 0 110 0 110 -460 0 -460 0 0 55 0
55 460 0 460 0 0 105 0 105 -460 0 -460 0 0 55 0 55 460 0 460 0 0 110 0 110
-585 0 -585 0 0 -435z"/>
<path d="M6161 10789 c-101 -90 -122 -122 -105 -160 13 -28 195 -188 222 -195
30 -8 67 11 81 43 7 14 11 89 11 187 0 150 -2 165 -21 190 -15 19 -30 26 -54
26 -28 0 -50 -15 -134 -91z"/>
<path d="M10360 10025 l0 -115 140 0 140 0 0 -155 0 -155 125 0 125 0 0 155 0
155 395 0 395 0 0 115 0 115 -660 0 -660 0 0 -115z"/>
<path d="M14790 9790 l0 -120 665 0 665 0 0 120 0 120 -665 0 -665 0 0 -120z"/>
<path d="M11140 9715 l0 -125 130 0 130 0 0 125 0 125 -130 0 -130 0 0 -125z"/>
<path d="M11760 9035 l0 -225 35 0 35 0 0 225 0 225 -35 0 -35 0 0 -225z"/>
<path d="M10660 9035 l0 -215 25 0 25 0 0 100 0 100 61 0 c81 0 97 -10 103
-65 19 -148 14 -135 47 -135 28 0 30 2 25 28 -3 15 -8 54 -12 87 -5 45 -13 66
-33 85 l-26 26 33 31 c36 34 41 67 17 112 -23 45 -70 61 -174 61 l-91 0 0
-215z m202 148 c22 -20 23 -70 1 -95 -13 -14 -31 -18 -85 -18 l-68 0 0 65 0
65 67 0 c48 0 72 -5 85 -17z"/>
<path d="M11044 9237 c-2 -7 -3 -102 -2 -212 l3 -200 133 -3 c127 -2 132 -2
132 18 0 19 -6 20 -105 20 l-105 0 0 80 0 80 100 0 c93 0 100 1 100 20 0 19
-7 20 -100 20 l-100 0 0 70 0 70 100 0 100 0 0 25 0 25 -125 0 c-93 0 -127 -3
-131 -13z"/>
<path d="M11350 9243 c0 -5 33 -100 73 -213 72 -204 73 -205 104 -208 29 -3
32 0 51 55 11 32 45 129 76 216 l56 158 -31 -3 c-31 -3 -32 -5 -86 -163 -30
-88 -58 -164 -63 -168 -4 -5 -33 68 -65 162 -56 169 -57 171 -86 171 -16 0
-29 -3 -29 -7z"/>
<path d="M11930 9035 l0 -215 135 0 c128 0 135 1 135 20 0 18 -8 20 -107 22
l-108 3 0 75 0 75 98 3 c88 2 97 4 97 22 0 18 -9 20 -97 22 l-98 3 -3 68 -3
67 106 0 105 0 0 25 0 25 -130 0 -130 0 0 -215z"/>
<path d="M12294 9036 l61 -216 31 0 31 0 49 170 c26 93 50 167 53 164 3 -3 27
-78 52 -167 l46 -162 31 -3 c30 -3 31 -2 51 65 61 207 101 347 101 355 0 4
-13 8 -29 8 -28 0 -28 0 -71 -162 -24 -90 -46 -166 -49 -170 -3 -4 -28 70 -55
163 l-49 170 -30 -3 c-30 -3 -31 -4 -78 -166 -26 -90 -49 -166 -52 -168 -2 -2
-24 71 -48 163 l-44 168 -31 3 -31 3 61 -215z"/>
<path d="M13030 9036 l0 -216 25 0 25 0 0 172 c0 94 3 168 8 164 4 -4 32 -80
62 -169 54 -160 55 -162 84 -162 29 0 30 2 87 170 l57 170 1 -172 1 -173 30 0
30 0 -2 213 -3 212 -36 3 -35 3 -65 -185 c-35 -102 -65 -182 -67 -178 -2 4
-31 86 -65 182 l-62 175 -37 3 -38 3 0 -215z"/>
<path d="M13645 9233 c-8 -22 -87 -231 -126 -335 l-28 -78 29 0 c25 0 31 6 48
53 l20 52 92 0 93 0 20 -52 c17 -47 23 -53 48 -53 l29 0 -22 58 c-12 31 -47
127 -79 212 -55 150 -58 155 -87 158 -21 2 -31 -2 -37 -15z m69 -145 c16 -46
31 -89 34 -95 3 -10 -15 -13 -68 -13 -54 0 -71 3 -68 13 3 6 18 49 34 94 16
46 31 83 34 83 3 0 18 -37 34 -82z"/>
<path d="M13840 9225 c0 -24 2 -25 65 -25 l65 0 0 -190 0 -190 30 0 30 0 0
190 0 190 65 0 c63 0 65 1 65 25 l0 25 -160 0 -160 0 0 -25z"/>
<path d="M14220 9035 l0 -215 130 0 c123 0 130 1 130 20 0 18 -8 20 -102 22
l-103 3 -3 78 -3 77 101 0 c93 0 100 1 100 20 0 18 -8 20 -97 22 l-98 3 -3 68
-3 67 101 0 100 0 0 25 0 25 -125 0 -125 0 0 -215z"/>
</g>
</svg>
