<?xml version="1.0" standalone="no"?>
<!DOCTYPE svg PUBLIC "-//W3C//DTD SVG 20010904//EN"
 "http://www.w3.org/TR/2001/REC-SVG-20010904/DTD/svg10.dtd">
<svg version="1.0" xmlns="http://www.w3.org/2000/svg"
 width="1107.000000pt" height="268.000000pt" viewBox="0 0 1107.000000 268.000000"
 preserveAspectRatio="xMidYMid meet">

<g transform="translate(0.000000,268.000000) scale(0.100000,-0.100000)"
fill="#088EA2" stroke="none">
<path d="M1292 2595 c-24 -15 -39 -31 -36 -37 4 -6 3 -8 -3 -5 -14 9 -47 -29
-37 -44 4 -8 3 -10 -5 -5 -14 9 -62 -90 -87 -180 -10 -39 -24 -68 -33 -71 -33
-12 -82 -55 -77 -69 3 -9 0 -11 -11 -7 -11 5 -14 1 -9 -13 3 -10 1 -26 -5 -34
-8 -12 -9 -9 -4 10 6 24 6 24 -10 5 -8 -11 -13 -25 -11 -32 3 -6 1 -13 -4 -15
-6 -2 -13 -32 -16 -67 -4 -38 -3 -62 2 -59 5 3 10 -13 10 -36 1 -51 49 -160
66 -150 8 5 9 2 5 -9 -7 -18 70 -101 104 -112 19 -6 20 -14 18 -160 -1 -128
-3 -153 -15 -148 -16 6 -19 -12 -4 -22 11 -7 131 85 125 96 -3 4 0 11 6 15 8
4 9 3 5 -4 -11 -19 9 -14 37 8 14 11 30 20 35 20 15 0 25 18 17 30 -7 12 -131
-64 -128 -78 2 -6 -3 -9 -11 -6 -8 3 -17 1 -21 -5 -16 -27 -20 -3 -18 106 1
80 -1 108 -7 88 l-9 -30 2 29 2 29 160 1 c135 1 164 4 186 19 l26 17 1 -42 c1
-24 6 -44 11 -46 4 -1 6 -14 3 -29 -3 -14 -1 -24 4 -21 11 7 19 -110 18 -262
-1 -164 -8 -270 -16 -257 -5 8 -8 5 -8 -6 0 -23 -59 -197 -72 -214 -5 -7 -6
-18 -2 -25 4 -7 4 -10 -1 -6 -11 10 -38 -29 -30 -42 4 -6 10 -8 15 -5 15 9 81
156 75 166 -4 5 -2 9 3 9 16 0 50 147 62 266 8 80 8 143 1 222 -12 128 -31
242 -41 242 -4 0 -5 11 -2 25 2 15 11 25 21 25 41 0 243 88 235 102 -3 5 3 4
15 -4 11 -7 20 -17 19 -23 -1 -5 9 -40 22 -78 17 -45 29 -66 38 -62 10 3 11
-1 7 -16 -5 -15 -4 -19 4 -15 6 4 11 2 11 -3 0 -15 -37 -14 -46 1 -4 7 -3 8 4
4 7 -4 12 -2 12 3 0 17 -15 13 -33 -7 -10 -10 -14 -22 -10 -27 5 -4 3 -5 -4
-1 -7 4 -34 -5 -60 -19 -26 -14 -41 -25 -32 -25 21 0 122 30 134 40 10 8 40
-2 34 -11 -1 -2 12 -62 29 -134 17 -71 33 -143 35 -160 3 -16 8 -39 11 -50 5
-15 4 -15 -5 3 -13 25 -34 31 -25 6 3 -8 2 -13 -3 -10 -5 4 -33 -5 -63 -19
l-53 -25 50 6 c28 4 61 8 75 8 l25 1 0 -125 c0 -137 -7 -230 -16 -225 -3 2
-25 -3 -50 -11 -24 -9 -62 -18 -83 -20 -59 -6 -53 -10 21 -17 42 -4 69 -3 71
3 2 6 7 10 12 10 5 0 5 -14 0 -31 -5 -18 -7 -37 -3 -43 3 -6 3 -8 -2 -4 -10
10 -34 -21 -35 -45 0 -9 -5 -16 -11 -15 -6 2 -13 -2 -16 -9 -2 -6 2 -11 9 -9
25 3 39 18 33 34 -3 9 -3 13 1 9 4 -4 15 4 23 17 15 22 16 11 13 -153 l-3
-178 70 -43 c39 -23 71 -43 71 -45 0 -1 -8 -9 -17 -16 -17 -13 -17 -13 -3 6
14 18 14 19 -2 7 -12 -10 -60 -13 -191 -11 l-175 1 -16 37 c-8 20 -16 60 -18
89 l-2 53 68 45 c46 31 65 49 58 56 -7 7 -23 1 -49 -18 -21 -16 -41 -33 -44
-37 -3 -5 -8 -8 -10 -7 -2 0 -29 -10 -59 -23 -30 -13 -72 -30 -92 -36 -21 -7
-38 -16 -38 -19 0 -4 -12 -8 -27 -8 -16 -1 -75 -11 -133 -22 -116 -23 -358
-38 -417 -27 -35 6 -36 8 -19 21 10 7 22 11 27 9 12 -8 170 56 164 66 -4 5 1
6 9 3 8 -3 23 3 34 13 10 10 24 19 31 21 25 5 61 35 54 45 -3 6 -1 7 6 3 15
-9 43 12 34 26 -3 6 0 8 8 5 15 -5 139 118 139 139 0 7 6 14 13 17 9 3 9 8 1
16 -9 9 -21 -1 -50 -41 -21 -29 -37 -57 -36 -61 1 -5 -1 -6 -6 -3 -5 3 -20 -6
-33 -21 -44 -48 -197 -141 -291 -177 -156 -59 -248 -77 -345 -67 -41 4 -60 3
-56 -4 3 -5 -2 -3 -12 7 -16 15 -16 18 16 54 55 63 102 106 178 163 45 33 70
58 67 67 -3 8 0 11 10 7 7 -3 14 0 14 6 0 5 8 18 18 28 37 38 73 94 66 105 -4
6 -3 8 3 5 5 -3 23 22 39 56 32 69 39 77 71 77 12 0 34 5 50 12 15 6 36 13 47
15 28 5 210 98 261 133 47 33 54 65 7 34 -14 -9 -40 -25 -59 -36 -18 -11 -30
-25 -26 -31 4 -6 1 -7 -6 -3 -7 5 -37 -5 -69 -22 -71 -38 -201 -82 -241 -82
-17 0 -31 -3 -31 -7 0 -5 -11 -9 -25 -9 -14 -1 -25 3 -25 8 0 6 -9 8 -21 5
-12 -3 -19 -3 -16 0 3 2 -3 13 -14 24 -26 26 -24 70 6 129 14 27 25 57 25 65
0 9 5 13 10 10 6 -3 10 -2 10 4 0 6 27 39 60 74 33 35 56 68 52 72 -4 5 -2 5
4 2 17 -10 39 19 23 29 -9 5 -37 -18 -82 -67 -72 -78 -101 -121 -89 -134 4 -5
1 -5 -6 -1 -14 8 -44 -54 -44 -91 0 -13 -4 -20 -9 -17 -10 6 -65 -55 -61 -68
1 -4 -2 -7 -7 -6 -5 2 -36 -27 -69 -64 -43 -48 -63 -63 -71 -55 -10 10 -64 19
-191 33 -50 5 -59 3 -98 -26 -24 -17 -42 -33 -40 -36 2 -2 -17 -27 -44 -55
-26 -28 -45 -55 -42 -60 3 -5 0 -8 -6 -7 -7 2 -17 -5 -23 -15 -7 -10 -29 -36
-50 -58 -20 -22 -34 -45 -31 -51 4 -6 3 -8 -3 -5 -18 11 -62 -56 -56 -86 3
-17 -2 -35 -16 -53 -12 -15 -21 -34 -21 -44 0 -20 38 -57 63 -62 25 -4 52 -77
32 -84 -23 -9 -38 -59 -26 -83 23 -43 77 -54 106 -21 13 14 25 18 44 14 20 -4
23 -3 11 5 -22 16 -7 13 26 -4 53 -27 66 -21 160 86 l88 101 101 -7 c55 -4
111 -8 125 -10 14 -1 94 -3 178 -3 l152 -2 0 -33 c0 -18 7 -57 15 -85 24 -79
34 -82 278 -82 166 0 207 3 216 14 9 11 9 20 2 34 -15 28 -79 74 -93 66 -7 -4
-8 -3 -4 4 7 11 -6 17 -29 12 -5 -1 -4 4 3 11 6 7 12 37 12 66 0 34 5 55 13
57 60 19 106 40 101 47 -3 5 2 6 10 3 9 -3 16 -1 16 5 0 5 10 16 23 22 22 11
22 11 -2 -11 -21 -21 -23 -29 -17 -83 7 -69 26 -104 63 -118 16 -6 103 -9 207
-7 166 3 181 4 184 21 5 24 -32 63 -80 88 l-38 19 0 213 c0 157 4 225 15 260
14 47 22 189 16 297 -5 104 -58 363 -72 354 -5 -3 -6 2 -3 10 9 24 -72 250
-87 241 -5 -4 -6 1 -3 10 4 9 -2 23 -15 34 l-21 18 28 0 c15 0 106 7 202 16
96 9 201 17 233 17 62 0 121 20 149 50 19 20 24 40 10 40 -15 0 -43 -36 -35
-44 5 -4 3 -7 -2 -5 -10 2 -85 -11 -96 -17 -3 -2 -80 -5 -170 -8 -189 -5 -297
-25 -382 -68 -90 -45 -255 -96 -349 -107 -107 -13 -168 -18 -162 -12 8 8 -89
29 -105 23 -9 -3 -12 -1 -7 6 4 7 3 12 -3 12 -18 0 -79 60 -104 103 -38 64
-67 160 -67 220 0 58 47 170 76 181 8 3 12 11 9 17 -4 6 -1 9 6 8 8 -1 28 4
44 11 43 19 188 16 265 -4 36 -10 96 -31 133 -47 38 -16 74 -26 79 -23 7 4 4
10 -6 16 -9 5 -16 14 -16 21 0 7 4 6 10 -3 8 -12 10 -11 10 7 0 12 -6 24 -12
26 -8 3 -8 6 -2 6 12 1 -1 107 -19 150 -5 14 -11 31 -12 37 -5 22 -37 63 -60
78 -32 21 -114 21 -121 1 -4 -8 -10 -12 -15 -9 -5 3 -9 -5 -9 -17 0 -22 0 -22
21 -4 20 19 124 32 114 15 -7 -11 20 -31 30 -22 5 4 5 2 1 -5 -4 -7 0 -23 8
-35 17 -25 46 -152 46 -198 0 -23 -4 -27 -20 -23 -20 5 -35 36 -26 52 10 16
-14 69 -31 67 -10 0 -19 9 -23 24 -13 53 -73 20 -86 -47 -3 -18 -12 -33 -20
-33 -20 0 -27 42 -22 120 3 38 1 74 -3 82 -8 13 -13 -3 -12 -39 1 -7 -4 -10
-10 -6 -7 4 -8 -18 -4 -70 l7 -77 -74 0 c-50 0 -76 -4 -80 -12 -2 -7 -4 8 -3
33 1 26 5 45 10 42 4 -2 7 5 7 16 0 11 17 54 39 95 21 41 36 78 32 82 -3 4 -1
4 5 1 6 -4 20 3 30 15 31 35 101 61 143 53 47 -9 41 -6 75 -37 16 -15 34 -24
39 -21 6 3 7 1 4 -4 -4 -6 2 -21 13 -33 11 -13 20 -28 20 -35 0 -6 8 -20 18
-31 10 -10 19 -22 19 -27 6 -34 57 -167 64 -167 6 0 7 5 3 12 -4 7 -3 8 4 4 6
-4 26 1 44 10 36 19 168 35 168 21 0 -5 6 -7 13 -4 8 3 14 -1 14 -8 0 -8 -5
-13 -10 -12 -5 1 -12 -4 -14 -10 -6 -17 16 -16 47 2 28 16 137 20 159 6 8 -5
11 -16 8 -24 -10 -25 5 -28 40 -6 22 14 51 21 89 21 70 1 84 -11 51 -44 -39
-39 -63 -148 -33 -148 9 0 16 17 20 50 4 31 16 60 30 77 20 24 31 28 69 26 25
-1 59 -9 76 -18 29 -15 46 -19 105 -27 10 -2 21 3 24 10 2 9 -3 13 -14 12 -11
-1 -22 -1 -26 0 -5 1 -13 3 -20 4 -36 4 10 76 50 76 24 0 83 -62 119 -127 16
-29 32 -50 35 -47 7 6 -6 -52 -17 -78 -3 -9 -13 -19 -21 -22 -9 -3 -12 -11 -8
-17 4 -8 3 -9 -4 -5 -7 4 -18 4 -24 -1 -7 -4 -17 -8 -23 -9 -5 -1 -36 -7 -69
-14 -169 -35 -693 9 -1134 96 -41 7 -77 12 -80 10 -4 -2 -18 0 -31 5 l-24 9
21 23 c38 40 22 52 -19 16 -13 -11 -17 -18 -9 -14 10 4 9 2 -2 -8 -10 -8 -18
-26 -18 -41 0 -31 26 -86 40 -86 13 0 13 16 -1 41 -21 39 -6 50 48 34 59 -17
221 -44 284 -47 26 -2 45 -5 44 -8 -4 -6 91 -20 305 -46 178 -21 451 -30 479
-14 13 7 21 7 17 1 -8 -12 72 -5 124 12 19 6 39 10 43 9 5 -1 5 3 1 9 -4 7 -2
10 7 7 20 -7 51 11 43 24 -4 6 -3 8 3 5 19 -12 41 27 41 73 0 40 -29 120 -44
120 -3 0 -2 -5 2 -12 4 -7 3 -8 -4 -4 -6 4 -9 13 -6 21 7 17 -87 115 -110 115
-28 0 -63 -22 -79 -49 -9 -16 -14 -31 -11 -33 3 -3 -7 -5 -20 -5 -15 0 -23 4
-19 10 4 6 -2 8 -15 5 -14 -4 -20 -2 -16 4 5 7 -9 9 -41 6 -27 -4 -42 -2 -34
3 10 6 9 9 -6 14 -11 4 -29 11 -41 17 -11 5 -54 9 -95 8 -93 -1 -129 3 -122
14 3 5 -25 6 -63 3 -73 -5 -164 17 -164 39 0 22 -37 94 -44 87 -4 -4 -5 -1 -1
7 7 20 -62 130 -81 130 -9 0 -13 4 -9 10 8 12 -47 40 -80 40 -31 0 -63 -15
-88 -41 -20 -21 -38 -25 -34 -8 5 23 -52 53 -110 56 -49 3 -65 0 -101 -22z
m392 -17 c5 3 6 0 2 -6 -3 -6 2 -17 12 -24 10 -7 27 -27 37 -45 10 -18 23 -29
28 -26 6 3 7 1 4 -4 -8 -12 36 -117 45 -108 3 3 3 -6 1 -20 -9 -44 -36 -29
-67 38 -36 76 -77 117 -118 117 -17 0 -27 -4 -23 -10 11 -18 -14 -11 -35 10
-22 22 -26 45 -10 55 6 4 8 11 5 16 -3 5 2 6 11 2 10 -4 15 -2 11 4 -4 6 10 7
41 2 26 -4 51 -4 56 -1z m-24 -113 c7 -8 17 -12 24 -8 6 3 8 3 4 -2 -4 -4 -2
-15 4 -23 26 -30 65 -122 52 -122 -6 0 -14 -7 -18 -15 -3 -8 -11 -15 -18 -15
-10 0 -10 2 0 8 19 13 -5 72 -29 72 -11 0 -22 7 -26 16 -3 9 -13 14 -23 11
-13 -3 -16 0 -13 13 3 10 0 21 -6 24 -15 10 -14 43 2 49 22 9 34 7 47 -8z m-3
-110 c23 -24 9 -28 -17 -5 -13 11 -18 20 -11 20 7 0 19 -7 28 -15z m-227 -27
c0 -5 -7 -8 -15 -4 -8 3 -15 1 -15 -5 0 -6 -5 -7 -11 -4 -6 5 -4 12 8 20 19
14 33 11 33 -7z m269 -11 c0 -21 -1 -21 -9 -2 -12 28 -12 37 0 30 6 -3 10 -16
9 -28z m-35 -1 c8 3 15 -5 18 -20 3 -14 1 -26 -3 -26 -5 0 -9 10 -10 23 0 21
-1 21 -9 2 -5 -11 -9 -15 -9 -8 -1 6 -3 17 -4 25 -2 7 -2 10 0 6 2 -4 10 -5
17 -2z m-214 -16 c0 -5 -2 -10 -4 -10 -3 0 -8 5 -11 10 -3 6 -1 10 4 10 6 0
11 -4 11 -10z m40 -22 c0 -19 -2 -20 -10 -8 -13 19 -13 30 0 30 6 0 10 -10 10
-22z m-363 -10 c-3 -8 -6 -5 -6 6 -1 11 2 17 5 13 3 -3 4 -12 1 -19z m188 -8
c-3 -5 -12 -10 -18 -10 -7 0 -6 4 3 10 19 12 23 12 15 0z m829 -11 c-3 -5 -9
-7 -14 -4 -4 3 -10 -1 -13 -7 -3 -7 -5 -4 -4 8 1 15 6 20 19 16 10 -2 15 -8
12 -13z m481 1 c10 -11 16 -20 13 -20 -3 0 -13 9 -23 20 -10 11 -16 20 -13 20
3 0 13 -9 23 -20z m-1186 -16 c-13 -15 -34 -20 -25 -5 4 5 3 11 -1 14 -5 2 -2
2 5 1 6 -2 12 1 12 7 0 6 5 7 10 4 8 -5 7 -11 -1 -21z m328 -260 c-3 -3 -12
-4 -19 -1 -8 3 -5 6 6 6 11 1 17 -2 13 -5z m18 -214 c-3 -5 -12 -10 -18 -10
-7 0 -6 4 3 10 19 12 23 12 15 0z m-618 -332 c-3 -8 -6 -5 -6 6 -1 11 2 17 5
13 3 -3 4 -12 1 -19z m-272 -447 c-9 -41 21 -68 83 -77 54 -7 62 -23 30 -56
-10 -10 -18 -24 -18 -32 0 -7 -7 -19 -15 -26 -9 -7 -13 -21 -10 -30 3 -10 -2
-23 -12 -31 -15 -11 -16 -11 -5 1 6 8 12 19 12 25 0 5 -9 -3 -19 -19 -11 -17
-18 -34 -15 -38 3 -5 1 -7 -4 -6 -10 3 -98 -90 -101 -107 -1 -5 -8 -9 -15 -7
-7 1 -19 -5 -26 -13 -18 -21 -44 -20 -35 3 4 9 9 33 12 52 5 25 32 65 96 140
50 58 97 113 106 124 15 17 15 18 -4 15 -11 -3 -20 -11 -20 -19 -1 -8 -6 -14
-12 -13 -6 1 -44 -36 -84 -84 l-73 -86 -13 39 c-7 21 -18 49 -25 61 -10 20 -8
25 16 44 15 12 25 27 22 34 -3 8 3 19 12 27 16 12 16 11 2 -7 -8 -11 5 -3 27
19 26 24 40 44 36 55 -4 14 -3 14 6 1 8 -12 11 -12 17 3 3 9 11 14 17 10 6 -4
8 0 4 10 -3 10 -2 17 4 17 6 0 8 -11 4 -29z m-385 -156 c11 -10 22 -30 25 -46
4 -16 10 -29 13 -29 11 0 5 -112 -7 -144 -6 -16 -9 -38 -6 -50 2 -11 2 -15 -1
-8 -5 10 -12 6 -25 -14 -10 -15 -15 -33 -12 -38 3 -6 3 -8 -1 -4 -10 9 -46
-29 -42 -44 1 -7 1 -9 -2 -5 -2 5 -13 1 -23 -9 -10 -9 -16 -21 -12 -27 3 -5 2
-7 -4 -4 -14 9 -136 -130 -127 -145 4 -7 3 -10 -1 -5 -5 4 -25 -9 -45 -28
l-37 -36 -37 133 c-20 73 -41 143 -46 155 -6 16 -5 23 6 27 9 3 12 11 8 17 -4
7 -3 9 3 6 14 -9 86 80 77 94 -4 7 -3 9 3 6 13 -8 46 27 36 38 -5 4 -3 5 3 2
16 -9 48 29 38 45 -4 7 -3 10 1 5 5 -4 19 3 32 15 24 23 31 44 11 32 -8 -4
-10 -3 -5 2 5 5 12 9 16 9 11 0 80 62 75 68 -14 13 71 -4 86 -18z m390 1 c0
-2 -8 -10 -17 -17 -16 -13 -17 -12 -4 4 13 16 21 21 21 13z m-330 -46 c0 -5
-4 -10 -10 -10 -5 0 -10 5 -10 10 0 6 5 10 10 10 6 0 10 -4 10 -10z m40 -10
c0 -5 -5 -10 -11 -10 -5 0 -7 5 -4 10 3 6 8 10 11 10 2 0 4 -4 4 -10z m124 -6
c3 -8 2 -12 -4 -9 -6 3 -10 10 -10 16 0 14 7 11 14 -7z m-54 -24 c12 -8 9 -10
-13 -10 -16 0 -26 4 -22 10 8 12 16 12 35 0z m50 -10 c0 -5 -2 -10 -4 -10 -3
0 -8 5 -11 10 -3 6 -1 10 4 10 6 0 11 -4 11 -10z m63 -25 c-3 -9 -8 -14 -10
-11 -3 3 -2 9 2 15 9 16 15 13 8 -4z m-59 -60 c-4 -8 -7 -15 -9 -15 -2 0 -5 7
-9 15 -3 9 0 15 9 15 9 0 12 -6 9 -15z m11 -44 c-9 -28 -25 -27 -25 2 0 18 2
19 10 7 8 -13 10 -12 10 4 0 11 3 17 6 13 3 -3 3 -15 -1 -26z m125 15 c0 -2
-7 -7 -16 -10 -8 -3 -12 -2 -9 4 6 10 25 14 25 6z m-140 -50 c0 -2 -7 -7 -16
-10 -8 -3 -12 -2 -9 4 6 10 25 14 25 6z m-53 -95 c-8 -9 -12 -10 -15 -2 -5 16
-22 14 -22 -3 0 -8 -5 -18 -12 -22 -6 -4 -9 -3 -6 2 3 5 8 16 11 25 3 10 15
16 30 15 20 -1 23 -4 14 -15z m-140 -33 c-3 -7 -5 -2 -5 12 0 14 2 19 5 13 2
-7 2 -19 0 -25z m-437 -43 c-5 -14 -7 -32 -3 -42 4 -11 3 -14 -5 -9 -16 9 -15
49 0 64 17 17 19 15 8 -13z m355 -15 c0 -27 -2 -28 -12 -14 -9 13 -10 21 -2
31 15 17 14 18 14 -17z m-35 0 c0 -5 -5 -10 -11 -10 -5 0 -7 5 -4 10 3 6 8 10
11 10 2 0 4 -4 4 -10z m180 6 c0 -3 -4 -8 -10 -11 -5 -3 -10 -1 -10 4 0 6 5
11 10 11 6 0 10 -2 10 -4z m1077 -28 c-3 -8 -6 -5 -6 6 -1 11 2 17 5 13 3 -3
4 -12 1 -19z m-1540 -10 c-3 -8 -6 -5 -6 6 -1 11 2 17 5 13 3 -3 4 -12 1 -19z
m1358 -54 c0 -76 0 -77 32 -94 18 -10 39 -22 46 -29 8 -6 17 -8 20 -4 4 3 7 1
7 -6 0 -7 5 -9 13 -5 7 5 6 -2 -4 -16 -9 -13 -22 -26 -30 -28 -11 -3 -11 -1 1
7 11 8 -41 10 -192 9 -113 -2 -205 -1 -203 1 7 6 -16 42 -23 37 -4 -2 -7 28
-7 67 0 61 3 72 16 69 25 -4 232 25 278 39 23 7 41 16 41 21 0 4 1 8 3 8 1 0
2 -34 2 -76z m-930 38 c-3 -3 -11 0 -18 7 -9 10 -8 11 6 5 10 -3 15 -9 12 -12z
m315 4 c0 -3 -4 -8 -10 -11 -5 -3 -10 -1 -10 4 0 6 5 11 10 11 6 0 10 -2 10
-4z m-366 -46 c-6 -5 -24 21 -24 34 0 6 6 1 14 -10 8 -10 12 -21 10 -24z m21
30 c3 -6 -1 -7 -9 -4 -18 7 -21 14 -7 14 6 0 13 -4 16 -10z m-191 -51 c-9 -10
-22 -19 -28 -19 -6 0 -5 4 3 9 7 5 10 14 7 20 -4 6 -2 11 3 11 6 0 11 8 11 18
1 16 1 16 11 -1 8 -14 7 -23 -7 -38z m31 -8 c-3 -6 -11 -11 -16 -11 -5 0 -4 6
3 14 14 16 24 13 13 -3z m115 -6 c0 -1 -6 -7 -13 -13 -10 -8 -13 -6 -14 8 -1
13 3 17 13 13 8 -3 14 -6 14 -8z m-190 -68 c0 -5 -4 -5 -10 -2 -5 3 -10 14
-10 23 0 15 2 15 10 2 5 -8 10 -19 10 -23z m-36 7 c3 -8 2 -12 -4 -9 -6 3 -10
10 -10 16 0 14 7 11 14 -7z m-104 2 c0 -2 -7 -9 -15 -16 -13 -11 -14 -10 -9 4
5 14 24 23 24 12z m90 -23 c0 -3 -7 -3 -15 0 -8 4 -17 2 -20 -3 -4 -6 -11 -10
-18 -10 -6 0 -2 6 8 14 17 12 45 12 45 -1z m-90 -17 c0 -3 -4 -8 -10 -11 -5
-3 -10 -1 -10 4 0 6 5 11 10 11 6 0 10 -2 10 -4z m65 -6 c-3 -5 -14 -10 -23
-9 -14 0 -13 2 3 9 27 11 27 11 20 0z m165 -5 c-15 -18 -36 -19 -46 -3 -5 8 0
9 14 6 12 -4 25 -2 28 3 3 5 8 9 11 9 3 0 0 -7 -7 -15z"/>
<path d="M2333 2150 c-13 -19 -11 -70 2 -70 6 0 10 16 10 34 0 19 2 33 4 31 2
-3 12 0 22 6 11 5 19 6 19 1 0 -5 11 -14 25 -20 20 -9 25 -9 25 3 0 34 -88 47
-107 15z"/>
<path d="M4200 1399 c0 -307 -3 -559 -7 -559 -451 -4 -764 -3 -766 2 -1 4 -1
73 1 153 l3 145 272 0 272 0 -2 367 c-2 203 -3 378 -3 391 l0 22 -410 0 -410
0 0 -120 0 -120 280 0 280 0 1 -32 c0 -18 0 -72 -1 -120 -1 -75 1 -87 17 -91
17 -4 17 -5 -1 -6 -13 -1 -17 -7 -13 -20 3 -12 -1 -22 -10 -25 -8 -3 -134 -6
-279 -6 l-264 0 0 -390 0 -390 520 0 520 0 0 -35 0 -36 130 3 130 3 1 710 1
710 -131 2 -131 1 0 -559z m220 500 c0 -5 -4 -9 -10 -9 -5 0 -10 7 -10 16 0 8
5 12 10 9 6 -3 10 -10 10 -16z m-1197 -26 c-7 -2 -19 -2 -25 0 -7 3 -2 5 12 5
14 0 19 -2 13 -5z m268 -690 c13 -15 12 -15 -8 -4 -24 12 -29 21 -14 21 5 0
15 -7 22 -17z m-31 -13 c8 -5 11 -10 5 -10 -5 0 -17 5 -25 10 -8 5 -10 10 -5
10 6 0 17 -5 25 -10z m348 3 c-49 -2 -127 -2 -175 0 -49 1 -9 3 87 3 96 0 136
-2 88 -3z m-413 -353 c3 -5 -1 -10 -9 -10 -9 0 -16 5 -16 10 0 6 4 10 9 10 6
0 13 -4 16 -10z m735 -15 c-7 -8 -19 -15 -26 -15 -8 0 -14 7 -14 15 0 10 10
15 26 15 22 0 25 -2 14 -15z m-873 -181 c-3 -3 -12 -4 -19 -1 -8 3 -5 6 6 6
11 1 17 -2 13 -5z m957 -10 c9 -24 7 -28 -9 -14 -17 14 -20 30 -6 30 5 0 12
-7 15 -16z m-47 0 c-3 -3 -12 -4 -19 -1 -8 3 -5 6 6 6 11 1 17 -2 13 -5z"/>
<path d="M7125 1941 c-3 -8 -5 -128 -4 -265 l1 -251 -69 0 -68 0 -2 245 -3
245 -315 3 -315 2 0 -660 0 -660 318 0 317 0 -5 270 c-3 149 -2 270 3 270 4 0
6 6 5 13 -2 8 17 13 65 15 l67 3 0 -320 0 -319 125 -1 125 -1 0 702 c0 387 -4
708 -8 713 -4 6 -57 10 -119 11 -92 1 -113 -2 -118 -15z m-346 -269 c0 -14 -2
-13 -9 3 -8 18 -9 18 -10 -5 -1 -14 -4 -19 -7 -12 -7 18 5 44 17 37 5 -3 10
-14 9 -23z m-44 -416 l0 -418 -62 0 c-33 0 -66 3 -72 6 -12 8 -16 817 -4 830
4 4 37 6 73 4 l65 -3 0 -419z m42 312 c-3 -7 -5 -2 -5 12 0 14 2 19 5 13 2 -7
2 -19 0 -25z m183 -47 c0 -6 -4 -13 -10 -16 -5 -3 -10 1 -10 9 0 9 5 16 10 16
6 0 10 -4 10 -9z m32 -314 c-1 -8 5 -18 15 -20 14 -4 13 -5 -4 -6 -15 -1 -23
5 -23 15 0 8 -4 12 -10 9 -6 -3 -7 1 -4 10 8 20 30 13 26 -8z m138 -7 c0 -5
-5 -10 -11 -10 -5 0 -7 5 -4 10 3 6 8 10 11 10 2 0 4 -4 4 -10z m37 -62 c-3
-7 -5 -2 -5 12 0 14 2 19 5 13 2 -7 2 -19 0 -25z m-410 -320 c-3 -8 -6 -5 -6
6 -1 11 2 17 5 13 3 -3 4 -12 1 -19z m-80 -4 c-3 -3 -12 -4 -19 -1 -8 3 -5 6
6 6 11 1 17 -2 13 -5z m-292 -134 c3 -5 2 -10 -4 -10 -5 0 -12 -10 -14 -22 -3
-17 -5 -14 -6 10 -1 31 11 43 24 22z m575 -40 c0 -5 -2 -10 -4 -10 -3 0 -8 5
-11 10 -3 6 -1 10 4 10 6 0 11 -4 11 -10z m7 -26 c-3 -3 -12 -4 -19 -1 -8 3
-5 6 6 6 11 1 17 -2 13 -5z m360 -50 c-3 -3 -12 -4 -19 -1 -8 3 -5 6 6 6 11 1
17 -2 13 -5z"/>
<path d="M7470 1253 c0 -386 3 -708 6 -717 5 -13 27 -16 135 -16 l129 0 0 721
0 720 -135 -3 -135 -3 0 -702z m70 647 c0 -5 -4 -10 -10 -10 -5 0 -10 5 -10
10 0 6 5 10 10 10 6 0 10 -4 10 -10z"/>
<path d="M9037 1953 c-4 -3 -7 -327 -7 -720 l0 -714 143 3 142 3 3 714 c2 710
2 713 -18 708 -11 -3 -18 -1 -15 3 8 12 -199 8 -207 -5 -5 -6 -8 -6 -8 3 0 13
-22 17 -33 5z"/>
<path d="M4794 1926 c-2 -6 -3 -171 -2 -366 l3 -355 550 -3 c303 -2 587 -1
633 3 l82 7 0 364 0 364 -131 0 -131 0 4 -58 c2 -33 -1 -63 -7 -68 -14 -13
-728 -12 -737 1 -4 6 -8 36 -8 68 l0 58 -126 -2 c-81 -1 -127 -6 -130 -13z
m33 -478 c-1 -90 -3 -19 -3 157 0 176 2 249 3 163 2 -86 2 -230 0 -320z m624
132 l350 0 -3 -72 -3 -73 -370 0 -370 0 -6 65 c-3 36 -6 61 -7 57 -1 -5 -7 -5
-13 -1 -14 8 40 34 59 28 8 -2 171 -4 363 -4z"/>
<path d="M8370 1934 c-129 -24 -259 -112 -284 -191 -4 -13 -12 -23 -17 -23 -5
0 -9 -9 -9 -19 0 -11 -5 -23 -11 -27 -6 -3 -9 -15 -6 -25 3 -11 1 -17 -4 -13
-5 3 -9 -5 -9 -18 0 -13 -4 -28 -9 -33 -21 -23 -34 -140 -34 -315 -1 -238 3
-271 48 -388 44 -116 61 -144 75 -122 8 13 10 13 10 -1 0 -9 7 -22 15 -29 8
-7 12 -17 9 -22 -3 -5 4 -17 17 -26 74 -55 106 -73 121 -68 10 2 16 1 13 -4
-3 -4 10 -11 28 -14 17 -3 43 -8 57 -11 47 -10 169 14 229 45 59 29 96 67 160
164 21 32 30 55 26 70 -4 14 -3 17 3 8 6 -9 14 4 26 46 22 79 28 138 33 314 5
167 -10 292 -48 410 -17 55 -78 150 -125 194 -37 35 -94 66 -110 60 -8 -3 -13
-2 -10 3 11 18 -139 45 -194 35z m-10 -44 c-20 -13 -43 -13 -35 0 3 6 16 10
28 10 18 0 19 -2 7 -10z m-110 -30 c8 -5 11 -10 5 -10 -5 0 -17 5 -25 10 -8 5
-10 10 -5 10 6 0 17 -5 25 -10z m385 -8 c-3 -3 -11 0 -18 7 -9 10 -8 11 6 5
10 -3 15 -9 12 -12z m-433 1 c-6 -2 -10 -9 -7 -13 3 -5 1 -11 -5 -15 -5 -3
-10 0 -10 8 0 17 10 27 24 26 6 0 5 -3 -2 -6z m468 -34 c0 -6 -4 -7 -10 -4 -5
3 -10 11 -10 16 0 6 5 7 10 4 6 -3 10 -11 10 -16z m-520 -40 c0 -6 -4 -7 -10
-4 -5 3 -10 1 -10 -4 0 -6 -5 -11 -10 -11 -6 0 -5 8 2 19 12 19 28 19 28 0z
m570 -13 c0 -3 -7 -6 -16 -6 -8 0 -12 5 -9 10 3 6 -2 10 -12 10 -14 0 -15 2
-4 9 13 8 41 -8 41 -23z m-500 -26 c0 -5 -4 -10 -10 -10 -5 0 -10 5 -10 10 0
6 5 10 10 10 6 0 10 -4 10 -10z m510 -24 c0 -3 -4 -8 -10 -11 -5 -3 -10 -1
-10 4 0 6 5 11 10 11 6 0 10 -2 10 -4z m-252 -42 c34 -22 49 -40 71 -87 18
-37 19 -38 25 -14 3 14 13 27 21 31 19 7 19 1 -1 -18 -18 -19 -19 -61 -6 -181
8 -75 7 -287 -2 -347 -8 -54 -38 -143 -57 -170 -11 -15 -32 -36 -47 -47 -38
-27 -116 -13 -149 27 -12 15 -27 32 -32 38 -36 43 -67 290 -56 439 13 172 40
260 100 321 26 27 97 31 133 8z m-225 -84 c-3 -12 -8 -19 -11 -16 -5 6 5 36
12 36 2 0 2 -9 -1 -20z m556 -50 c0 -10 -3 -8 -9 5 -12 27 -12 43 0 25 5 -8 9
-22 9 -30z m-782 8 c-3 -8 -6 -5 -6 6 -1 11 2 17 5 13 3 -3 4 -12 1 -19z m590
-45 c-3 -10 -5 -4 -5 12 0 17 2 24 5 18 2 -7 2 -21 0 -30z m-600 5 c-3 -8 -6
-5 -6 6 -1 11 2 17 5 13 3 -3 4 -12 1 -19z m780 -30 c-3 -7 -5 -2 -5 12 0 14
2 19 5 13 2 -7 2 -19 0 -25z m-777 -278 c0 -5 -2 -10 -4 -10 -3 0 -8 5 -11 10
-3 6 -1 10 4 10 6 0 11 -4 11 -10z m599 -170 c0 -10 -3 -8 -9 5 -12 27 -12 43
0 25 5 -8 9 -22 9 -30z m205 4 c10 -26 6 -40 -6 -19 -11 19 -11 19 -19 0 -7
-19 -8 -19 -8 1 -1 34 22 47 33 18z m-774 -104 c0 -13 -1 -13 -10 0 -5 8 -10
22 -10 30 0 13 1 13 10 0 5 -8 10 -22 10 -30z m534 24 c3 -8 2 -12 -4 -9 -6 3
-10 10 -10 16 0 14 7 11 14 -7z m-337 -46 c-3 -8 -6 -5 -6 6 -1 11 2 17 5 13
3 -3 4 -12 1 -19z m523 -28 c0 -5 -7 -10 -15 -10 -8 0 -15 5 -15 10 0 6 7 10
15 10 8 0 15 -4 15 -10z m-245 -60 c3 -6 -1 -7 -9 -4 -18 7 -21 14 -7 14 6 0
13 -4 16 -10z m-425 -16 c0 -8 -19 -13 -24 -6 -3 5 1 9 9 9 8 0 15 -2 15 -3z
m36 -6 c4 -7 3 -8 -4 -4 -7 4 -12 2 -12 -5 0 -7 -3 -10 -6 -6 -6 5 3 27 11 27
2 0 7 -5 11 -12z m571 -28 c-11 -16 -17 -18 -22 -9 -5 7 -1 18 10 25 25 18 31
10 12 -16z m3 -35 c-13 -14 -31 -25 -39 -24 -10 0 -8 4 7 9 12 5 25 16 28 25
4 8 11 15 17 15 6 0 0 -11 -13 -25z m-530 -25 c0 -5 -2 -10 -4 -10 -3 0 -8 5
-11 10 -3 6 -1 10 4 10 6 0 11 -4 11 -10z m485 -20 c3 -5 1 -10 -4 -10 -6 0
-11 5 -11 10 0 6 2 10 4 10 3 0 8 -4 11 -10z m-272 -67 c-7 -2 -21 -2 -30 0
-10 3 -4 5 12 5 17 0 24 -2 18 -5z m83 -2 c-3 -5 -15 -7 -26 -4 -28 7 -25 13
6 13 14 0 23 -4 20 -9z"/>
<path d="M9630 1450 l0 -470 635 0 c501 0 635 3 636 13 1 6 3 26 5 42 2 17 1
63 -3 103 l-5 72 -499 0 -499 0 0 65 0 65 499 0 500 0 3 106 c2 58 1 108 -1
110 -2 2 -229 4 -503 4 l-498 0 0 65 0 65 499 0 500 0 3 111 c2 61 1 113 -1
115 -2 2 -289 4 -638 4 l-633 0 0 -470z m270 280 c0 -5 -2 -10 -4 -10 -3 0 -8
5 -11 10 -3 6 -1 10 4 10 6 0 11 -4 11 -10z m73 -367 c-7 -2 -19 -2 -25 0 -7
3 -2 5 12 5 14 0 19 -2 13 -5z m904 -225 c-3 -8 -6 -5 -6 6 -1 11 2 17 5 13 3
-3 4 -12 1 -19z"/>
<path d="M1019 1633 c-8 -10 -9 -14 -2 -10 6 4 14 3 18 -2 3 -6 -4 -8 -17 -6
-17 4 -35 -8 -70 -42 -27 -26 -48 -53 -48 -60 0 -7 27 -38 61 -70 65 -62 110
-78 128 -45 14 27 14 208 -1 232 -16 24 -51 26 -69 3z m61 -34 c0 -11 -4 -17
-10 -14 -5 3 -10 13 -10 21 0 8 5 14 10 14 6 0 10 -9 10 -21z m-67 -174 c-3
-9 -8 -14 -10 -11 -3 3 -2 9 2 15 9 16 15 13 8 -4z m72 5 c3 -5 1 -10 -4 -10
-6 0 -11 5 -11 10 0 6 2 10 4 10 3 0 8 -4 11 -10z m-21 -16 c9 -24 7 -27 -9
-10 -17 17 -19 26 -6 26 5 0 12 -7 15 -16z"/>
<path d="M4710 961 c0 -96 3 -120 15 -125 11 -4 15 2 16 22 2 23 2 24 6 5 4
-22 8 -23 109 -23 l104 0 -6 24 c-5 20 -2 24 13 21 10 -2 20 -4 23 -4 2 -1 -1
-6 -8 -13 -16 -16 -15 -31 2 -25 23 9 28 -20 29 -183 l2 -155 132 -3 133 -3 2
168 3 168 427 3 427 2 3 113 c2 61 2 115 0 120 -2 4 -325 7 -718 7 l-714 0 0
-119z"/>
<path d="M9547 823 c-4 -3 -7 -62 -7 -129 l0 -123 725 0 725 -1 0 124 c0 104
-3 125 -16 130 -21 8 -1419 8 -1427 -1z"/>
<path d="M5560 620 l0 -130 140 0 140 0 0 130 0 130 -140 0 -140 0 0 -130z
m70 -95 c0 -8 -9 -15 -20 -15 -20 0 -26 11 -13 23 12 13 33 7 33 -8z"/>
<path d="M8110 736 c0 -2 8 -10 18 -17 15 -13 16 -12 3 4 -13 16 -21 21 -21
13z"/>
<path d="M1844 569 c-24 -25 -32 -39 -24 -44 13 -8 72 44 64 57 -3 5 0 7 7 6
6 -2 13 2 16 8 9 24 -28 8 -63 -27z"/>
</g>
</svg>
